<?xml version="1.0" encoding="UTF-8" standalone="no"?>
<svg
   xmlns:sketch="http://www.bohemiancoding.com/sketch/ns"
   xmlns:dc="http://purl.org/dc/elements/1.1/"
   xmlns:cc="http://creativecommons.org/ns#"
   xmlns:rdf="http://www.w3.org/1999/02/22-rdf-syntax-ns#"
   xmlns:svg="http://www.w3.org/2000/svg"
   xmlns="http://www.w3.org/2000/svg"
   xmlns:sodipodi="http://sodipodi.sourceforge.net/DTD/sodipodi-0.dtd"
   xmlns:inkscape="http://www.inkscape.org/namespaces/inkscape"
   width="143px"
   height="62px"
   viewBox="0 0 143 62"
   version="1.1"
   id="svg3877"
   sodipodi:docname="logo-ab.svg"
   inkscape:version="0.92.2 5c3e80d, 2017-08-06">
  <metadata
     id="metadata3881">
    <rdf:RDF>
      <cc:Work
         rdf:about="">
        <dc:format>image/svg+xml</dc:format>
        <dc:type
           rdf:resource="http://purl.org/dc/dcmitype/StillImage" />
        <dc:title>Layer_x0020_1 3</dc:title>
      </cc:Work>
    </rdf:RDF>
  </metadata>
  <sodipodi:namedview
     pagecolor="#ffffff"
     bordercolor="#666666"
     borderopacity="1"
     objecttolerance="10"
     gridtolerance="10"
     guidetolerance="10"
     inkscape:pageopacity="0"
     inkscape:pageshadow="2"
     inkscape:window-width="1680"
     inkscape:window-height="1005"
     id="namedview3879"
     showgrid="false"
     inkscape:zoom="10.887014"
     inkscape:cx="108.87088"
     inkscape:cy="27.441553"
     inkscape:window-x="38"
     inkscape:window-y="23"
     inkscape:window-maximized="0"
     inkscape:current-layer="CTA-2"
     inkscape:pagecheckerboard="false"
     borderlayer="false"
     units="in" />
  <!-- Generator: bin/sketchtool 1.4 (305) - http://www.bohemiancoding.com/sketch -->
  <title
     id="title3810">Layer_x0020_1 3</title>
  <desc
     id="desc3812">Created with bin/sketchtool.</desc>
  <defs
     id="defs3814" />
  <g
     style="fill:none;fill-rule:evenodd;stroke:none;stroke-width:1"
     id="CTA-2"
     sketch:type="MSLayerGroup"
     transform="translate(-32,-73)">
    <g
       id="g137"
       transform="translate(62.36788,0.27555765)">
      <g
         id="g93">
        <path
           style="fill:#fff500;fill-opacity:0.50196078"
           inkscape:connector-curvature="0"
           id="path3772"
           d="m 104.26864,98.577097 c 1.81133,1.312168 -3.71929,0.455364 -4.14193,0.335531 -1.847567,-0.497306 -3.53815,-1.24626 -5.156279,-2.025173 -2.831725,-1.408035 -5.367599,-3.061727 -8.120833,-4.535671 -4.540422,-2.60037 -9.098956,-5.19475 -13.52466,-7.884995 -0.476985,0.251648 -0.92982,0.527264 -1.364541,0.814862 -1.47926,0.970646 -3.055124,2.079099 -4.069474,3.319368 -1.014349,0.904737 -2.058887,1.785508 -3.14569,2.648304 -4.914765,3.852623 -10.994824,8.759777 -17.841683,10.976677 0.507175,-1.70761 8.911785,-5.248671 10.825766,-6.566831 3.260409,-2.276823 6.430251,-4.667486 9.117069,-7.285832 0.996236,-1.402044 2.674743,-2.672271 4.184192,-3.822666 0.362267,-0.269623 0.73661,-0.533255 1.116991,-0.796887 0.03019,0.02397 0.07849,0.05393 0.156983,0.09587 l -0.156983,-0.09587 c 0.326041,-0.227683 0.65812,-0.455365 0.990199,-0.677056 0.150945,-0.08388 0.41057,-0.179749 0.495099,-0.311565 0.03019,-0.02996 0.006,-0.06591 -0.006,-0.09587 -0.01208,-0.03595 -0.03019,-0.08388 0.01811,-0.113841 2.372853,0.575197 4.256645,0.838829 6.478553,1.875383 3.520034,1.671667 6.810632,3.654899 9.986512,5.614165 0.211322,0.125824 0.422645,0.25764 0.62793,0.389456 2.288324,1.455968 4.425704,3.019786 6.720066,4.469762 1.322276,0.83883 2.674743,1.653693 4.111733,2.402647 0.32001,0.155783 2.69286,0.946679 2.69286,1.270228 v 0 h 0.006 z" />
        <path
           style="fill:#0093dd;fill-opacity:0.50196078"
           inkscape:connector-curvature="0"
           id="path3810"
           d="m 75.957417,110.71016 c -1.056614,0.0539 -1.116992,-1.432 -1.050576,-2.44458 0.04226,-1.10846 -0.08453,-2.21092 -0.537364,-3.09768 -0.374343,-0.78491 -0.851329,-1.48593 -1.267937,-2.23488 l 0.187172,0.53924 -0.845291,-1.11444 c -0.01811,-0.018 -0.217361,-0.22768 -0.24755,-0.1438 -0.05434,0.19772 0.386419,0.4314 0.470948,0.47334 -0.670195,-0.25165 -1.334353,-0.55722 -1.992472,-0.83883 -0.784914,-0.55722 -1.418882,-1.25824 -2.095115,-1.983231 -0.03623,-0.04194 -0.07245,-0.07789 -0.10868,-0.113841 l 0.03019,0.01797 c 0.04226,0.02397 0.08453,0.04793 0.132831,0.06591 -0.03019,-0.125825 0.05434,-0.281607 0.120756,-0.389457 0.03019,-0.04793 0.150945,-0.173757 0.132832,-0.239665 -0.01208,-0.04194 -0.0483,-0.06591 -0.07245,-0.101858 -0.01811,-0.03595 -0.03623,-0.07789 -0.03623,-0.125825 -0.422645,-0.317556 0.338117,0.01198 0.470948,0.119833 0.60378,0.491315 1.171332,1.048534 1.859641,1.378074 0.724535,0.11984 1.370579,0.34752 2.149455,0.0599 0.006,-0.0959 0.851329,-0.689035 1.014349,-0.796884 0.489061,-0.329541 0.960009,-0.43739 1.461146,-0.299582 0.24755,0.08987 0.476986,0.22169 0.71246,0.341523 0.0483,0.02996 0.428683,0.275613 0.422646,0.07789 0.754724,1.090473 1.44907,2.492523 1.672469,3.966463 0.02415,0.16178 0.04226,0.32355 0.05434,0.48532 0.144907,1.82146 -0.416608,3.73279 -1.370579,5.3026 -0.223399,0.26364 -0.851329,1.33614 -1.261899,1.10247 v 0 l -0.006,-0.006 z M 68.947538,99.930929 c 0.115455,-0.07309 0.150091,-0.18273 0,0 z" />
        <path
           style="fill:#ffffff;fill-opacity:0.50196078"
           inkscape:connector-curvature="0"
           id="path3914"
           d="m 67.824508,101.81258 c 0.05434,-0.0659 0.10868,-0.13181 0.156982,-0.19772 0.537364,-0.53326 1.799263,-1.02457 2.789461,-1.16837 1.213597,-0.17975 2.457383,-0.0899 3.634753,0.25165 1.91398,0.27561 4.220418,0.74895 5.778169,2.04315 0.501137,0.40144 1.002274,0.80287 1.449071,1.27621 0.03019,0.0359 0.06038,0.0659 0.09057,0.10186 -0.0483,0.024 0.857367,1.14441 0.404533,1.34812 -0.0483,0.012 -0.597742,-0.86879 -0.670196,-0.94668 -0.06641,-0.0719 -0.138869,-0.1438 -0.211322,-0.20971 -0.422646,-0.38346 -0.875481,-0.71899 -1.334353,-1.04853 -1.521524,-1.12643 -3.779659,-1.41403 -5.597035,-1.31217 -1.165295,-0.12582 -2.3004,-0.11384 -3.465694,0.0719 l -0.434721,0.0719 c -0.754725,0.13781 -1.485298,0.31756 -2.215871,0.55123 0.04227,-0.024 0.338117,-0.23367 0.199247,-0.1438 -1.020387,0.65309 -1.39473,0.2157 -0.585666,-0.68904 v 0 h 0.01208 z" />
        <path
           style="fill:#00923f;fill-opacity:0.50196078"
           inkscape:connector-curvature="0"
           id="path3940"
           d="m 38.523092,80.260658 c 0,-0.06591 -0.006,-0.131816 -0.006,-0.197724 0.01208,-0.449372 0.06642,-0.922712 0.289816,-1.31816 0.211323,-0.371482 0.573591,-0.599164 0.960009,-0.742963 0.784914,-0.305574 1.666432,-0.32954 2.499647,-0.305574 1.455109,0.01798 2.910217,0.257641 4.335137,0.539248 19.586604,3.648907 39.933971,0.389456 59.695669,0.754946 0.70643,0.01797 1.43096,0.05392 2.12531,0.227682 0.21132,0.05392 0.42868,0.125825 0.62189,0.233674 0.13887,0.07789 0.2717,0.179749 0.36831,0.317557 0.0785,0.113841 0.12679,0.251649 0.13283,0.395448 0.006,0.155783 -0.0242,0.305574 -0.0725,0.449373 -0.13283,0.389457 -0.37435,0.73098 -0.61586,1.054528 -1.43095,1.905341 -3.37512,3.511101 -4.21438,5.817881 -2.18568,4.487737 -2.73512,9.778354 -2.99474,14.703486 -0.25359,5.05095 -0.10265,10.17979 0.65208,15.18281 -0.0725,3.42122 1.96832,6.95629 3.12758,10.08392 0.0906,0.24566 0.16905,0.5033 0.18113,0.76693 0.0121,0.19773 -0.0181,0.40144 -0.11472,0.5752 -0.0966,0.16777 -0.24151,0.29359 -0.41057,0.37747 -0.21132,0.10785 -0.45283,0.16178 -0.68831,0.19174 -1.78115,0.2097 -3.7072,-0.32954 -5.434013,-0.70103 -2.487571,-0.55123 -4.957029,-1.18035 -7.432525,-1.77951 -5.234767,-1.27023 -10.481611,-2.45058 -15.776756,-3.45119 -1.062652,-0.19173 -16.362423,-1.38406 -16.314121,-1.39006 5.415902,-0.76093 11.049164,0.0839 16.374499,1.04255 4.147964,0.76693 8.277816,1.6477 12.389554,2.59438 3.622676,0.82684 7.22724,1.74357 10.855954,2.52248 1.666428,0.3535 3.550218,0.88676 5.270998,0.66507 0.17509,-0.024 0.36226,-0.0599 0.51925,-0.1438 0.0785,-0.0419 0.15094,-0.0899 0.19321,-0.16777 0.0483,-0.0899 0.0543,-0.19173 0.0483,-0.29358 -0.0121,-0.20971 -0.0785,-0.41343 -0.15095,-0.61115 -1.21963,-3.17557 -3.27248,-6.77655 -3.23022,-10.26967 -0.80303,-5.015 -1.00227,-10.14984 -0.80303,-15.21876 0.20529,-5.056945 0.71246,-10.455411 2.84984,-15.104922 0.82718,-2.390664 2.77739,-4.062331 4.19023,-6.075521 0.11472,-0.161775 0.24755,-0.335532 0.33812,-0.527265 -0.0543,-0.01797 -0.11472,-0.02996 -0.16906,-0.04793 -0.60378,-0.125824 -1.23775,-0.137807 -1.8536,-0.143799 -10.1918,0.0719 -20.377559,0.844821 -30.563318,1.090478 -9.745001,0.221691 -19.803966,0.275616 -29.361794,-1.893358 -0.30189,-0.06591 -0.60378,-0.137807 -0.905669,-0.197723 -1.062652,-0.221691 -2.13738,-0.407432 -3.224183,-0.491315 -0.712459,-0.04793 -1.461146,-0.0719 -2.16153,0.113841 -0.205285,0.05992 -0.434721,0.1438 -0.579628,0.311565 -0.205285,0.239666 -0.259626,0.605156 -0.295852,0.910729 -0.35623,2.426614 -0.549439,3.529075 -0.646044,0.149791 z" />
        <path
           style="fill:#00923f;fill-opacity:0.50196078"
           inkscape:connector-curvature="0"
           id="path3944"
           d="m 51.027364,79.044356 c 18.391122,1.743567 36.854697,-0.62313 55.276006,-0.359498 0.73057,0.01797 1.47926,0.05392 2.19172,0.233673 0.24151,0.05992 0.47699,0.1438 0.69435,0.263633 0.18113,0.101857 0.35019,0.233673 0.47095,0.407431 0.11471,0.161774 0.17509,0.359498 0.18717,0.557222 0.0121,0.197724 -0.0242,0.389457 -0.0906,0.575198 -0.14491,0.419414 -0.3985,0.796887 -0.65812,1.150394 -1.40077,1.881375 -3.32683,3.47515 -4.14193,5.73999 -2.15549,4.469762 -2.68078,9.712445 -2.92833,14.607611 -0.23547,5.02699 -0.0785,10.12587 0.68831,15.09893 -0.0543,3.39127 1.96832,6.89039 3.13361,9.98207 0.10868,0.29359 0.19321,0.59917 0.21133,0.91073 0.0121,0.2876 -0.0302,0.5752 -0.1751,0.83284 -0.13887,0.25165 -0.35623,0.44338 -0.60982,0.5692 -0.25962,0.13182 -0.54944,0.19773 -0.83925,0.23967 -1.83549,0.22768 -3.81589,-0.31157 -5.597037,-0.68904 -7.74649,-1.68964 -15.408451,-3.68486 -23.215319,-5.11686 -1.509448,-0.26962 -3.018897,-0.51528 -4.540421,-0.71899 -1.94417,-0.25765 -24.157215,1.70761 -24.108913,1.69563 6.478553,-0.85681 12.274836,-2.9419 18.946599,-2.60636 3.278522,0.17375 6.538931,0.62912 9.775189,1.19832 7.812905,1.39606 15.486942,3.38528 23.257584,4.97906 1.708698,0.3535 3.634748,0.88676 5.397788,0.6411 0.21736,-0.03 0.44076,-0.0779 0.63397,-0.17975 0.13887,-0.0719 0.26566,-0.17376 0.33811,-0.31756 0.0785,-0.14979 0.0966,-0.31755 0.0906,-0.48532 -0.0181,-0.24566 -0.0906,-0.48532 -0.18113,-0.713 -1.24982,-3.11566 -3.2906,-6.69266 -3.28456,-10.13786 -0.85737,-5.009 -1.09888,-10.14384 -0.95397,-15.22475 0.15698,-5.056941 0.60982,-10.461399 2.72304,-15.122894 0.82114,-2.396655 2.76531,-4.074314 4.19023,-6.081513 0.10868,-0.155782 0.24152,-0.323548 0.33208,-0.503297 -0.0483,-0.01198 -0.0966,-0.02996 -0.1449,-0.03595 -0.60378,-0.131816 -1.23775,-0.143799 -1.85361,-0.149791 -4.2506,-0.006 -8.495173,0.137808 -12.739743,0.29359 -10.662745,0.377473 -21.367754,0.850813 -32.024461,0.287599 -1.630205,-0.08988 -19.019052,-2.74417 -10.45746,-1.797492 v 0 l 0.006,-0.02397 z" />
        <path
           style="fill:#fff500;fill-opacity:0.50196078"
           inkscape:connector-curvature="0"
           id="path3780"
           d="m 93.352302,93.070781 c -1.606053,-0.599164 -3.03701,-1.396052 -4.546459,-2.103065 -5.156276,-2.660287 -10.131419,-5.506315 -14.97373,-8.430235 -0.09057,-0.04793 -0.04226,-0.05992 -0.0966,-0.05393 -0.03019,0.006 -0.07245,0.006 -0.108681,0.006 -0.259625,0.02996 -0.507175,0.113841 -0.742649,0.203716 -0.905669,0.36549 -1.708695,0.862796 -2.469457,1.35411 -1.642281,1.084486 -3.31475,2.306781 -4.455893,3.672874 -5.80232,5.2307 -13.035598,10.347559 -21.083978,13.918579 -0.06641,0.024 -0.144907,0.0539 -0.21736,0.0779 1.008312,0.70102 2.288324,1.21031 3.314749,1.90534 1.28605,0.84482 2.590214,1.67766 3.894377,2.5105 3.302674,2.10906 6.629498,4.19415 10.004625,6.24928 0.857367,0.52127 7.203089,3.51709 7.058182,4.38588 -2.729083,-0.99461 -5.126087,-2.69624 -7.432525,-4.08031 -1.871716,-1.12043 -3.725319,-2.25285 -5.58496,-3.37928 -2.861914,-1.73758 -5.645337,-3.55304 -8.56763,-5.23669 -1.123029,-0.72499 -2.511722,-1.24626 -3.598525,-2.00121 -0.132832,-0.0959 -0.265663,-0.19772 -0.35623,-0.31756 -0.03019,-0.0419 -0.06038,-0.0839 -0.06038,-0.13181 0,-0.0719 0.09057,-0.1438 0.150945,-0.19174 0.211323,-0.16776 0.501137,-0.29359 0.778875,-0.40144 7.837057,-3.750767 14.110326,-9.071342 19.212262,-14.595632 1.038501,-1.437993 2.650592,-2.732187 4.274759,-3.888573 0.132831,-0.09587 0.2717,-0.191733 0.41057,-0.281607 0.978122,-0.653089 2.034736,-1.282211 3.236257,-1.731584 0.676233,-0.239665 1.400769,-0.413423 2.155493,-0.443381 0.525288,-0.01798 1.056614,0.04194 1.539637,0.173757 0.567553,0.155783 1.056614,0.419415 1.430958,0.748955 3.012859,1.8634 6.092134,3.696841 9.056691,5.602182 1.636243,1.048537 3.248334,2.127032 4.76382,3.259451 0.507175,0.395448 4.685328,3.990431 3.000784,3.193543 v 0 l 0.01208,0.006 z" />
        <path
           style="fill:#fff500;fill-opacity:0.50196078"
           inkscape:connector-curvature="0"
           id="path3784"
           d="m 85.491094,88.475195 c -4.256645,-1.473943 -8.066493,-3.828657 -11.707283,-5.901764 -0.0966,-0.01797 -0.08453,-0.08987 -0.07849,-0.03595 0,0.01198 -0.06642,0.01798 -0.07849,0.01798 -0.247549,0.04793 -0.476986,0.125824 -0.694346,0.209707 -0.881518,0.383465 -1.660394,0.880771 -2.397005,1.378077 -1.593977,1.090478 -3.248333,2.318764 -4.329098,3.690849 -5.597035,5.224709 -12.697482,10.305618 -20.546614,13.930556 0.905669,0.52726 1.920018,0.97064 2.777385,1.53386 4.667215,2.88198 9.261977,5.8119 14.007683,8.62796 v 0 c 0,0 0.006,0 0.006,0.006 h 0.006 c 2.771347,1.6477 5.55477,3.2954 8.471025,4.82327 0.778875,0.40143 1.575864,0.80888 2.40908,1.15639 0.132831,-0.0719 0.24755,-0.11983 0.320003,-0.10785 -0.04226,0.0599 -0.09057,0.11982 -0.138869,0.17975 l 0.120756,0.0479 c 0.006,0 0.489061,0.15577 0.398494,0.14978 -0.156983,-0.012 -0.313965,-0.012 -0.470948,0.006 -0.09057,0.012 -0.175096,0.024 -0.259625,0.0419 l -0.06038,0.0599 -0.07849,-0.03 c -0.0483,0.012 -0.0966,0.024 -0.13887,0.0419 -0.229436,0.0779 -0.440759,0.17975 -0.621892,0.30558 0.03019,-0.024 0.2717,-0.23368 0.537363,-0.43738 -0.82114,-0.32355 -1.593977,-0.71301 -2.354739,-1.09647 -1.430958,-0.72499 -2.81965,-1.49192 -4.202305,-2.25286 -1.491336,-0.82085 -2.964557,-1.65968 -4.431741,-2.49851 -4.757782,-2.75616 -9.249901,-5.96768 -14.339762,-8.44222 -1.147181,-0.71301 -2.529836,-1.2163 -3.677017,-1.92931 -0.126793,-0.0839 -0.241511,-0.16777 -0.344154,-0.26363 -0.02415,-0.024 -0.03019,-0.0479 -0.07245,-0.0479 -0.06038,-0.006 0.07245,-0.13183 0.07849,-0.13781 0.181134,-0.17377 0.458872,-0.30558 0.718497,-0.41941 l 16.76099,-12.558497 c 0.796988,-0.701022 1.600015,-1.402044 2.366815,-2.12104 1.267937,-1.491918 3.085313,-2.822062 4.920802,-3.990431 0.978123,-0.617139 2.028699,-1.216303 3.212107,-1.635718 0.621893,-0.215699 1.292088,-0.371481 1.992472,-0.395448 0.46491,-0.01198 0.92982,0.03595 1.358504,0.161774 0.489061,0.137808 0.917744,0.36549 1.243785,0.659081 0.06642,0.04194 0.483024,0.29359 0.676233,0.419414 1.920019,1.270228 8.803104,6.914351 8.65216,6.848443 v 0 l -0.01208,0.006 z M 73.246447,118.30157 c -0.223398,0.23367 -0.470948,0.45537 -0.700384,0.68305 0.223398,-0.15579 0.374343,-0.29359 0.664157,-0.38347 0.132832,-0.0419 0.271701,-0.0719 0.41057,-0.0839 0.102643,-0.012 0.211323,-0.018 0.313966,0 0.09057,0.018 -0.362268,-0.0959 -0.531326,-0.15578 -0.05434,-0.018 -0.10868,-0.0359 -0.163021,-0.0599 h 0.006 z" />
        <path
           style="fill:#fff500;fill-opacity:0.50196078"
           inkscape:connector-curvature="0"
           id="path3788"
           d="m 82.423895,85.425451 c -2.451345,-1.24027 -4.836274,-2.546447 -7.1729,-3.894565 -0.06038,-0.04793 -0.446797,-0.257641 -0.724535,-0.335532 -0.30189,-0.07789 -0.621893,-0.10785 -0.941896,-0.08987 -0.54944,0.02996 -1.06869,0.173758 -1.545676,0.353507 -1.062652,0.425406 -1.99851,1.000604 -2.886066,1.587784 -1.756998,1.180353 -3.513996,2.504505 -4.751744,3.978448 -5.542695,5.116859 -12.661254,10.107894 -20.437933,13.577047 -0.350193,0.13182 -0.700385,0.28161 -0.978123,0.47933 -0.175096,0.12583 -0.320003,0.27562 -0.368306,0.44338 -0.03623,0.14979 0.006,0.29959 0.09661,0.43739 0.114718,0.17376 0.283776,0.32355 0.46491,0.46136 1.056614,0.7849 2.445307,1.32415 3.568337,2.07311 4.600799,2.98383 9.286127,5.90775 14.055985,8.75977 2.81965,1.68964 5.657413,3.37329 8.634046,4.92513 0.978123,0.5033 1.974359,1.00659 3.049086,1.40803 0.326041,0.11983 0.664157,0.23368 1.020387,0.29359 0.120756,0.018 0.24755,0.03 0.374343,0.018 0.05434,-0.006 0.108681,-0.012 0.156983,-0.03 0.0483,-0.012 0.09057,-0.0359 0.132832,-0.0599 0.03019,-0.024 0.06038,-0.0479 0.08453,-0.0719 1.267937,-1.03655 11.381242,-8.65791 11.338978,-8.598 -3.163805,2.87 -6.786481,5.49433 -10.058966,8.30441 -0.253587,0.22169 -0.507175,0.43739 -0.754724,0.66507 -0.138869,0.0959 -0.253587,0.17975 -0.434721,0.23368 -0.114718,0.0359 -0.241512,0.0599 -0.368306,0.0719 -0.211323,0.018 -0.422645,0.006 -0.633968,-0.024 -0.428684,-0.0659 -0.827178,-0.19173 -1.213597,-0.32954 -1.12303,-0.40144 -2.16153,-0.91073 -3.181917,-1.42002 -3.037017,-1.52785 -5.929121,-3.19353 -8.803111,-4.85921 -4.800046,-2.7921 -9.358581,-6.0156 -14.526933,-8.49015 -1.213596,-0.71899 -2.674743,-1.22828 -3.821924,-2.0012 -0.326041,-0.23368 -0.615855,-0.49132 -0.827178,-0.77892 -0.259625,-0.37747 -0.362267,-0.80288 -0.259625,-1.22229 0.108681,-0.44338 0.434721,-0.84482 0.875481,-1.16837 0.416607,-0.317552 0.917744,-0.56321 1.44907,-0.778909 5.989492,-3.139618 11.272562,-7.136041 16.145062,-11.060564 1.038501,-0.838829 2.070964,-1.68365 3.061162,-2.552438 1.352466,-1.485926 3.278522,-2.858011 5.192503,-4.038364 1.086803,-0.665072 2.252097,-1.300185 3.556261,-1.743567 0.796989,-0.269624 1.654356,-0.455364 2.547949,-0.479331 0.652082,-0.01198 1.304164,0.05992 1.907943,0.233674 0.700384,0.203716 1.316239,0.527264 1.775112,0.946679 0.06641,0.04194 0.664157,0.419415 0.935858,0.605155 0.935858,0.635114 9.588017,7.040175 4.268721,4.176172 v 0 -0.006 z" />
        <path
           style="fill:#fff500;fill-opacity:0.50196078"
           inkscape:connector-curvature="0"
           id="path3792"
           d="m 71.936246,81.32717 c -1.038501,0.47334 -1.950208,1.078495 -2.813612,1.695634 -1.690583,1.222294 -3.411354,2.570413 -4.570611,4.068322 -5.349486,5.242684 -12.540499,10.31161 -20.293027,13.846674 -0.307927,0.11384 -0.62793,0.24566 -0.869442,0.42541 -0.09057,0.0659 -0.187172,0.14979 -0.199247,0.23966 -0.01208,0.0659 0.02415,0.13781 0.06038,0.19773 0.09057,0.13181 0.229436,0.24566 0.374343,0.35351 1.062652,0.77292 2.451345,1.30018 3.568337,2.03116 4.709479,2.88797 9.334429,5.83586 14.1224,8.65792 2.81965,1.66567 5.657414,3.31936 8.640084,4.84124 0.947934,0.47933 1.913981,0.95866 2.952482,1.34213 0.235474,0.0839 0.483023,0.17376 0.742648,0.22169 1.829452,-1.59977 3.743433,-3.1576 5.657414,-4.70344 2.505684,-2.02517 5.065709,-4.02039 7.69215,-5.97366 0.525288,-0.38346 6.442326,-4.21811 6.394024,-4.16419 -1.853603,1.55184 -3.954755,2.97185 -5.929114,4.4458 -1.962283,1.48592 -3.894378,2.98383 -5.778169,4.51769 -2.566063,2.09708 -5.204579,4.19415 -7.523092,6.42304 -0.04227,0.03 -0.07849,0.0479 -0.132832,0.0659 -0.0483,0.018 -0.102642,0.024 -0.150945,0.03 -0.126793,0.012 -0.253587,0 -0.374343,-0.012 -0.362267,-0.0479 -0.706422,-0.16178 -1.032463,-0.27562 -1.098878,-0.37747 -2.113228,-0.86878 -3.115501,-1.35411 -3.061162,-1.48592 -5.971379,-3.10966 -8.887634,-4.7274 -4.842313,-2.71422 -9.521603,-5.96169 -14.852976,-8.22653 -1.237748,-0.70102 -2.704932,-1.20432 -3.85815,-1.97724 -0.332079,-0.23367 -0.627931,-0.49131 -0.833216,-0.79089 -0.265663,-0.38347 -0.368306,-0.81487 -0.265663,-1.24027 0.114718,-0.44938 0.440759,-0.85081 0.887556,-1.18635 0.416608,-0.317554 0.92982,-0.569203 1.467184,-0.77891 l 8.368383,-5.038968 c 3.966831,-2.630329 7.824981,-5.350533 11.351053,-8.274452 0.289814,-0.299582 1.298126,-1.180353 1.938132,-1.671667 1.032463,-0.784905 2.137379,-1.527868 3.326825,-2.198932 1.056614,-0.593172 2.191719,-1.162378 3.471732,-1.497909 0.664157,-0.191733 1.370579,-0.311566 2.089076,-0.293591 0.464911,0.006 0.929821,0.07789 1.352466,0.215699 0.46491,0.155783 0.869443,0.395449 1.153219,0.701022 0.04227,0.05992 -0.04227,0.239666 -0.537364,0.07789 -0.06038,-0.04793 -0.561514,-0.275615 -0.87548,-0.347515 -0.344154,-0.07789 -0.706422,-0.101858 -1.074727,-0.07789 -0.579629,0.04793 -1.129068,0.215699 -1.636242,0.413423 0,0 -0.006,0 -0.006,0.006 v 0 -0.006 z" />
        <path
           style="fill:#fff500;fill-opacity:0.50196078"
           inkscape:connector-curvature="0"
           id="path3796"
           d="m 71.724923,80.3026 c -0.132831,0.04194 -0.259625,0.08388 -0.386419,0.131816 -1.201521,0.467348 -2.258135,1.102461 -3.254371,1.761542 -1.877754,1.252252 -3.713244,2.654295 -5.047596,4.212121 -5.391751,4.967068 -12.395592,9.820295 -19.979062,13.157638 -0.428683,0.155783 -0.935858,0.389457 -1.316239,0.653093 -0.428683,0.29958 -0.742648,0.67106 -0.863404,1.08448 -0.108681,0.39545 -0.02415,0.80288 0.205285,1.16837 0.187171,0.2876 0.458872,0.55123 0.7668,0.78491 1.074727,0.81486 2.481533,1.37208 3.622676,2.13901 4.528346,3.06772 9.286128,5.99763 14.055985,8.8856 2.843801,1.72559 5.705716,3.44519 8.7065,5.03897 1.056614,0.55123 2.137379,1.09647 3.302673,1.53985 0.483024,0.17975 0.990199,0.33553 1.527562,0.41941 0.35623,0.0539 0.718498,0.0719 1.080766,0.0359 0.253587,-0.024 0.501136,-0.0719 0.73661,-0.14379 0.283777,-0.0899 0.537364,-0.2157 0.760762,-0.3655 3.308712,-2.57041 6.502705,-5.20074 9.853681,-7.74119 1.322277,-1.0006 2.662667,-1.98923 4.027209,-2.95987 1.249823,-0.88077 6.424213,-3.87659 6.333646,-3.78672 -1.829452,1.432 -3.821924,2.77413 -5.74798,4.14023 -1.672469,1.2163 -3.326825,2.44458 -4.938916,3.69684 -2.892104,2.26484 -5.741943,4.55963 -8.501215,6.90236 -0.440759,0.31157 -0.784913,0.5752 -1.364541,0.76094 -0.326041,0.10186 -0.670195,0.17376 -1.026425,0.20372 -0.476986,0.0419 -0.960009,0.024 -1.430957,-0.0419 -0.627931,-0.0959 -1.225673,-0.26963 -1.793225,-0.47334 -1.225672,-0.44338 -2.360778,-1.00061 -3.47777,-1.56382 -3.073237,-1.56382 -6.013643,-3.25346 -8.941973,-4.9431 -4.890614,-2.83405 -9.58198,-5.86582 -14.611463,-8.58602 -1.243785,-0.74296 -2.698894,-1.29419 -3.840037,-2.12104 -0.470948,-0.34751 -0.87548,-0.74296 -1.165294,-1.18035 -0.428684,-0.65309 -0.567553,-1.38407 -0.380381,-2.09708 0.199247,-0.73098 0.730573,-1.390057 1.479259,-1.923312 0.579629,-0.413423 1.267937,-0.748955 1.99851,-1.024571 l 13.283148,-8.244494 c 2.077001,-1.485926 4.123814,-2.989827 6.055908,-4.565628 1.358503,-1.402044 3.465694,-2.858012 5.440052,-4.020389 1.092841,-0.641106 2.252098,-1.246261 3.538148,-1.683651 0.08453,-0.02996 0.169058,-0.05393 0.253587,-0.08388 0.899632,-0.287599 1.859641,-0.479331 2.849839,-0.497306 0.748687,-0.01198 1.497373,0.07789 2.185682,0.281607 0.803026,0.239666 1.503411,0.617139 2.028699,1.102461 2.656629,2.091082 0.935858,1.623734 -1.328315,0.347516 -0.05434,-0.04793 -0.730573,-0.425407 -1.237748,-0.569206 -0.513212,-0.137808 -1.062652,-0.197724 -1.618129,-0.173757 -0.633968,0.02996 -1.249823,0.155782 -1.829452,0.335531 v 0 l -0.01208,0.006 z" />
        <path
           style="fill:#fff500;fill-opacity:0.50196078"
           inkscape:connector-curvature="0"
           id="path3800"
           d="m 63.157293,86.491962 c -5.22873,5.092893 -12.220496,10.018019 -19.779815,13.439245 -0.434721,0.161773 -0.845291,0.353503 -1.189445,0.599163 -0.332079,0.23967 -0.591704,0.52727 -0.682271,0.85681 -0.08453,0.30557 -0.01208,0.61713 0.169058,0.89874 0.163021,0.24566 0.398495,0.46735 0.65812,0.66507 1.074727,0.80288 2.481534,1.34812 3.622677,2.09708 4.649101,2.97185 9.340467,5.91374 14.128438,8.77775 2.837764,1.70162 5.705716,3.39126 8.7065,4.95508 1.026425,0.52727 2.070963,1.04854 3.193993,1.46196 0.404532,0.14979 0.833216,0.28161 1.28605,0.35351 0.241512,0.036 0.489062,0.0479 0.736611,0.03 0.156983,-0.012 0.307928,-0.0419 0.452835,-0.0899 0.169058,-0.0539 0.320003,-0.12583 0.452834,-0.2157 4.419666,-3.67288 8.92386,-7.30381 13.639378,-10.80293 1.606053,-1.17436 3.242295,-2.33673 4.932878,-3.45717 1.310201,-0.86879 2.656629,-1.7196 4.069473,-2.5105 1.06869,-0.62313 2.179644,-1.25824 3.417393,-1.70761 0.30793,-0.11984 0.65812,-0.26963 1.01435,-0.30558 0.38038,-0.0599 -0.16906,0.13182 -0.18114,0.15579 0.0423,0.0779 0.30793,0.0539 0.40454,0.0599 0.0604,-0.006 -0.0423,0.03 -0.0543,0.03 -0.28982,0.11983 -0.57359,0.24565 -0.85133,0.38346 -1.12303,0.54524 -2.185683,1.1504 -3.224184,1.76753 -1.666431,0.97065 -3.266447,1.98923 -4.806084,3.06173 -1.370579,0.95866 -2.717008,1.94129 -4.039284,2.92991 -4.570611,3.45718 -9.255939,6.99224 -13.22277,10.80293 -0.338117,0.23966 -0.60378,0.43739 -1.044538,0.58119 -0.253588,0.0779 -0.525289,0.13181 -0.796989,0.16177 -0.386419,0.0359 -0.778876,0.024 -1.159257,-0.03 -0.561516,-0.0779 -1.092842,-0.23368 -1.606054,-0.41343 -1.201521,-0.41942 -2.318513,-0.94668 -3.417392,-1.47994 -3.115502,-1.5039 -6.092134,-3.1516 -9.044616,-4.7993 -4.950991,-2.78611 -9.714811,-5.734 -14.695991,-8.49015 -1.23171,-0.74297 -2.674743,-1.30019 -3.803811,-2.12704 -0.446796,-0.32953 -0.827177,-0.70102 -1.098878,-1.11444 -0.392457,-0.61115 -0.525288,-1.2882 -0.350192,-1.94728 0.187171,-0.67706 0.68227,-1.288204 1.382655,-1.78551 0.555477,-0.395448 1.213596,-0.707013 1.907943,-0.964654 1.738884,-0.802879 3.399278,-1.749558 5.005331,-2.684254 l 14.484669,-9.640546 c 0.138869,-0.101858 0.277738,-0.203715 0.41057,-0.305573 3.94268,-3.708824 3.513996,-2.264839 0.990198,0.784904 l 0.126794,-0.113841 -0.144907,0.137808 v -0.006 z" />
        <path
           inkscape:connector-curvature="0"
           id="path3802"
           d="M 104.49203,99.829349 C 99.553117,99.5777 91.444359,93.466229 88.292631,91.327214 84.241271,88.583044 78.38461,84.928145 74.33325,82.177983 c -1.352466,-1.228286 -7.607621,3.199535 -9.394808,5.080909 -4.914764,4.098281 -14.297497,10.419459 -21.011524,13.301438 -3.580412,1.2882 0.46491,2.48054 2.717007,4.00241 2.704932,1.83345 25.666664,16.45903 27.453851,15.1948 2.674743,-2.51649 23.215319,-20.155873 27.701404,-20.209798" />
        <path
           style="fill:#0093dd;fill-opacity:0.50196078"
           inkscape:connector-curvature="0"
           id="path3814"
           d="m 76.863086,106.71973 c -0.990198,0.58119 -1.624167,-0.97064 -2.149455,-1.61774 -0.543401,-0.719 -1.12303,-1.39006 -1.636242,-2.151 l 0.181134,0.55723 -0.923783,-1.06053 c -0.03019,-0.024 -0.241512,-0.20371 -0.271701,-0.0839 -0.04226,0.25164 0.392457,0.4973 0.513213,0.56321 -0.694346,-0.20971 -1.382655,-0.50929 -2.070964,-0.74896 -0.555477,-0.37148 -1.0385,-0.82085 -1.521524,-1.2882 l -0.006,0.006 c -0.03623,-0.012 -0.06038,-0.0419 -0.07849,-0.0839 -0.120756,-0.11983 -0.247549,-0.23966 -0.368305,-0.3595 0.114718,0.0419 0.229436,0.0659 0.350192,0.0719 v 0 c 0.01208,-0.10186 0.03019,-0.20371 0.04226,-0.26962 -0.181134,0.28161 -0.03019,-0.18574 0,-0.269624 0.01208,-0.04194 0.02415,-0.08388 0.03623,-0.125825 0.03019,-0.119832 0.02415,-0.215699 -0.04226,-0.305573 -0.08453,-0.113841 -0.199248,-0.215699 -0.205286,-0.389457 -0.501136,-0.461356 0.458873,-0.22169 0.609818,-0.155782 1.189445,0.497306 1.817376,0.305573 2.958519,-0.521273 0.428683,-0.359498 0.972085,-0.539247 1.455109,-0.617139 0.265662,-0.03595 0.537363,-0.006 0.796988,0.02996 0.05434,0.01198 0.615855,0.233673 0.887556,0.467347 0.253587,0.209708 0.483024,0.461357 0.700384,0.724989 0.02415,0.02996 0.706422,0.946677 0.694347,0.844821 0,-0.006 -0.006,-0.01198 -0.006,-0.01797 0.609817,1.420016 1.116992,2.786106 0.953971,4.553646 -0.04226,0.41342 -0.326041,2.25885 -0.899631,2.24087 v 0.006 z m -8.332156,-6.26126 c -0.08453,-0.0839 -0.169059,-0.16177 -0.253588,-0.24566 -0.458872,-0.437386 -0.446796,-0.12582 0.02415,0.11984 0.07245,0.0539 0.150945,0.0959 0.235475,0.12582 h -0.006 z m 0.730384,0.0479 c 0.01269,0 0.01269,0.006 0.01269,0.012 0.05077,0.0599 -0.12692,0.26363 0.07615,-0.10186 l -0.08884,0.0959 v -0.006 z" />
        <path
           style="fill:#0093dd;fill-opacity:0.50196078"
           inkscape:connector-curvature="0"
           id="path3818"
           d="m 77.720453,105.76706 c -0.241512,-0.3595 -0.428684,-0.76693 -0.633969,-1.15638 -0.531326,-1.07251 -1.171332,-2.03716 -1.787187,-3.03776 -0.350192,-0.20372 -0.615855,-0.62313 -0.899631,-0.96466 -0.150945,-0.16776 -0.307928,-0.33553 -0.489062,-0.45536 -0.06641,-0.0479 -0.229436,-0.179752 -0.320003,-0.10186 -0.585666,-0.197724 -1.165294,-0.425407 -1.738884,-0.647097 -0.609818,-0.36549 -1.098879,-0.928704 -1.612091,-1.455968 -0.08453,-0.08987 -0.724536,-0.826846 -0.881518,-0.641106 -0.211323,-0.02996 -0.422646,0.02397 -0.633969,0.125825 -0.247549,0.119833 -0.483023,0.305573 -0.694346,0.515281 -0.41057,0.395448 -0.833216,0.95267 -1.008312,1.557826 -0.253587,0.772919 -0.422646,1.569809 -0.513212,2.372689 -0.06642,0.5752 -0.0966,1.15039 -0.07245,1.7196 0.03019,0.61714 0.126794,1.20432 0.277739,1.77353 0.04226,0.16177 0.247549,0.6411 0.120756,0.82684 -0.223399,-0.018 -0.386419,-0.31156 -0.4951,-0.51528 -0.283776,-0.55722 -0.404532,-1.23428 -0.470948,-1.90534 -0.01811,-0.17975 -0.03019,-0.3595 -0.04226,-0.53925 -0.09057,-1.32415 0.06642,-2.71421 0.398494,-4.044354 0.187172,-0.898746 0.71246,-1.749559 1.249824,-2.414631 0.332078,-0.419414 0.706422,-0.796888 1.110954,-1.09647 0.495099,-0.36549 1.0385,-0.593172 1.58794,-0.647097 0.760762,-0.08987 1.473222,0.239666 2.125303,0.575198 0.271701,0.137807 1.080766,0.754946 1.412844,0.467348 0.08453,0.01198 0.386419,-0.02397 0.555477,0.01198 0.338117,0.07789 0.670196,0.191732 0.996236,0.311565 0.07849,0.02397 0.772838,0.455365 1.110955,0.832838 0.2717,0.299582 0.513212,0.635113 0.73661,0.982628 0.06642,0.101858 0.422646,0.647097 0.513213,0.784905 0.241512,0.641105 0.549439,1.13242 0.748686,1.78551 0.326041,1.07849 0.489062,2.28281 0.332079,3.50511 -0.04226,0.30557 -0.621893,2.49851 -0.98416,1.48592 v 0 -0.012 z m -0.07911,-6.761156 c 0.09412,0.107693 0.117647,0.123077 -0.02353,-0.01538 z" />
        <path
           style="fill:#0093dd;fill-opacity:0.50196078"
           inkscape:connector-curvature="0"
           id="path3822"
           d="m 76.730254,102.3039 c -0.440759,-0.19174 -0.82114,-0.52727 -1.165294,-0.88677 -0.404532,-0.012 -0.827178,-0.57519 -1.116992,-0.83883 -0.175096,-0.14379 -0.35623,-0.29359 -0.561515,-0.38346 -0.06038,-0.03 -0.2717,-0.14979 -0.332078,-0.024 -0.609818,-0.13182 -1.225673,-0.32355 -1.823414,-0.509291 -0.652082,-0.347515 -1.183408,-0.910729 -1.738885,-1.420018 -0.102643,-0.09587 -0.815102,-0.503298 -0.796989,-0.461356 -0.150945,0.01797 -0.289814,0.101858 -0.422646,0.197724 -0.181133,0.131816 -0.350192,0.29359 -0.507174,0.473339 -0.241512,0.275616 -0.71246,0.844821 -0.71246,1.270228 -0.332079,1.192334 -0.483024,2.456574 -0.368305,3.642914 0.01811,0.20372 0.0483,0.40144 0.09057,0.59917 0.05434,0.26363 0.120755,0.52127 0.21736,0.76093 0.144907,0.37149 0.344154,0.69503 0.597742,0.95867 0.126793,0.1438 0.706422,0.48532 0.658119,0.75494 -0.301889,0.14979 -0.694346,-0.0599 -0.92982,-0.22169 -0.362268,-0.25165 -0.627931,-0.63511 -0.857367,-1.05453 v -0.006 c -0.259625,-0.46135 -0.422645,-0.99461 -0.525288,-1.55782 -0.24755,-1.37209 -0.150945,-2.85801 0.04227,-4.307991 0.01208,-0.910729 0.476985,-1.929308 0.899631,-2.708221 0.307928,-0.58718 0.682271,-1.132419 1.147181,-1.539851 0.57359,-0.497306 1.237748,-0.736971 1.883792,-0.707013 0.736611,0.04194 1.376617,0.467348 1.956245,0.922712 0.04227,0.03595 0.09057,0.0719 0.132832,0.10785 0.265663,0.22169 0.754724,0.892754 1.123029,0.844821 0.156983,0.06591 1.008312,0.407431 1.418882,0.62313 0.07849,0.02996 0.688309,0.461356 0.972085,0.814863 0.01207,0.01797 0.02415,0.02996 0.03623,0.04793 0.21736,0.281607 0.41057,0.605155 0.567552,0.946679 0.05434,0.113841 0.434722,1.156386 0.332079,1.102461 0.01208,0.101858 0.784913,3.43321 -0.229436,2.55843 v 0 h 0.01208 z" />
        <path
           style="fill:#0093dd;fill-opacity:0.50196078"
           inkscape:connector-curvature="0"
           id="path3826"
           d="m 77.007993,99.745466 c -0.144907,0.287594 -0.827178,-0.55123 -0.905669,-0.635113 -0.235474,-0.233674 -0.470948,-0.479332 -0.730573,-0.683047 -0.30189,-0.257641 -0.627931,-0.467348 -1.002274,-0.557223 -0.320003,-0.07789 -1.080765,-0.269623 -1.557751,-0.431398 -0.440759,-0.143799 -0.863405,-0.647097 -1.23171,-1.018578 -0.446797,-0.449373 -0.917745,-0.946679 -1.515487,-1.102462 -0.483023,-0.125824 -1.002273,-0.08388 -1.50341,0.10785 -0.470948,0.185741 -0.911707,0.491314 -1.316239,0.862796 -0.724536,0.671063 -1.376618,1.593776 -1.708696,2.618346 -0.537364,1.677663 -0.790951,3.475153 -0.652082,5.170783 0.07245,0.83284 0.247549,1.63572 0.549439,2.35472 0.320003,0.74296 0.778876,1.36609 1.346428,1.82744 0.150945,0.11984 0.307928,0.23368 0.470948,0.32954 l 6.822708,-0.0839 -2.5721,1.70762 c -1.23171,0.58119 -2.928331,-0.1438 -3.99702,-0.5752 -0.392457,-0.15578 -0.772838,-0.34152 -1.12303,-0.58718 -0.694346,-0.48532 -1.261899,-1.17436 -1.684545,-2.0072 -0.398494,-0.80288 -0.652082,-1.7136 -0.803026,-2.66627 -0.289815,-1.9413 -0.181134,-4.03837 0.181133,-6.063542 0.326041,-1.587785 1.110955,-3.097677 2.125304,-4.24208 0.621893,-0.713005 1.346428,-1.282211 2.125304,-1.635718 0.953971,-0.431398 1.94417,-0.51528 2.867952,-0.269623 0.82114,0.239665 1.521524,0.772921 2.155493,1.396052 0.132831,0.131815 0.259625,0.263632 0.380381,0.401439 0.07245,0.08388 0.833215,0.83883 0.772837,0.772922 0.07245,0.04194 0.899632,0.473339 1.23171,0.689038 0.07849,0.02996 0.851329,0.617139 1.225673,1.108453 0.07849,0.10785 0.150944,0.215699 0.223398,0.323549 0.175096,0.275615 0.326041,0.569205 0.458872,0.88077 0.05434,0.119833 0.573591,1.324152 0.120756,1.084487 -0.006,0.107849 0.7668,3.007803 -0.416608,1.491913 0.006,0.10186 -0.2717,-0.736967 -0.32604,-0.575192 v 0 l -0.01208,0.006 z" />
        <path
           style="fill:#0093dd;fill-opacity:0.50196078"
           inkscape:connector-curvature="0"
           id="path3830"
           d="m 74.496271,97.672359 c -0.579629,0.01198 -1.153219,-0.05992 -1.720772,-0.161774 -0.501137,-0.05992 -0.966047,-0.533256 -1.376617,-0.880771 -0.434721,-0.377473 -0.905669,-0.826846 -1.47926,-0.904737 -0.434721,-0.07789 -0.881518,0 -1.316239,0.203716 -0.41057,0.191732 -0.790951,0.485322 -1.135105,0.838829 -0.603779,0.611147 -1.171332,1.443985 -1.418882,2.348722 -0.446797,1.551836 -0.640006,3.205526 -0.470948,4.745376 0.07849,0.71301 0.24755,1.40204 0.525288,2.0072 0.277739,0.59916 0.664158,1.09647 1.147181,1.45597 0.809065,0.60515 1.811339,0.85081 2.771348,1.01259 0.483023,0.0839 0.966047,0.14979 1.449071,0.19772 0.489061,0.5033 2.590213,-0.0659 2.674743,-0.0419 -0.724536,0.8628 -1.883792,0.89875 -2.723046,0.7909 -0.320003,-0.012 -0.646044,-0.0359 -0.966047,-0.0539 -1.273975,-0.0599 -2.602289,-0.25765 -3.701168,-0.92871 -0.62793,-0.39545 -1.159256,-0.96465 -1.575864,-1.65968 -0.416608,-0.70702 -0.706422,-1.51589 -0.911707,-2.37269 -0.440759,-1.85741 -0.549439,-3.93651 -0.241512,-5.955689 0.295852,-1.599768 1.129068,-3.097677 2.173606,-4.188156 0.633969,-0.665071 1.352466,-1.180352 2.119266,-1.485926 0.06642,-0.02397 0.126794,-0.04793 0.193209,-0.0719 0.851329,-0.293591 1.72681,-0.287599 2.523798,-0.01198 0.917745,0.32954 1.636243,1.066512 2.264173,1.887366 0.0483,0.05992 0.790951,0.964654 0.760762,1.018579 h -0.006 c 0.05434,0.03595 0.815102,0.73098 1.062651,1.204319 1.104917,0.736972 -0.01811,1.030562 -0.664157,0.934696 l 0.150945,0.08388 -0.120756,-0.01198 h 0.01208 z" />
        <path
           style="fill:#0093dd;fill-opacity:0.50196078"
           inkscape:connector-curvature="0"
           id="path3834"
           d="m 75.269108,96.198416 c -0.549439,-0.131816 -1.092841,-0.299582 -1.630204,-0.479331 -0.03623,0.03595 -0.368306,-0.167766 -0.857367,-0.683047 -0.615855,-0.647096 -1.249823,-1.294193 -2.064926,-1.569809 -0.736611,-0.233674 -1.5336,-0.215699 -2.318513,0.04793 -0.68227,0.233674 -1.334352,0.641106 -1.926056,1.156387 -1.044539,0.91672 -1.956246,2.186948 -2.46342,3.624941 -0.706422,2.043153 -1.044539,4.248073 -0.905669,6.333163 0.07849,1.12044 0.307927,2.19294 0.706421,3.1516 0.446797,1.05453 1.092841,1.94129 1.895868,2.5824 1.449071,1.15638 3.266447,1.59377 5.023445,1.88137 0.199247,0.0359 0.392457,0.0659 0.591704,0.0959 l 5.766093,-2.97784 -1.575864,2.63033 0.277738,-0.0599 c -1.569826,1.25225 -3.157766,1.61774 -4.854386,1.33613 -0.08453,-0.012 -0.368306,-0.10186 -0.585666,-0.12582 -1.817376,-0.19174 -3.670979,-0.60516 -5.198541,-1.68965 -0.966047,-0.68903 -1.763036,-1.66567 -2.348702,-2.83404 -0.531326,-1.0725 -0.87548,-2.28881 -1.062652,-3.56502 -0.350192,-2.40265 -0.193209,-5.00901 0.446797,-7.483562 0.591704,-2.037157 1.75096,-3.87659 3.181917,-5.212725 0.851329,-0.790896 1.799263,-1.39006 2.789462,-1.725592 1.207558,-0.407431 2.445306,-0.413423 3.568336,-0.01198 0.30189,0.113841 0.591704,0.257641 0.869442,0.425406 0.760762,0.479331 1.394731,1.180353 1.962284,1.953274 0.07849,0.113842 0.742648,0.970646 0.489061,0.80288 0.06642,0.04793 0.646044,0.509289 0.911707,0.742963 0.04226,0.04194 0.09057,0.08388 0.132831,0.125825 0.07849,0.03595 0.899632,0.742963 1.261899,1.378076 0.71246,1.336136 0.126794,1.677659 -0.796989,0.952671 -0.476985,-0.40144 -0.972085,-0.760938 -1.551713,-0.946679 -0.07849,-0.02397 0.398495,0.191732 0.259625,0.143799 v 0 h 0.006 z" />
        <path
           style="fill:#0093dd;fill-opacity:0.50196078"
           inkscape:connector-curvature="0"
           id="path3838"
           d="m 73.276636,95.796977 c -0.241512,-0.155783 -0.458872,-0.353507 -0.676233,-0.54524 -0.621893,-0.55123 -1.249823,-1.132419 -2.028699,-1.348118 -0.682271,-0.173758 -1.406806,-0.119833 -2.119266,0.155782 -0.615855,0.245658 -1.195483,0.641106 -1.726809,1.13242 -0.917745,0.862796 -1.714733,2.031165 -2.137379,3.331351 -0.603779,1.905338 -0.87548,3.942498 -0.71246,5.865818 0.09057,0.98862 0.307928,1.9353 0.676233,2.77412 0.398495,0.89875 0.966047,1.6477 1.672469,2.18695 1.473222,1.12044 3.375127,1.438 5.156277,1.5758 0.893593,0.13781 1.829451,0.0599 2.753234,-0.29958 0.229436,-0.0899 0.452835,-0.19173 0.676233,-0.31156 0.652082,-0.35351 1.267937,-0.83883 1.817376,-1.42601 l 1.690582,-1.54585 -1.195483,2.05514 c -0.585666,0.70701 -1.267937,1.27621 -1.992472,1.69563 -0.386419,0.22169 -0.784913,0.40144 -1.189446,0.55123 -0.941896,0.34752 -1.907943,0.44937 -2.843801,0.3595 -1.889829,-0.012 -3.918528,-0.32954 -5.536657,-1.34213 -0.911707,-0.58119 -1.684545,-1.42002 -2.270211,-2.45058 -0.549439,-0.97664 -0.92982,-2.09707 -1.153219,-3.28342 -0.434721,-2.30678 -0.320003,-4.84124 0.338117,-7.249879 0.579628,-1.935299 1.720771,-3.666883 3.097388,-4.895169 0.271701,-0.239665 0.555478,-0.461356 0.845292,-0.665071 0.57359,-0.389457 1.17737,-0.683047 1.799262,-0.868788 1.110955,-0.323548 2.227946,-0.275615 3.242296,0.137808 1.026425,0.431398 1.829452,1.300185 2.475496,2.330747 0.138869,0.227682 0.277738,0.461356 0.398494,0.707013 0.08453,0.167766 0.211323,0.407432 0.01208,0.563214 0.04226,0.08388 -0.217361,0.641106 -0.694347,0.713005 -0.02415,0.03595 0.144907,0.47334 -0.368305,0.08388 v 0 l -0.006,0.01198 z" />
        <path
           style="fill:#0093dd;fill-opacity:0.50196078"
           inkscape:connector-curvature="0"
           id="path3848"
           d="m 75.818547,96.53994 c -0.392456,-1.473943 2.451345,-0.575198 2.892104,-0.353507 0.92982,0.485323 1.666431,1.282211 2.10719,2.282814 0.344155,0.994612 0.452835,2.061123 0.338117,3.115653 -0.114718,1.02457 -0.428684,2.01319 -0.87548,2.92991 -0.893594,1.83943 -2.294362,3.3673 -3.924567,4.46976 -0.04226,0.03 -0.09057,0.0599 -0.138869,0.0899 -1.726809,1.10246 -3.821924,1.80349 -5.838547,1.46795 -0.326041,-0.0539 -0.682271,-0.12582 -0.972085,-0.29958 0.120756,-0.1438 0.845291,0.03 1.002274,0.0419 1.116992,0.0599 2.233984,-0.0839 3.290598,-0.47933 0.796989,-0.31156 1.557751,-0.73098 2.252097,-1.24626 1.539637,-1.16837 3.53211,-3.11565 2.578138,-5.2307 -0.187172,-0.45536 -0.205285,-0.95866 -0.229436,-1.44998 -0.01208,-0.32954 0.01811,-0.65908 0.006,-0.98862 -0.01208,-0.56321 -0.102643,-1.114442 -0.277739,-1.641706 -0.02415,-0.05392 0.03623,0.1438 0.006,0.08388 -0.217361,-0.455364 -0.501137,-0.862796 -0.833216,-1.228286 -0.211322,-0.233674 -1.491335,-1.180352 -1.382655,-1.557826 v 0 -0.006 z" />
        <path
           style="fill:#0093dd;fill-opacity:0.50196078"
           inkscape:connector-curvature="0"
           id="path3852"
           d="m 78.124985,97.540543 c 0.169058,-1.635717 2.270211,0.515281 2.523798,0.982629 0.422646,0.946679 0.573591,2.019178 0.501137,3.061728 -0.07245,1.04254 -0.35623,2.05513 -0.784913,2.98983 -0.875481,1.95327 -2.324551,3.583 -4.021171,4.75137 -0.996237,0.67106 -2.083039,1.18634 -3.224183,1.48592 -0.917744,0.23368 -1.865678,0.31756 -2.801536,0.22768 -1.153219,-0.11983 -2.276249,-0.52127 -3.248334,-1.19832 -0.513212,-0.36549 -1.098878,-0.84482 -1.400768,-1.438 0.271701,-0.0719 1.322277,1.01259 1.563789,1.16837 0.893594,0.56322 1.895867,0.92871 2.92833,1.01858 0.06642,0.006 0.132832,0.012 0.199247,0.012 1.99851,0.0779 4.039285,-0.67106 5.578922,-2.04315 1.521525,-1.40803 0.815103,-2.47454 1.37058,-4.21811 0.16302,-0.49131 0.398494,-0.95267 0.57359,-1.43799 0.199247,-0.52727 0.35623,-1.07251 0.458872,-1.62973 0.02415,-0.11983 0.04227,-0.23367 0.06038,-0.35351 0.0966,-0.58718 0.13887,-1.18634 0.09057,-1.779512 -0.0483,-0.281607 -0.555477,-1.342127 -0.380381,-1.587784 v 0 l 0.01208,-0.01198 z" />
        <path
           style="fill:#0093dd;fill-opacity:0.50196078"
           inkscape:connector-curvature="0"
           id="path3856"
           d="m 78.13706,98.325448 c 0.416608,0.04793 0.7668,0.359498 1.008312,0.701022 0.374343,0.647097 0.501137,1.41403 0.470948,2.17496 -0.03019,0.85082 -0.265663,1.67766 -0.603779,2.44459 -0.742649,1.68965 -2.010586,3.0857 -3.471732,4.0863 -1.485297,1.0006 -3.242296,1.62373 -5.005332,1.47394 -0.899631,-0.0839 -1.769073,-0.37747 -2.529835,-0.88676 -0.833216,-0.56321 -1.503411,-1.35411 -1.992473,-2.26484 0.01208,0.018 -0.03623,-0.0599 -0.06038,-0.0959 -0.374343,-0.54524 -0.784913,-1.06651 -1.171332,-1.60576 -0.283776,-0.40144 -0.567552,-0.81486 -0.809064,-1.25225 -0.10868,-0.19772 -0.217361,-0.39545 -0.295852,-0.61115 -0.0483,-0.12582 -0.09057,-0.25165 -0.114718,-0.38346 -0.04227,-0.22768 -0.04227,-0.46136 0.02415,-0.68305 0.006,-0.0599 0.132832,-0.49131 0.30189,-0.79089 0.06038,-0.0959 0.416608,-0.689044 0.57359,-0.62314 -0.0966,0.25765 -0.247549,0.49132 -0.35623,0.74297 -0.138869,0.29958 -0.247549,0.62912 -0.253587,0.96465 -0.01811,0.0599 -0.01811,0.11384 0.01811,0.30558 0.02415,0.10784 0.06038,0.21569 0.102643,0.31755 0.07849,0.19173 0.181134,0.37148 0.289814,0.54524 0.24755,0.41942 0.531326,0.81486 0.82114,1.19833 0.10868,0.14979 0.223398,0.29359 0.338117,0.43739 0.03623,0.0479 1.020387,1.30018 1.008311,1.24626 0.476986,0.82085 1.110954,1.52787 1.907943,1.99521 0.700384,0.41343 1.491336,0.62913 2.294362,0.62314 1.666431,-0.0359 3.01286,-0.95867 4.117776,-2.22889 0.615855,-0.73098 1.183408,-1.5099 1.684544,-2.33674 0.277739,-0.46136 0.555478,-0.92272 0.778876,-1.41403 0.24755,-0.53326 0.440759,-1.09048 0.543401,-1.67766 0.01208,-0.0779 0.02415,-0.15578 0.03623,-0.23966 0.05434,-0.40744 0.08453,-0.814867 0.08453,-1.22829 -0.006,-0.07789 -0.175096,-1.126429 0.271701,-0.952671 v 0 l -0.01208,0.01797 z" />
        <path
           style="fill:#0093dd;fill-opacity:0.50196078"
           inkscape:connector-curvature="0"
           id="path3860"
           d="m 79.066881,100.33265 c 0.16302,0.23367 0.247549,0.52726 0.289814,0.80887 0.138869,0.84482 -0.0483,1.73158 -0.344154,2.51649 -0.646044,1.76753 -1.920019,3.23548 -3.375127,4.29001 -1.515487,1.07849 -3.326825,1.74357 -5.156277,1.62373 -0.953971,-0.0719 -1.883791,-0.37148 -2.704932,-0.90473 -0.899631,-0.58119 -1.630204,-1.41403 -2.167568,-2.37269 0.02415,0.0539 -0.887556,-1.12044 -1.243785,-1.59977 -0.241512,-0.31756 -0.476986,-0.64111 -0.694347,-0.97664 -0.06038,-0.0959 -0.120756,-0.19173 -0.181134,-0.2876 -0.132831,-0.2157 -0.253587,-0.44338 -0.356229,-0.68304 -0.06642,-0.16178 -0.120756,-0.32954 -0.156983,-0.5033 -0.06642,-0.32954 -0.06038,-0.67106 0.03019,-0.99461 0,-0.0599 0.0966,-0.5033 0.313965,-0.92271 0.181134,-0.353512 0.41057,-0.683052 0.664158,-0.988625 0.513212,-0.617139 1.110954,-1.16837 1.756998,-1.629726 0.08453,-0.06591 0.567552,-0.473339 0.694346,-0.377473 -0.150945,0.215699 -0.35623,0.389456 -0.543401,0.569206 -0.561515,0.539247 -1.129068,1.072503 -1.618129,1.689642 -0.229437,0.287598 -0.434722,0.593176 -0.597742,0.928706 -0.09057,0.18574 -0.169058,0.38346 -0.223398,0.58718 -0.05434,0.19772 -0.08453,0.40144 -0.08453,0.60515 -0.01811,0.0599 -0.03019,0.13182 0.03623,0.42541 0.03019,0.1438 0.07849,0.28161 0.13887,0.40743 0.0966,0.20971 0.211322,0.41342 0.338116,0.60516 0.277739,0.41342 0.585666,0.80288 0.899631,1.18634 0.08453,0.10785 1.388693,1.64171 1.376617,1.58778 0.525289,0.84483 1.213597,1.56382 2.08304,1.99522 0.748686,0.37747 1.575864,0.51528 2.397004,0.38347 1.491335,-0.27562 2.861914,-1.35411 3.99702,-2.36071 0.05434,-0.0479 0.10868,-0.10186 0.16302,-0.14979 1.002274,-0.9287 1.913981,-1.91133 2.626441,-3.10966 0.01811,-0.03 0.03623,-0.0599 0.05434,-0.0899 0.326041,-0.55123 0.615855,-1.13242 0.905669,-1.70762 0.08453,-0.16776 0.483024,-1.090476 0.694346,-0.5692 v 0 l -0.01207,0.018 z" />
        <path
           style="fill:#0093dd;fill-opacity:0.50196078"
           inkscape:connector-curvature="0"
           id="path3868"
           d="m 77.460828,103.64602 c -0.428684,1.2942 -1.364542,2.37868 -2.390967,3.18156 -1.28605,0.98862 -2.855877,1.62973 -4.449854,1.54584 -0.784914,-0.0479 -1.551714,-0.2816 -2.233984,-0.70701 -0.754725,-0.47334 -1.364542,-1.16837 -1.817376,-1.96525 -0.01208,0.0599 -1.189446,-1.52787 -1.346429,-1.73758 -0.289814,-0.37747 -0.57359,-0.76094 -0.827177,-1.17436 -0.102643,-0.16777 -0.199248,-0.33553 -0.277739,-0.52127 -0.03623,-0.0899 -0.07245,-0.18575 -0.09057,-0.28161 -0.03019,-0.13781 -0.03019,-0.2876 0.006,-0.42541 0,-0.0599 0.10868,-0.48532 0.223398,-0.71899 0.144907,-0.2876 0.332079,-0.55723 0.531326,-0.80288 0.46491,-0.575201 1.002274,-1.08449 1.557751,-1.551838 0.748687,-0.62313 1.551713,-1.210311 2.415118,-1.623734 0.253587,-0.119833 0.51925,-0.227682 0.790951,-0.263632 0.41057,-0.113841 0.893593,-0.02397 1.298126,0.04194 0.591704,0.113841 1.207559,0.269623 1.756998,0.533255 0.03019,0.01798 0.338116,0.161775 0.205285,0.221691 -0.08453,0 -0.163021,-0.01198 -0.24755,-0.01798 -0.585666,-0.0719 -1.165294,-0.221691 -1.75096,-0.317557 -0.374343,-0.04793 -0.796989,-0.119833 -1.165294,-0.02397 -0.09057,0.01198 -0.181134,0.04194 -0.265663,0.0719 -0.984161,0.377474 -1.895868,1.126428 -2.692857,1.833442 -0.513212,0.461356 -1.008311,0.958662 -1.418881,1.527863 -0.156983,0.22169 -0.307928,0.45537 -0.416608,0.70702 -0.07245,0.16776 -0.138869,0.3595 -0.132832,0.55123 0.03019,-0.0539 0,0.0479 0.006,0.0779 0.01208,0.0419 0.03019,0.0839 0.05434,0.12582 0.07245,0.13781 0.163021,0.26363 0.253588,0.38946 0.2717,0.3595 0.57359,0.70102 0.881518,1.03056 0.531326,0.59317 1.171332,1.10246 1.672469,1.7196 0.428683,0.55123 0.990198,0.98263 1.624166,1.21031 0.513213,0.19773 1.062652,0.25165 1.606054,0.2157 0.452834,-0.0419 0.899631,-0.1438 1.34039,-0.2876 0.730573,-0.24565 1.430957,-0.56321 2.095115,-0.97663 0.51925,-0.32355 1.008311,-0.69504 1.479259,-1.09647 0.241512,-0.20372 2.336627,-2.0132 1.714734,-0.50929 v 0 l 0.01208,0.018 z" />
        <path
           style="fill:#0093dd;fill-opacity:0.50196078"
           inkscape:connector-curvature="0"
           id="path3872"
           d="m 76.790632,103.01091 c -0.513212,1.09647 -1.352466,2.0072 -2.294361,2.68425 -1.080766,0.76693 -2.390967,1.2882 -3.701168,1.18036 -0.561515,-0.0539 -1.104917,-0.22769 -1.581903,-0.55123 -0.537363,-0.3655 -0.947933,-0.88677 -1.261899,-1.47395 -0.368305,-0.72499 -0.953971,-1.35411 -1.418881,-2.0072 -0.24755,-0.34751 -0.489062,-0.69503 -0.694347,-1.0725 -0.006,-0.012 -0.01208,-0.018 -0.01811,-0.03 0.006,-0.006 0.006,-0.012 0.01208,-0.024 0.102642,-0.16177 0.223398,-0.31756 0.350192,-0.46136 0.416607,-0.45536 0.881518,-0.8568 1.370579,-1.22229 0.223398,-0.167766 2.499647,-1.348119 2.451344,-1.312169 -0.0483,0.02996 0.199248,-0.06591 0.132832,-0.02996 -0.10868,0.06591 0.483024,0.173757 0.549439,0.185741 0.501137,0.161774 1.020387,0.335531 1.473222,0.617138 0.114718,0.0719 0.374343,0.263632 0.0966,0.287599 -0.0483,-0.006 -0.0966,-0.01198 -0.144907,-0.01797 -0.495099,-0.0719 -0.978123,-0.227682 -1.461146,-0.371481 -0.217361,-0.04793 -0.682271,-0.04194 -0.289815,-0.221691 0.05434,-0.02397 -0.241511,0.09587 -0.193209,0.04194 0.03623,-0.04793 -1.672469,0.880773 -2.215871,1.324153 -0.404532,0.32954 -0.803026,0.68305 -1.14718,1.09647 0.144907,0.19173 0.301889,0.37747 0.458872,0.56321 0.555477,0.67107 1.261899,1.30019 1.702658,2.06712 0.247549,0.35351 0.603779,0.65309 0.996236,0.80288 0.326041,0.13181 0.676233,0.16776 1.020387,0.14979 0.718498,-0.0479 1.418882,-0.29359 2.070964,-0.61714 0.241512,-0.11983 0.476985,-0.24566 0.706422,-0.38346 l 2.240021,-1.80349 c 0.163021,-0.16776 0.332079,-0.34152 0.525288,-0.47933 0.344155,-0.25764 0.579629,-0.10186 0.513213,0.34752 -0.03019,0.24565 -0.126794,0.48532 -0.241512,0.70102 v 0 l -0.006,0.03 z m -10.955201,-1.25824 c -0.03077,-0.0419 -0.06923,-0.0899 -0.1,-0.13781 0.03077,0.11983 0.02308,0.24565 0,0.36549 0.01539,-0.0719 0.04615,-0.15578 0.1,-0.22768 z m -0.03867,-0.13781 c -0.04684,-0.0359 -0.07806,-0.0719 -0.09367,-0.10785 -0.03122,-0.0599 0.06245,0.0599 0.07806,0.0779 0,0.012 0.01561,0.024 0.01561,0.0359 v 0 -0.006 z m 0.0266,0.36549 c -0.05,0.03 -0.05,0.07 -0.1,0.1 0.05,-0.03 0.05,-0.06 0.1,-0.1 z m -0.01208,0.0599 c -0.05,0.0288 -0.05,0.0576 -0.1,0.0865 0,0.0384 0.05,-0.01 0.1,-0.0865 z" />
        <path
           inkscape:connector-curvature="0"
           id="path3878"
           d="m 76.132513,95.395537 c 1.527562,0.742963 2.988708,1.725592 3.495883,3.47515 1.249823,6.219323 -9.074805,13.079743 -12.594839,6.554853 -0.241512,-0.47334 -2.584176,-3.18755 -2.451345,-3.67887 0.03019,-1.44997 3.852113,-4.499717 5.047596,-4.793307 0.966047,-0.359499 5.059672,0.515281 5.838547,1.28221" />
        <path
           style="fill:#ffffff;fill-opacity:0.50196078"
           inkscape:connector-curvature="0"
           id="path3886"
           d="m 61.979923,107.5286 c -1.515486,-0.14979 -0.187172,-2.92991 -0.08453,-3.70882 0.368305,-1.22229 1.213596,-2.19893 2.101152,-3.02578 0.65812,-0.60515 1.418882,-1.126425 1.99851,-1.821455 0.30189,-0.191733 0.579628,-0.395448 0.893594,-0.563214 1.141143,-0.605156 2.451344,-0.964654 3.725319,-0.964654 0.175096,0 0.386419,-0.006 0.555477,0.0719 -0.03019,0.131816 -0.452835,0.149791 -0.543402,0.161774 -0.68227,0.107849 -1.364541,0.221691 -2.022661,0.461356 -0.71246,0.269624 -1.400768,0.629122 -2.004548,1.114445 -0.990198,1.569808 -1.207558,1.749558 -1.424919,3.481138 -0.03019,0.25165 -0.114718,0.49132 -0.205285,0.719 -0.241512,0.5752 -0.621893,1.06651 -0.809064,1.67167 -0.006,0.012 -0.01208,0.03 -0.01208,0.0419 -0.187172,0.4254 -1.509449,2.69024 -2.173606,2.35471 v 0 l 0.006,0.006 z" />
        <path
           style="fill:#ffffff;fill-opacity:0.50196078"
           inkscape:connector-curvature="0"
           id="path3890"
           d="m 62.650118,105.77905 c -0.827178,-0.03 -0.57359,-1.30019 -0.597742,-1.8634 0.205285,-1.27622 1.044539,-2.32476 1.895868,-3.19954 0.621893,-0.63511 1.388692,-1.186343 1.907943,-1.929306 0.972085,-0.671063 1.956245,-1.186344 3.079275,-1.497909 0.543401,-0.1438 1.098878,-0.245658 1.660393,-0.299582 0.7668,-0.07789 2.034737,-0.251649 2.741159,0.197724 -0.132831,0.281607 -2.258135,0.125824 -2.590214,0.18574 -0.04226,0.006 -0.08453,0.01797 -0.126793,0.02397 -1.346429,0.251649 -3.0672,0.754946 -3.94268,2.001207 -0.138869,0.718996 -0.01811,1.923316 -0.386419,2.636326 -0.223398,0.40144 -0.573591,0.74296 -0.881518,1.0725 -0.223398,0.24566 -0.446797,0.48532 -0.664157,0.73098 -0.332079,0.36549 -0.676233,0.713 -1.002274,1.09048 -0.132832,0.18574 -0.778876,1.04853 -1.080765,0.85081 v 0 h -0.01208 z" />
        <path
           style="fill:#ffffff;fill-opacity:0.50196078"
           inkscape:connector-curvature="0"
           id="path3894"
           d="m 63.296162,105.62326 c -0.0483,-0.31755 -0.01208,-0.6411 0.006,-0.95267 -0.01811,-1.04853 0.778875,-1.97125 1.436995,-2.64231 0.670195,-0.67106 1.443033,-1.24027 2.070963,-1.96526 1.165295,-0.808868 2.487572,-1.240266 3.864189,-1.396049 1.195483,-0.131816 2.40908,-0.05392 3.574374,0.227683 0.193209,0.04793 0.386419,0.101857 0.579628,0.167765 0.307928,0.05393 2.481534,0.377474 2.487571,0.808872 -0.730573,0.155779 -1.690582,-0.311566 -2.427193,-0.40144 -0.08453,-0.01198 -0.175096,-0.01797 -0.259625,-0.02397 -1.273975,-0.311565 -2.644554,-0.359498 -3.918528,-0.03595 -1.292088,0.323549 -2.227947,1.066509 -3.01286,2.186949 -0.01207,0.024 -0.470948,0.79689 -0.778875,1.12643 -0.35623,0.37148 -0.754725,0.69503 -1.135106,1.03655 l -0.941896,0.89875 c -0.193209,0.20371 -0.392456,0.40743 -0.609817,0.58119 -0.09057,0.11384 -0.996236,1.02457 -0.947934,0.38945 v 0 l 0.01208,-0.006 z" />
        <path
           style="fill:#ffffff;fill-opacity:0.50196078"
           inkscape:connector-curvature="0"
           id="path3898"
           d="m 63.905979,103.93961 c -0.07245,-0.70701 0.440759,-1.40204 0.845291,-1.90534 0.609818,-0.74895 1.364542,-1.35411 1.950208,-2.12703 1.17737,-0.892754 2.541911,-1.378076 3.960793,-1.5758 1.430957,-0.197725 2.892104,-0.10785 4.286834,0.275615 0.05434,0.006 0.688309,0.08987 0.941896,0.137808 0.440759,0.08987 3.538147,0.65908 3.501921,1.252252 -0.833216,0.08394 -1.859641,-0.509289 -2.680781,-0.665072 -0.670195,-0.119833 -1.352466,-0.215699 -2.028699,-0.233674 -1.292088,-0.263632 -2.741158,-0.215699 -3.960793,0.383465 -0.978123,0.461356 -1.895867,1.216306 -2.704932,1.953276 -0.09057,0.0779 -0.181134,0.15578 -0.2717,0.23966 -0.350193,0.41343 -1.225673,1.16238 -1.883792,1.62973 -0.07849,0.0539 -0.163021,0.11384 -0.241512,0.16776 -0.126794,0.0839 -1.805301,1.15639 -1.720772,0.46735 v 0 h 0.006 z" />
        <path
           style="fill:#ffffff;fill-opacity:0.50196078"
           inkscape:connector-curvature="0"
           id="path3902"
           d="m 64.847875,103.93961 c 0.138869,-0.31156 0.332079,-0.59317 0.543402,-0.8568 0.633968,-0.77891 1.418881,-1.39605 2.083039,-2.151 0.941896,-0.72499 2.131341,-1.054528 3.266447,-1.198327 1.28605,-0.155783 2.596251,-0.04793 3.840037,0.317557 1.310201,0.19772 2.614365,0.52726 3.852112,1.01858 0.700385,0.28161 1.467184,0.62313 2.010586,1.19233 0.03019,0.0359 0.380381,0.36549 0.241512,0.41343 -0.132832,-0.03 -0.253588,-0.0959 -0.368306,-0.16777 -0.531326,-0.31755 -1.050576,-0.6471 -1.630204,-0.86879 -1.334353,-0.4973 -2.789461,-0.85081 -4.208343,-0.87477 -1.249823,-0.2217 -2.469458,-0.0779 -3.658903,0.37747 -0.803027,0.29359 -1.600016,0.67106 -2.312475,1.16837 -0.114719,0.0779 -0.223399,0.15578 -0.338117,0.23966 -0.03623,0.0359 -1.34039,1.0785 -1.986434,1.47395 -0.05434,0.03 -0.102643,0.0599 -0.156983,0.0959 -0.253587,0.1438 -1.684545,0.73697 -1.171332,-0.17975 v 0 h -0.006 z" />
        <path
           style="fill:#ffffff;fill-opacity:0.50196078"
           inkscape:connector-curvature="0"
           id="path3906"
           d="m 66.06751,102.53158 c 0.404532,-0.59917 0.905669,-1.12044 1.328314,-1.69564 0.923783,-0.83283 2.149455,-1.228282 3.320787,-1.414022 1.316239,-0.209708 2.674743,-0.131816 3.966831,0.209707 1.907943,0.215699 3.948718,0.689035 5.633262,1.695635 0.156983,0.0959 0.307928,0.19772 0.452835,0.31156 0.555477,0.4314 1.213597,0.87478 1.624167,1.47994 0.02415,0.0359 0.138869,0.19772 0.03623,0.20971 -0.04226,-0.018 -0.09057,-0.0419 -0.132831,-0.0659 -0.609817,-0.34153 -1.147181,-0.85681 -1.720772,-1.25825 -0.04226,-0.03 -0.09057,-0.0599 -0.138869,-0.0899 -1.690582,-1.01259 -4.003058,-1.56381 -5.947227,-1.33014 -1.255861,-0.0839 -2.481534,0.18574 -3.689093,0.54524 -0.35623,0.10185 -0.712459,0.2157 -1.056614,0.34152 -0.591704,0.2157 -1.183407,0.43739 -1.744922,0.74896 -0.04227,0.0359 -0.259625,0.23367 -0.46491,0.36549 -0.265663,0.16776 -2.312476,0.98262 -1.473222,-0.0539 v 0 h 0.006 z" />
        <path
           style="fill:#ffffff;fill-opacity:0.50196078"
           inkscape:connector-curvature="0"
           id="path3910"
           d="m 66.453929,103.29851 c 0.525288,-0.53925 1.09284,-1.03056 1.600015,-1.58779 0.470948,-0.37747 1.811338,-0.82684 2.735121,-0.92271 1.171332,-0.11983 2.372853,0 3.495883,0.37148 1.8053,0.34153 4.196267,0.79689 5.572884,2.19893 0.03623,0.0359 0.07849,0.0719 0.114718,0.10186 0.440759,0.40144 0.98416,0.85081 1.243786,1.41403 0.0483,0.0959 0.0966,0.26363 -0.06642,0.23367 -0.02415,-0.012 -0.04227,-0.024 -0.06642,-0.0359 -0.543401,-0.31755 -0.966047,-0.87478 -1.461146,-1.27622 0,0 0,0 -0.006,-0.006 -1.346428,-1.19233 -3.616639,-1.62972 -5.331372,-1.62972 -1.159257,-0.17975 -2.270211,-0.13781 -3.42343,0.11983 -0.579628,0.12582 -1.159256,0.29359 -1.708696,0.53326 -0.241511,0.10185 -0.483023,0.20371 -0.718497,0.32354 -0.04227,0.0359 -0.972085,0.66508 -1.473222,0.91073 -0.241512,0.11984 -0.57359,0.2876 -0.851329,0.22769 -0.126794,-0.03 -0.181134,-0.13182 -0.16302,-0.26364 0.0483,-0.28759 0.307927,-0.53325 0.501137,-0.713 v 0 h 0.006 z" />
        <path
           inkscape:connector-curvature="0"
           id="path3916"
           d="m 61.068216,107.07923 c 0.452834,-0.8568 1.322277,-1.83344 1.775111,-2.69024 0.90567,-1.70762 3.139653,-2.61835 4.425704,-3.72081 1.968321,-1.072505 4.848349,-1.216304 7.275542,-0.50929 1.630204,0.22768 4.474005,0.80887 6.074021,1.76753 1.062652,0.64111 2.65663,1.59378 3.151729,2.64232" />
        <path
           style="fill:#00923f;fill-opacity:0.50196078"
           inkscape:connector-curvature="0"
           id="path3924"
           d="m 40.726887,126.00682 c -0.006,0.0539 -1.94417,-24.94319 -2.729083,-32.744306 -0.452835,-4.433813 -2.372854,-8.927542 -2.185682,-13.391312 0.05434,-0.934696 0.283776,-1.857408 0.796989,-2.642313 0.567553,-0.856804 1.418882,-1.432001 2.372853,-1.75555 1.104916,-0.371481 2.288324,-0.425406 3.435505,-0.377473 1.593978,0.05992 3.17588,0.32954 4.733631,0.65908 2.855877,0.575198 5.74798,0.958663 8.658197,1.210311 -3.043048,0.05393 -6.055908,0.197724 -9.03254,0.491315 -1.497373,0 -3.000784,-0.08987 -4.498157,-0.006 -0.857367,0.01797 -1.756998,0.08388 -2.553987,0.431396 -0.10868,0.04194 -0.211323,0.08987 -0.313966,0.149791 -0.283776,0.155783 -0.531325,0.377473 -0.694346,0.65908 -0.235474,0.413423 -0.295852,0.904738 -0.313965,1.372085 -0.01811,4.337946 1.823414,8.663909 2.227946,12.989872 0.138869,1.46196 0.259625,2.929911 0.368305,4.397863 0.404533,5.644121 3.429468,23.780811 -0.2717,28.568131 v 0 -0.012 z M 55.803259,76.959266 c 6.249117,0.539247 12.576726,0.473339 18.801692,0.383465 0.181134,0 0.35623,-0.006 0.537363,-0.006 C 68.69395,77.150998 62.197283,76.851416 55.803259,76.959266 Z m 19.339055,0.377473 c 10.385007,-0.173758 20.824353,-0.952671 31.209356,-0.455365 0.78492,0.02996 1.58794,0.09587 2.34871,0.311566 -0.70039,0.125824 -1.64229,-0.149791 -2.35474,-0.155783 -5.88685,-0.01198 -11.767665,0.113841 -17.648477,0.335532 -4.46193,0.167766 -8.996314,0.09587 -13.554849,-0.02996 v 0 -0.006 z" />
        <path
           style="fill:#00923f;fill-opacity:0.50196078"
           inkscape:connector-curvature="0"
           id="path3928"
           d="m 40.515564,108.85875 c -0.156983,1.00659 -2.101153,-12.870041 -2.40908,-15.60822 -0.501137,-4.42782 -2.46342,-8.915558 -2.318513,-13.38532 0.0483,-0.940687 0.271701,-1.869391 0.784913,-2.666279 0.567553,-0.862796 1.42492,-1.455968 2.390967,-1.785508 1.104916,-0.383465 2.300399,-0.443381 3.459656,-0.40144 1.600015,0.04793 3.187955,0.311565 4.751744,0.635114 14.768445,2.846028 30.345954,1.378077 45.271382,0.910729 4.643064,-0.137808 9.286127,-0.251649 13.929197,-0.149791 0.90566,0.02397 1.81737,0.08988 2.69889,0.317557 0.42264,0.113841 0.83925,0.269624 1.22567,0.485322 0.47699,0.269624 0.89359,0.635114 1.20756,1.090479 0.35019,0.509289 0.54944,1.108453 0.57963,1.725591 0.0241,0.491315 -0.0543,0.976638 -0.21132,1.437994 -0.2234,0.647097 -0.59171,1.228286 -1.00228,1.767533 -1.2619,1.659684 -3.12154,3.121644 -3.87626,5.122851 -0.8151,1.617742 -1.32832,3.343334 -1.83549,5.074917 -0.2717,-1.348118 0.94189,-3.762748 1.49133,-4.913143 0.75473,-2.162981 2.63248,-3.696841 3.96683,-5.482349 0.38642,-0.515281 0.73662,-1.066512 0.94794,-1.68365 0.1449,-0.419415 0.21736,-0.862796 0.19321,-1.312169 -0.0302,-0.557222 -0.21133,-1.090478 -0.52529,-1.551835 -0.28378,-0.413422 -0.66416,-0.742963 -1.09888,-0.98862 -0.36227,-0.203715 -0.74869,-0.341523 -1.14718,-0.449373 -0.85133,-0.215699 -1.74492,-0.269623 -2.6204,-0.287598 -0.42265,-0.006 -0.85133,-0.01198 -1.27398,-0.01198 -16.71865,0.04793 -33.817684,3.061728 -50.451807,2.45058 -2.692857,-0.113841 -5.391751,-0.437389 -8.036305,-0.940687 -1.424919,-0.287598 -2.87399,-0.527264 -4.329098,-0.569205 -0.833216,-0.02996 -1.714734,-0.01798 -2.511723,0.263632 -0.404532,0.137807 -0.778875,0.36549 -1.020387,0.73098 -0.253587,0.401439 -0.332079,0.886762 -0.35623,1.35411 -0.006,0.119833 -0.006,0.239665 -0.006,0.36549 0.04227,4.24208 1.606054,8.418252 1.920019,12.65434 0.169058,2.48653 2.203795,13.738818 0.229436,15.787968 v 0 l -0.01811,0.012 z" />
        <path
           style="fill:#00923f;fill-opacity:0.50196078"
           inkscape:connector-curvature="0"
           id="path3932"
           d="m 40.85368,104.70055 c -0.57359,-3.83465 -0.893593,-7.717229 -1.334352,-11.569853 -0.489062,-4.349929 -2.427194,-8.783741 -2.3004,-13.16962 0.03623,-0.677056 0.175096,-1.366094 0.543402,-1.947283 0.386418,-0.593172 0.978122,-0.982629 1.636242,-1.210311 0.935858,-0.32954 1.956245,-0.36549 2.940406,-0.323548 1.521524,0.04793 3.030973,0.305573 4.51627,0.611147 19.477925,3.810682 39.795103,0.485322 59.466232,0.892754 0.78492,0.01798 1.58191,0.06591 2.34871,0.263632 0.29585,0.07789 0.58566,0.179749 0.85736,0.32954 0.2717,0.155783 0.51322,0.359498 0.69435,0.617139 0.18717,0.269623 0.28981,0.58718 0.30793,0.91672 0.0121,0.287599 -0.0362,0.569206 -0.1268,0.83883 -0.16906,0.491314 -0.45887,0.928704 -0.7668,1.336135 -1.36454,1.809475 -3.27852,3.361309 -4.07551,5.548257 -2.14945,4.397863 -2.69285,9.58063 -2.94644,14.409891 -0.0181,0.33553 -0.0302,0.67106 -0.0483,1.00659 -0.18114,4.65551 -0.0241,9.36494 0.65208,13.9785 -0.0966,3.37329 1.93813,6.81249 3.02493,9.91017 0.12076,0.33553 0.21133,0.68304 0.22944,1.03655 0.0181,0.36549 -0.0483,0.73098 -0.22944,1.05453 -0.18113,0.31755 -0.45887,0.5692 -0.78491,0.73098 -0.30189,0.14979 -0.63397,0.22768 -0.96605,0.26962 -0.74264,0.0719 -2.63851,0.16777 -3.27852,-0.3595 1.06869,0.12583 2.17965,0.29359 3.25437,0.1438 0.30793,-0.0419 0.60982,-0.11983 0.88756,-0.25764 0.27774,-0.1438 0.51925,-0.3595 0.67623,-0.6411 0.15095,-0.28161 0.20529,-0.60516 0.19321,-0.92272 -0.0181,-0.32953 -0.10868,-0.65308 -0.2234,-0.95866 -1.15925,-3.01379 -3.16984,-6.51291 -3.10342,-9.82029 l -0.59171,-5.5902 c -0.2234,-3.19354 -0.26566,-6.39907 -0.12075,-9.59861 0.23547,-4.853223 0.73661,-10.077931 2.85587,-14.517735 0.81511,-2.282814 2.72909,-3.882582 4.12382,-5.787923 0.26566,-0.359498 0.52528,-0.742963 0.66415,-1.174361 0.0664,-0.191732 0.10265,-0.395448 0.0906,-0.599164 -0.0121,-0.209707 -0.0845,-0.413423 -0.20528,-0.58718 -0.1268,-0.179749 -0.30189,-0.317557 -0.48907,-0.425407 -0.2234,-0.119832 -0.46491,-0.203715 -0.70642,-0.263632 -0.7185,-0.173757 -1.47322,-0.203715 -2.20983,-0.215699 -16.652238,-0.0719 -33.232021,2.582397 -49.890296,1.629726 -3.350976,-0.203716 -6.695914,-0.587181 -9.986512,-1.264236 -1.382654,-0.29359 -2.789461,-0.545239 -4.202304,-0.605155 -0.748687,-0.03595 -1.551714,-0.04194 -2.270211,0.203715 -0.259625,0.08988 -0.525288,0.215699 -0.682271,0.461357 -0.187172,0.299582 -0.235474,0.683046 -0.259625,1.02457 -0.07245,1.31816 0.211323,2.660287 0.458872,3.948489 0.573591,2.977845 1.207559,5.943706 1.418882,8.975475 0.138869,2.109056 0.114718,13.12768 -0.03623,11.6777 v 0 l -0.006,-0.006 z" />
        <path
           style="fill:#00923f;fill-opacity:0.50196078"
           inkscape:connector-curvature="0"
           id="path3936"
           d="m 38.879322,86.899394 c -0.676233,-2.210915 -1.503411,-4.583604 -1.515487,-6.926334 0.01811,-0.65908 0.138869,-1.324152 0.483024,-1.893358 0.362267,-0.587181 0.92982,-0.970645 1.563788,-1.198328 0.923783,-0.341523 1.938132,-0.389456 2.916255,-0.36549 1.521524,0.02397 3.037011,0.263633 4.522308,0.557223 19.526227,3.571016 39.789065,0.263632 59.47227,0.58718 0.80907,0.01798 1.63021,0.06591 2.42116,0.263632 0.32604,0.08388 0.64001,0.197725 0.93586,0.359499 0.31396,0.179749 0.5917,0.419414 0.80302,0.718996 0.21737,0.317557 0.34416,0.69503 0.36831,1.084487 0.0181,0.32954 -0.0362,0.653089 -0.14491,0.964654 -0.18113,0.521272 -0.48302,0.994612 -0.8151,1.432001 -1.33435,1.779517 -3.23022,3.319368 -4.00306,5.464374 -2.11323,4.379888 -2.63851,9.50873 -2.88002,14.30803 -0.23548,4.95509 -0.0845,9.98207 0.66415,14.88922 -0.0181,0.76094 0.15699,1.53386 0.3502,2.26484 0.68227,2.58839 1.78114,5.021 2.71097,7.51951 0.1449,0.38346 0.24754,0.7909 0.2717,1.20432 0.0242,0.47334 -0.0664,0.94069 -0.29586,1.3601 -0.23547,0.41941 -0.5917,0.74296 -1.01435,0.96465 -0.35623,0.17975 -0.74868,0.28161 -1.14718,0.32954 -1.9502,0.23368 -4.02117,-0.31156 -5.90496,-0.71899 -3.193993,-0.71301 -10.034814,-1.05453 -12.606914,-3.1516 4.26872,0.713 8.452912,1.91133 12.679368,2.82805 1.847566,0.39545 3.888336,0.93469 5.796286,0.69503 0.35623,-0.0479 0.70642,-0.13781 1.02642,-0.29958 0.35623,-0.18574 0.66416,-0.46136 0.85737,-0.81487 0.19321,-0.3535 0.26566,-0.75494 0.24755,-1.16237 -0.0181,-0.27562 -0.0725,-0.55123 -0.15698,-0.81487 -0.0302,-0.0899 -0.0604,-0.18574 -0.0966,-0.27561 -1.15322,-2.95388 -3.16381,-6.39907 -3.13966,-9.65253 -0.80302,-4.99703 -0.99623,-10.13186 -0.79095,-15.18281 0.20529,-4.829263 0.67623,-10.01203 2.71701,-14.457825 0.77887,-2.282815 2.68078,-3.894565 4.03325,-5.817881 0.26566,-0.371482 0.51925,-0.760938 0.65812,-1.198328 0.0664,-0.197724 0.10264,-0.413423 0.0845,-0.62313 -0.0181,-0.221691 -0.0906,-0.431398 -0.21737,-0.611147 -0.13283,-0.185741 -0.31397,-0.323549 -0.50718,-0.431398 -0.22943,-0.119833 -0.47094,-0.197725 -0.71849,-0.257641 -0.72454,-0.155782 -1.47323,-0.173757 -2.21587,-0.173757 -10.795581,0.203715 -21.560968,1.414026 -32.356544,1.75555 -9.086881,0.263632 -18.439424,0.269623 -27.363284,-1.671667 -0.03019,-0.006 -0.06038,-0.01198 -0.09057,-0.01797 -1.400769,-0.311565 -2.813612,-0.581189 -4.24457,-0.677056 -0.796989,-0.04793 -1.636242,-0.05992 -2.40908,0.167766 -0.35623,0.10785 -0.700384,0.281607 -0.923782,0.593173 -0.253588,0.353506 -0.344154,0.814862 -0.386419,1.240269 -0.10868,1.102461 1.098879,9.694471 0.350192,6.842451 v 0 z" />
        <path
           style="fill:#00923f;fill-opacity:0.50196078"
           inkscape:connector-curvature="0"
           id="path3948"
           d="m 50.574529,79.811286 c 18.475651,2.264839 37.150549,-0.215699 55.686581,0.18574 0.29585,0.006 0.5917,0.01797 0.88755,0.04194 0.0664,-0.107849 0.13283,-0.215699 0.12076,-0.191732 -0.0241,0.05992 -0.0423,0.125824 -0.0483,0.197724 0.32,0.02996 0.63397,0.07789 0.94189,0.155783 0.11472,0.02996 0.23548,0.06591 0.34416,0.119832 -0.10264,0.269624 -0.28982,0.521273 -0.45887,0.748955 -0.0966,0.125824 -0.18718,0.245657 -0.28982,0.371482 0.0362,0.02996 0.0785,0.05992 0.12076,0.08988 0.0845,0.05392 -0.0302,0.006 -0.0664,0 -0.0362,-0.006 -0.0725,-0.01198 -0.10868,-0.02397 -1.45511,1.809474 -3.21211,3.40325 -4.03929,5.644123 -2.24606,4.571619 -2.81361,9.982069 -3.09135,15.003067 -0.26566,5.12884 -0.12679,10.32958 0.62189,15.41049 -0.0785,3.38527 1.85361,6.85443 3.03702,9.98207 0.0362,-0.006 0.0604,-0.012 0.0121,0.012 l -0.006,0.006 c 0.0423,0.10785 0.0785,0.20971 0.11472,0.31756 0.0362,0.10185 0.0785,0.21569 0.0966,0.32954 -0.0724,0.018 -0.15094,0.03 -0.22339,0.0419 -0.15095,0.018 -0.30189,0.024 -0.45284,0.03 v 0.0719 c 0,0.024 -0.0121,-0.012 -0.0242,-0.0659 -1.51549,0.0419 -3.12758,-0.41942 -4.570609,-0.73698 -7.752528,-1.76753 -15.426565,-3.80469 -23.245508,-5.27863 -4.612875,-0.84482 -9.304242,-1.48593 -14.007683,-1.39006 0,-0.0539 -25.690815,2.84603 -25.739118,2.85801 8.356308,-1.10845 19.07943,-3.46316 27.713476,-3.33135 4.069474,0.0779 8.120834,0.62912 12.123891,1.35411 7.83102,1.44399 15.511094,3.47515 23.287773,5.15281 1.304168,0.28161 2.801538,0.71301 4.190228,0.69503 -1.29212,-3.22351 -3.16384,-6.75258 -3.11554,-10.25769 -0.809062,-5.02698 -1.008309,-10.16182 -0.809062,-15.24872 0.223399,-5.23669 0.778872,-10.814905 3.043052,-15.608216 0.71849,-2.007199 2.1736,-3.5111 3.50192,-5.110868 -7.83706,-0.08388 -15.674117,0.323549 -23.505136,0.533256 -10.499724,0.281607 -21.180583,0.491315 -31.58974,-1.150394 -1.606053,-0.257641 -3.206069,-0.569206 -4.775895,-0.994612 -3.652866,-0.940688 -3.568337,-1.282211 0.132831,-0.599164 1.388693,0.239665 2.783423,0.455364 4.184191,0.641105 v 0 l 0.006,-0.006 z m 57.938671,0.509289 c 0.0146,0.006 0.0291,0.01198 0.0437,0.01797 0.0291,0.01198 0.0801,0.05992 0.0437,0.01198 -0.0291,-0.03595 -0.051,-0.08388 -0.051,-0.125825 0,-0.02397 -0.0218,0.05392 -0.0218,0.06591 l -0.0146,0.02996 z m -4.04532,47.885175 c 0.006,0.036 0.006,0.0659 0.0121,0.10186 0,0.0659 0.0121,-0.018 0.0241,-0.0479 0.0121,-0.024 0.0664,-0.0899 0.0664,-0.0899 -0.0302,0.012 -0.0664,0.024 -0.0966,0.0359 h -0.006 z" />
      </g>
      <path
         d="m 67.341484,80.602182 c 12.97522,-0.07789 25.95044,-1.174361 38.925656,-0.946679 0.65812,0.01198 1.33436,0.04194 1.9804,0.203716 0.15698,0.04194 0.32,0.08988 0.46491,0.173757 0.0543,0.02996 0.11472,0.06591 0.15095,0.119833 0.0121,0.01797 0.0181,0.03595 0.0181,0.05392 0.006,0.06591 -0.0181,0.137808 -0.0362,0.203716 -0.10869,0.323548 -0.32001,0.611147 -0.51926,0.874779 -1.47322,1.971249 -3.42946,3.612958 -4.2989,5.991638 -2.20984,4.547653 -2.75928,9.91017 -3.0189,14.895208 -0.24755,5.09888 -0.10264,10.26967 0.66416,15.31463 -0.0725,3.46316 1.99247,7.04017 3.1638,10.20376 0.0664,0.18574 0.13283,0.38346 0.13887,0.58119 0.006,0.0779 0,0.16776 -0.0362,0.23966 -0.0362,0.0599 -0.0966,0.0959 -0.15095,0.12583 -0.15094,0.0779 -0.32604,0.10785 -0.48906,0.12582 -1.70869,0.20372 -3.57437,-0.33553 -5.228727,-0.68904 -7.752517,-1.72559 -15.426554,-3.73878 -23.23946,-5.18876 -9.847643,-1.76154 -17.515641,-0.55123 -27.067432,0.89276 -1.666431,0.24565 -3.350976,0.30557 -5.029483,0.22169 -0.827177,-0.024 -7.945737,1.76154 -11.145768,2.55843 3.670979,-1.06651 6.387986,-3.1576 11.157844,-3.00781 2.046812,0.0959 4.081549,-0.0359 6.092134,-0.43139 9.092919,-1.85142 16.785069,-2.46856 26.095348,-0.82086 7.824981,1.40804 15.511093,3.40924 23.299848,5.00302 1.485296,0.30557 3.212106,0.81486 4.763816,0.64111 -1.33435,-3.27144 -3.36909,-6.97427 -3.34493,-10.58723 -0.851333,-5.02099 -1.068694,-10.16182 -0.875484,-15.24872 0.211322,-5.212719 0.760764,-10.766967 3.030974,-15.53032 0.7668,-2.139015 2.39097,-3.708824 3.79173,-5.428424 -0.12075,-0.006 -0.24151,-0.006 -0.36226,-0.01198 H 99.782553 C 89.1983,81.273245 78.608008,81.776543 68.017717,81.482953 58.405549,81.207337 57.022894,80.59619 67.347522,80.59619 v 0 l -0.006,0.006 z M 32.593978,126.55206 c -0.670195,0.16776 -1.171332,0.28759 -1.406806,0.34152 0.489061,-0.0959 0.953971,-0.20971 1.406806,-0.34152 z m -1.406806,0.34152 c -0.09661,0.08 -0.144907,0.1 -0.144907,0.1 0.0483,-0.04 0.0966,-0.06 0.144907,-0.1 z"
         id="path3952"
         inkscape:connector-curvature="0"
         style="fill:#00923f;fill-opacity:0.50196078" />
      <path
         d="M 39.700462,127.18118 C 40.080843,114.19131 40.153296,105.22182 39.2114,93.172639 38.354033,82.171991 32.509449,74.251045 46.776757,77.462563 c 16.157137,3.630933 42.741546,1.102462 59.514543,1.56981 7.40233,0.203715 -0.11472,3.996422 -1.72681,8.44821 -3.67098,7.399673 -3.60457,21.899437 -2.35474,29.928237 -0.0725,2.49851 2.60229,8.60998 3.1638,10.08392 1.73889,4.59559 -8.960086,-0.17375 -29.669721,-3.81667 -20.709634,-3.64891 -21.222847,1.91133 -31.994272,1.61774 C 32.938132,124.99423 34.453618,128.80491 31,128.70905"
         id="path3954"
         inkscape:connector-curvature="0" />
    </g>
  </g>
</svg>
