<svg xmlns="http://www.w3.org/2000/svg" width="143" height="62" viewBox="0 0 143 62"><g fill="none" fill-rule="evenodd"><path d="M134.637 25.853c1.81 1.312-3.72.455-4.142.335-1.848-.497-3.539-1.246-5.157-2.025-2.831-1.408-5.367-3.062-8.12-4.536-4.54-2.6-9.1-5.194-13.525-7.885-.477.252-.93.528-1.365.815-1.479.97-3.055 2.08-4.07 3.32a71.587 71.587 0 0 1-3.145 2.648c-4.915 3.853-10.995 8.76-17.842 10.977.508-1.708 8.912-5.25 10.826-6.567 3.26-2.277 6.43-4.668 9.117-7.286.997-1.402 2.675-2.672 4.184-3.823.363-.27.737-.533 1.117-.797a1.1 1.1 0 0 0 .157.096l-.157-.096c.326-.227.659-.455.99-.677.152-.084.411-.18.496-.311.03-.03.006-.066-.006-.096-.012-.036-.03-.084.018-.114 2.373.575 4.257.839 6.478 1.875 3.52 1.672 6.811 3.655 9.987 5.615.211.125.423.257.628.389 2.288 1.456 4.426 3.02 6.72 4.47 1.322.839 2.675 1.653 4.112 2.402.32.156 2.693.947 2.693 1.27h.006z" fill="#fff500" fill-opacity=".502"/><path d="M106.325 37.986c-1.056.054-1.117-1.432-1.05-2.445.042-1.108-.085-2.21-.538-3.098-.374-.784-.851-1.485-1.268-2.234l.188.539-.846-1.115c-.018-.018-.217-.227-.247-.143-.055.197.386.431.47.473-.67-.252-1.334-.557-1.992-.839-.785-.557-1.419-1.258-2.095-1.983a1.997 1.997 0 0 0-.109-.114l.03.018a.912.912 0 0 0 .133.066c-.03-.126.055-.282.121-.39.03-.047.151-.173.133-.24-.012-.041-.048-.065-.072-.101a.28.28 0 0 1-.037-.126c-.422-.317.338.012.471.12.604.491 1.172 1.048 1.86 1.378.724.12 1.37.348 2.15.06.005-.096.85-.69 1.014-.797.489-.33.96-.437 1.46-.3.248.09.478.222.713.342.049.03.429.276.423.078.755 1.09 1.45 2.492 1.672 3.966.025.162.043.324.055.486.145 1.821-.417 3.732-1.37 5.302-.224.264-.852 1.336-1.263 1.103l-.006-.006zm-7.01-10.78c.116-.073.15-.182 0 0z" fill="#0093dd" fill-opacity=".502"/><path d="M98.192 29.088c.055-.066.11-.132.157-.198.538-.533 1.8-1.024 2.79-1.168a8.566 8.566 0 0 1 3.635.252c1.914.275 4.22.749 5.778 2.043.5.401 1.002.803 1.449 1.276.03.036.06.066.09.102-.048.024.858 1.144.405 1.348-.048.012-.598-.869-.67-.947a3.474 3.474 0 0 0-.212-.21 14.831 14.831 0 0 0-1.334-1.048c-1.521-1.126-3.78-1.414-5.597-1.312a12.917 12.917 0 0 0-3.466.072l-.434.072a17.6 17.6 0 0 0-2.216.551c.042-.024.338-.234.199-.144-1.02.653-1.395.216-.586-.689h.012z" fill="#fff" fill-opacity=".502"/><path d="M68.891 7.536c0-.066-.006-.132-.006-.198.012-.449.066-.922.29-1.318.211-.371.573-.599.96-.743.785-.305 1.666-.33 2.5-.305 1.455.018 2.91.257 4.335.539 19.586 3.649 39.934.39 59.695.755.707.018 1.431.054 2.126.228.21.054.428.125.621.233.14.078.272.18.369.318a.756.756 0 0 1 .133.395c.006.156-.025.306-.073.45-.133.39-.374.73-.616 1.054-1.43 1.906-3.375 3.511-4.214 5.818-2.186 4.488-2.735 9.778-2.995 14.704-.253 5.05-.103 10.18.652 15.182-.072 3.422 1.969 6.957 3.128 10.084.09.246.169.504.18.767.013.198-.017.402-.114.575a.957.957 0 0 1-.41.378 2.103 2.103 0 0 1-.689.192c-1.78.21-3.707-.33-5.434-.701-2.487-.552-4.957-1.18-7.432-1.78-5.235-1.27-10.482-2.45-15.777-3.451-1.063-.192-16.362-1.384-16.314-1.39 5.416-.761 11.049.084 16.374 1.042 4.148.767 8.278 1.648 12.39 2.595 3.623.827 7.227 1.743 10.856 2.522 1.666.354 3.55.887 5.27.665.176-.024.363-.06.52-.143a.438.438 0 0 0 .193-.168c.049-.09.055-.192.049-.294a2.16 2.16 0 0 0-.151-.61c-1.22-3.176-3.273-6.777-3.23-10.27-.804-5.016-1.003-10.15-.804-15.22.206-5.056.713-10.455 2.85-15.104.827-2.39 2.778-4.063 4.19-6.076.115-.162.248-.335.339-.527-.055-.018-.115-.03-.17-.048-.603-.126-1.237-.138-1.853-.144-10.192.072-20.378.845-30.563 1.09-9.745.222-19.804.276-29.362-1.893-.302-.066-.604-.137-.906-.197-1.062-.222-2.137-.408-3.224-.492-.712-.048-1.461-.072-2.162.114-.205.06-.434.144-.58.312-.204.24-.259.605-.295.91-.356 2.427-.55 3.53-.646.15z" fill="#00923f" fill-opacity=".502"/><path d="M81.395 6.32c18.391 1.743 36.855-.623 55.276-.36.73.018 1.48.054 2.192.234.241.06.477.144.694.264.181.102.35.233.471.407.115.162.175.36.187.557.013.198-.024.39-.09.576-.145.419-.399.796-.658 1.15-1.401 1.881-3.327 3.475-4.142 5.74-2.156 4.47-2.681 9.712-2.929 14.608-.235 5.027-.078 10.125.689 15.098-.055 3.392 1.968 6.89 3.133 9.983.11.293.194.599.212.91a1.54 1.54 0 0 1-.175.833 1.394 1.394 0 0 1-.61.57c-.26.131-.55.197-.84.239-1.835.228-3.815-.312-5.596-.689-7.747-1.69-15.409-3.685-23.216-5.117-1.51-.27-3.019-.515-4.54-.719-1.944-.258-24.157 1.708-24.11 1.696 6.48-.857 12.276-2.942 18.947-2.607 3.279.174 6.54.63 9.776 1.199 7.813 1.396 15.487 3.385 23.257 4.979 1.709.353 3.635.887 5.398.64.217-.03.44-.077.634-.179a.751.751 0 0 0 .338-.317.957.957 0 0 0 .09-.486 2.431 2.431 0 0 0-.18-.713c-1.25-3.115-3.291-6.692-3.285-10.138-.857-5.009-1.099-10.143-.954-15.224.157-5.057.61-10.462 2.723-15.123.821-2.397 2.765-4.075 4.19-6.082.109-.156.242-.323.332-.503-.048-.012-.096-.03-.145-.036-.603-.132-1.237-.144-1.853-.15-4.25-.006-8.495.138-12.74.294-10.663.377-21.368.85-32.024.287-1.63-.09-19.02-2.744-10.458-1.797l.006-.024z" fill="#00923f" fill-opacity=".502"/><path d="M123.72 20.346c-1.606-.599-3.037-1.396-4.546-2.103-5.157-2.66-10.132-5.506-14.974-8.43-.09-.048-.042-.06-.097-.054-.03.006-.072.006-.108.006-.26.03-.507.114-.743.204-.906.365-1.709.863-2.47 1.354-1.642 1.084-3.314 2.307-4.455 3.673-5.803 5.23-13.036 10.347-21.084 13.918-.067.024-.145.054-.218.078 1.009.701 2.289 1.21 3.315 1.906 1.286.844 2.59 1.677 3.895 2.51a549.056 549.056 0 0 0 10.004 6.25c.857.52 7.203 3.516 7.058 4.385-2.729-.994-5.126-2.696-7.432-4.08-1.872-1.12-3.726-2.253-5.585-3.38-2.862-1.737-5.646-3.552-8.568-5.236-1.123-.725-2.512-1.246-3.598-2.001a1.658 1.658 0 0 1-.357-.318c-.03-.042-.06-.084-.06-.132 0-.071.09-.143.151-.191.211-.168.501-.294.779-.402 7.837-3.75 14.11-9.071 19.212-14.595 1.039-1.438 2.65-2.733 4.275-3.889.133-.096.272-.192.41-.282.979-.653 2.035-1.282 3.237-1.731.676-.24 1.4-.414 2.155-.444a5.238 5.238 0 0 1 1.54.174 3.61 3.61 0 0 1 1.43.75c3.014 1.863 6.093 3.696 9.058 5.601 1.636 1.049 3.248 2.127 4.763 3.26.508.395 4.686 3.99 3.001 3.193l.012.006z" fill="#fff500" fill-opacity=".502"/><path d="M115.859 15.75c-4.257-1.473-8.067-3.828-11.707-5.901-.097-.018-.085-.09-.079-.036 0 .012-.066.018-.078.018a4.071 4.071 0 0 0-.695.21c-.881.383-1.66.88-2.397 1.378-1.594 1.09-3.248 2.319-4.329 3.69-5.597 5.225-12.697 10.306-20.546 13.931.905.527 1.92.97 2.777 1.534 4.667 2.882 9.262 5.812 14.008 8.628 0 0 .006 0 .006.006h.006c2.771 1.648 5.554 3.295 8.47 4.823.78.402 1.577.81 2.41 1.157.133-.072.247-.12.32-.108-.042.06-.09.12-.139.18l.12.047c.007 0 .49.156.4.15a2.47 2.47 0 0 0-.731.048l-.06.06-.08-.03c-.048.012-.096.024-.138.042-.23.078-.44.18-.622.306.03-.024.272-.234.537-.438-.82-.323-1.594-.713-2.354-1.096-1.431-.725-2.82-1.492-4.203-2.253a314.05 314.05 0 0 1-4.431-2.499c-4.758-2.756-9.25-5.967-14.34-8.442-1.147-.713-2.53-1.216-3.677-1.93a2.594 2.594 0 0 1-.344-.263c-.025-.024-.03-.048-.073-.048-.06-.006.073-.132.079-.138.18-.173.459-.305.718-.419l16.761-12.558c.797-.701 1.6-1.402 2.367-2.121 1.268-1.492 3.085-2.823 4.92-3.99.979-.618 2.03-1.217 3.213-1.637a6.8 6.8 0 0 1 1.992-.395c.465-.012.93.036 1.359.162.489.137.918.365 1.244.659.066.042.483.293.676.42 1.92 1.27 8.803 6.914 8.652 6.848l-.012.006zm-12.245 29.827c-.223.234-.47.455-.7.683.223-.156.374-.293.664-.383.133-.042.272-.072.41-.084a1.1 1.1 0 0 1 .315 0c.09.018-.363-.096-.532-.156a1.903 1.903 0 0 1-.163-.06h.006z" fill="#fff500" fill-opacity=".502"/><path d="M112.792 12.701a148.543 148.543 0 0 1-7.173-3.895 3.197 3.197 0 0 0-.725-.335 3.09 3.09 0 0 0-.942-.09c-.549.03-1.068.174-1.545.354-1.063.425-1.999 1-2.886 1.587-1.757 1.18-3.514 2.505-4.752 3.979-5.543 5.117-12.661 10.108-20.438 13.577-.35.132-.7.281-.978.48-.175.125-.32.275-.368.443a.55.55 0 0 0 .096.437c.115.174.284.323.465.461 1.057.785 2.445 1.324 3.568 2.073a455.205 455.205 0 0 0 14.056 8.76c2.82 1.69 5.658 3.373 8.634 4.925.979.504 1.975 1.007 3.05 1.408.326.12.664.234 1.02.294.12.018.248.03.374.018a.652.652 0 0 0 .157-.03.53.53 0 0 0 .133-.06c.03-.024.06-.048.085-.072 1.268-1.036 11.38-8.658 11.339-8.598-3.164 2.87-6.787 5.494-10.06 8.305-.253.221-.507.437-.754.665-.139.095-.254.18-.435.233-.115.036-.241.06-.368.072a2.806 2.806 0 0 1-.634-.024 6.564 6.564 0 0 1-1.214-.33c-1.123-.4-2.161-.91-3.182-1.42-3.037-1.527-5.929-3.193-8.803-4.859-4.8-2.792-9.358-6.015-14.527-8.49-1.213-.719-2.674-1.228-3.822-2-.326-.235-.615-.492-.827-.78-.26-.377-.362-.803-.26-1.222.11-.444.435-.845.876-1.169.417-.317.918-.563 1.45-.778 5.989-3.14 11.272-7.136 16.144-11.061a98.172 98.172 0 0 0 3.061-2.552c1.353-1.486 3.279-2.858 5.193-4.039 1.087-.665 2.252-1.3 3.556-1.743a8.688 8.688 0 0 1 2.548-.48 6.51 6.51 0 0 1 1.908.234c.7.204 1.316.527 1.775.947.067.042.664.42.936.605.936.635 9.588 7.04 4.269 4.176v-.006z" fill="#fff500" fill-opacity=".502"/><path d="M102.304 8.603c-1.038.473-1.95 1.078-2.813 1.695-1.691 1.223-3.412 2.57-4.571 4.069-5.35 5.242-12.54 10.311-20.293 13.846-.308.114-.628.246-.87.426-.09.066-.187.15-.199.24-.012.065.024.137.06.197.091.132.23.246.375.354 1.063.773 2.451 1.3 3.568 2.03 4.71 2.889 9.335 5.837 14.123 8.659 2.82 1.665 5.657 3.32 8.64 4.841.948.48 1.914.959 2.952 1.342.236.084.483.174.743.222 1.83-1.6 3.743-3.158 5.657-4.704a241.648 241.648 0 0 1 7.692-5.973c.526-.384 6.443-4.218 6.394-4.164-1.853 1.551-3.954 2.971-5.929 4.445a208.254 208.254 0 0 0-5.778 4.518c-2.566 2.097-5.204 4.194-7.523 6.423a.457.457 0 0 1-.133.066c-.048.018-.102.024-.15.03-.127.012-.254 0-.375-.012-.362-.048-.706-.162-1.033-.276-1.098-.377-2.113-.868-3.115-1.354-3.061-1.486-5.971-3.11-8.888-4.727-4.842-2.714-9.521-5.962-14.853-8.227-1.237-.7-2.705-1.204-3.858-1.977-.332-.234-.628-.491-.833-.79-.266-.384-.368-.816-.266-1.241.115-.45.441-.85.888-1.186.417-.318.93-.57 1.467-.78l8.368-5.038c3.967-2.63 7.825-5.35 11.352-8.275.29-.3 1.298-1.18 1.938-1.671a29.23 29.23 0 0 1 3.326-2.2c1.057-.593 2.192-1.162 3.472-1.497a6.932 6.932 0 0 1 2.09-.294c.464.006.93.078 1.352.216.465.156.87.395 1.153.7.042.06-.042.24-.537.079-.06-.048-.562-.276-.876-.348a3.759 3.759 0 0 0-1.075-.078c-.58.048-1.129.216-1.636.414 0 0-.006 0-.006.006v-.006z" fill="#fff500" fill-opacity=".502"/><path d="M102.093 7.578a7.29 7.29 0 0 0-.387.132c-1.201.467-2.258 1.102-3.254 1.762-1.878 1.252-3.713 2.654-5.048 4.212-5.391 4.967-12.395 9.82-19.979 13.157-.428.156-.936.39-1.316.653-.429.3-.743.671-.863 1.085-.109.395-.024.803.205 1.168.187.288.459.551.767.785 1.075.815 2.481 1.372 3.622 2.14 4.529 3.067 9.287 5.997 14.056 8.885 2.844 1.725 5.706 3.445 8.707 5.039 1.057.55 2.137 1.096 3.303 1.54.483.18.99.335 1.527.419.356.054.719.072 1.081.036a3.73 3.73 0 0 0 .737-.144c.283-.09.537-.216.76-.365 3.309-2.57 6.503-5.201 9.854-7.742a172.6 172.6 0 0 1 4.027-2.96c1.25-.88 6.424-3.876 6.334-3.786-1.83 1.432-3.822 2.774-5.748 4.14a195.28 195.28 0 0 0-4.939 3.697 277.223 277.223 0 0 0-8.501 6.902c-.441.312-.785.575-1.365.761-.326.102-.67.174-1.026.204a6.35 6.35 0 0 1-1.431-.042 9.604 9.604 0 0 1-1.793-.473c-1.226-.444-2.361-1.001-3.478-1.564-3.073-1.564-6.014-3.254-8.942-4.943-4.89-2.834-9.582-5.866-14.612-8.586-1.243-.743-2.698-1.294-3.84-2.121-.47-.348-.875-.743-1.165-1.18-.429-.654-.567-1.385-.38-2.098.199-.73.73-1.39 1.479-1.923.58-.413 1.268-.749 1.998-1.025L85.767 17.1c2.077-1.486 4.123-2.99 6.056-4.566 1.358-1.402 3.465-2.858 5.44-4.02 1.092-.641 2.252-1.246 3.538-1.684.084-.03.169-.054.253-.084.9-.287 1.86-.479 2.85-.497a7.344 7.344 0 0 1 2.186.282c.803.24 1.503.617 2.029 1.102 2.656 2.091.935 1.624-1.329.348a5.707 5.707 0 0 0-1.238-.57 5.37 5.37 0 0 0-1.618-.173c-.634.03-1.25.155-1.83.335l-.011.006z" fill="#fff500" fill-opacity=".502"/><path d="M93.525 13.768c-5.229 5.092-12.22 10.018-19.78 13.439-.434.162-.845.353-1.19.599-.331.24-.59.527-.681.857-.085.305-.012.617.169.898.163.246.398.468.658.666 1.075.802 2.481 1.348 3.622 2.097 4.65 2.971 9.341 5.913 14.129 8.777 2.838 1.702 5.706 3.392 8.706 4.955 1.027.528 2.071 1.049 3.194 1.462.405.15.834.282 1.286.354.242.036.49.048.737.03.157-.012.308-.042.453-.09.169-.054.32-.126.453-.216 4.42-3.673 8.924-7.303 13.64-10.803a130.533 130.533 0 0 1 4.932-3.457 63.432 63.432 0 0 1 4.07-2.51c1.068-.623 2.18-1.259 3.417-1.708.308-.12.658-.27 1.014-.305.38-.06-.169.131-.18.155.041.078.307.054.404.06.06-.006-.043.03-.055.03-.29.12-.573.246-.851.384-1.123.545-2.186 1.15-3.224 1.767a70.301 70.301 0 0 0-4.806 3.062c-1.37.959-2.717 1.941-4.04 2.93-4.57 3.457-9.255 6.992-13.222 10.803-.338.24-.604.437-1.045.581a4.367 4.367 0 0 1-.797.162 4.996 4.996 0 0 1-1.16-.03 8.303 8.303 0 0 1-1.605-.414c-1.202-.42-2.319-.946-3.418-1.48-3.115-1.504-6.092-3.151-9.044-4.799-4.951-2.786-9.715-5.734-14.696-8.49-1.232-.743-2.675-1.3-3.804-2.127-.447-.33-.827-.701-1.099-1.115-.392-.61-.525-1.288-.35-1.947.187-.677.682-1.288 1.383-1.785.555-.396 1.213-.707 1.908-.965 1.738-.803 3.399-1.75 5.005-2.684l14.485-9.64c.138-.103.277-.205.41-.306 3.943-3.71 3.514-2.265.99.785l.127-.114-.145.138v-.006z" fill="#fff500" fill-opacity=".502"/><path d="M134.86 27.105c-4.939-.252-13.048-6.363-16.2-8.502-4.05-2.744-9.908-6.4-13.959-9.15-1.352-1.228-7.607 3.2-9.395 5.081-4.914 4.099-14.297 10.42-21.011 13.302-3.58 1.288.465 2.48 2.717 4.002 2.705 1.834 25.666 16.46 27.454 15.195 2.674-2.516 23.215-20.156 27.701-20.21"/><path d="M107.231 33.995c-.99.581-1.624-.97-2.15-1.617-.543-.72-1.123-1.39-1.636-2.151l.181.557-.923-1.06c-.03-.025-.242-.204-.272-.085-.042.252.392.498.513.564-.694-.21-1.383-.51-2.07-.75-.556-.37-1.04-.82-1.522-1.288l-.006.006c-.037-.012-.06-.042-.079-.084-.12-.12-.247-.24-.368-.359.115.042.23.066.35.072.012-.102.03-.204.042-.27-.18.282-.03-.185 0-.27l.037-.125c.03-.12.024-.216-.043-.306-.084-.114-.199-.215-.205-.39-.501-.46.459-.22.61-.155 1.19.497 1.817.306 2.958-.521.429-.36.972-.54 1.455-.617.266-.036.538-.006.797.03.055.012.616.233.888.467.254.21.483.461.7.725.025.03.707.947.695.845 0-.006-.006-.012-.006-.018.61 1.42 1.117 2.786.954 4.553-.043.414-.326 2.26-.9 2.241v.006zm-8.332-6.261c-.085-.084-.17-.162-.254-.246-.459-.437-.447-.125.024.12a.89.89 0 0 0 .236.126h-.006zm.73.048c.013 0 .013.006.013.012.05.06-.127.264.076-.102l-.089.096v-.006z" fill="#0093dd" fill-opacity=".502"/><path d="M108.088 33.043c-.241-.36-.428-.767-.634-1.157-.531-1.072-1.171-2.037-1.787-3.038-.35-.203-.616-.623-.9-.964a2.685 2.685 0 0 0-.489-.456c-.066-.047-.229-.18-.32-.101-.585-.198-1.165-.426-1.738-.647-.61-.366-1.1-.93-1.612-1.456-.085-.09-.725-.827-.882-.642-.211-.03-.423.024-.634.126a2.66 2.66 0 0 0-.694.516c-.41.395-.834.952-1.009 1.557-.253.773-.422 1.57-.513 2.373a10.96 10.96 0 0 0-.072 1.72 8.5 8.5 0 0 0 .277 1.773c.043.162.248.641.121.827-.223-.018-.386-.312-.495-.515-.284-.557-.404-1.235-.47-1.906-.019-.18-.031-.36-.043-.539-.09-1.324.066-2.714.398-4.044.188-.899.713-1.75 1.25-2.415.332-.42.707-.797 1.111-1.096.495-.366 1.039-.593 1.588-.647.76-.09 1.473.24 2.125.575.272.138 1.081.755 1.413.467.085.012.387-.024.556.012.338.078.67.192.996.312.078.024.773.455 1.11.833.273.3.514.635.738.982l.513.785c.241.641.55 1.132.748 1.786.326 1.078.49 2.282.333 3.505-.043.305-.622 2.498-.985 1.486v-.012zm-.079-6.762c.094.108.118.124-.023-.015z" fill="#0093dd" fill-opacity=".502"/><path d="M107.098 29.58c-.44-.192-.821-.528-1.165-.887-.405-.012-.827-.576-1.117-.84-.175-.143-.356-.293-.562-.383-.06-.03-.271-.15-.332-.024-.61-.131-1.225-.323-1.823-.509-.652-.347-1.184-.91-1.739-1.42-.103-.096-.815-.503-.797-.461-.151.018-.29.102-.423.197-.18.132-.35.294-.507.474-.241.275-.712.845-.712 1.27-.332 1.192-.483 2.457-.369 3.643.018.204.049.401.091.6.054.263.12.52.217.76.145.372.344.695.598.959.127.144.706.485.658.755-.302.15-.694-.06-.93-.222-.362-.252-.628-.635-.857-1.055v-.006c-.26-.46-.423-.994-.525-1.557-.248-1.372-.151-2.858.042-4.308.012-.911.477-1.93.9-2.709.308-.587.682-1.132 1.147-1.54.573-.497 1.238-.736 1.884-.706.736.041 1.376.467 1.956.922.042.036.09.072.133.108.265.222.754.893 1.123.845.157.066 1.008.407 1.419.623.078.03.688.461.972.815.012.018.024.03.036.048.217.281.41.605.567.947.055.113.435 1.156.333 1.102.012.102.784 3.433-.23 2.558h.012z" fill="#0093dd" fill-opacity=".502"/><path d="M107.376 27.021c-.145.288-.827-.551-.906-.635-.235-.234-.47-.48-.73-.683-.302-.258-.628-.467-1.003-.557-.32-.078-1.08-.27-1.557-.432-.441-.144-.864-.647-1.232-1.018-.447-.45-.918-.947-1.516-1.103-.483-.126-1.002-.084-1.503.108-.47.186-.912.491-1.316.863-.725.67-1.377 1.594-1.709 2.618-.537 1.678-.79 3.475-.652 5.171.072.833.248 1.636.55 2.355.32.743.778 1.366 1.346 1.827.15.12.308.234.47.33l6.824-.084-2.573 1.707c-1.231.582-2.928-.143-3.997-.575a5.413 5.413 0 0 1-1.123-.587c-.694-.485-1.262-1.174-1.684-2.007-.399-.803-.652-1.714-.803-2.666-.29-1.942-.181-4.039.18-6.064a9.37 9.37 0 0 1 2.126-4.242c.622-.713 1.347-1.282 2.126-1.636.953-.431 1.944-.515 2.867-.27.822.24 1.522.774 2.156 1.397.133.131.26.263.38.401.073.084.834.839.773.773.073.042.9.473 1.232.689.078.03.851.617 1.226 1.108.078.108.15.216.223.324.175.276.326.57.459.88.054.12.573 1.325.12 1.085-.005.108.767 3.008-.416 1.492.006.102-.272-.737-.326-.575l-.012.006z" fill="#0093dd" fill-opacity=".502"/><path d="M104.864 24.948c-.58.012-1.153-.06-1.72-.162-.502-.06-.967-.533-1.377-.88-.435-.378-.906-.827-1.48-.905-.434-.078-.881 0-1.316.203-.41.192-.79.486-1.135.84-.604.61-1.171 1.443-1.419 2.348-.447 1.552-.64 3.205-.47 4.745.078.713.247 1.402.525 2.007.277.6.664 1.097 1.147 1.456.809.606 1.811.851 2.771 1.013.483.084.966.15 1.45.198.488.503 2.59-.066 2.674-.042-.725.863-1.884.899-2.723.79-.32-.011-.646-.035-.966-.053-1.274-.06-2.602-.258-3.701-.929-.628-.395-1.16-.965-1.576-1.66-.417-.707-.707-1.515-.912-2.372a15.831 15.831 0 0 1-.241-5.956c.295-1.6 1.129-3.098 2.173-4.188.634-.665 1.353-1.18 2.12-1.486l.193-.072a3.838 3.838 0 0 1 2.523-.012c.918.33 1.637 1.067 2.265 1.887.048.06.79.965.76 1.02h-.006c.055.035.816.73 1.063 1.203 1.105.737-.018 1.031-.664.935l.15.084-.12-.012h.012z" fill="#0093dd" fill-opacity=".502"/><path d="M105.637 23.474c-.55-.132-1.093-.3-1.63-.48-.036.037-.369-.167-.858-.682-.615-.648-1.25-1.295-2.065-1.57-.736-.234-1.533-.216-2.318.048-.682.233-1.334.64-1.926 1.156a8.817 8.817 0 0 0-2.463 3.625c-.707 2.043-1.045 4.248-.906 6.333.078 1.12.308 2.193.706 3.152.447 1.054 1.093 1.941 1.896 2.582 1.45 1.157 3.267 1.594 5.024 1.882.199.035.392.065.591.095l5.766-2.977-1.575 2.63.277-.06c-1.57 1.252-3.158 1.618-4.854 1.336-.085-.012-.368-.102-.586-.126-1.817-.191-3.67-.605-5.198-1.69-.966-.688-1.763-1.665-2.35-2.833-.53-1.073-.875-2.29-1.062-3.565-.35-2.403-.193-5.01.447-7.484.592-2.037 1.751-3.876 3.182-5.213.851-.79 1.8-1.39 2.79-1.725 1.207-.408 2.445-.414 3.568-.012a5.3 5.3 0 0 1 .87.425c.76.48 1.394 1.18 1.962 1.953.078.114.742.971.489.803.066.048.646.51.911.743l.133.126c.079.036.9.743 1.262 1.378.712 1.336.127 1.678-.797.953-.477-.402-.972-.761-1.552-.947-.078-.024.399.192.26.144h.006z" fill="#0093dd" fill-opacity=".502"/><path d="M103.645 23.073c-.242-.156-.46-.354-.677-.546-.622-.55-1.25-1.132-2.028-1.348-.683-.174-1.407-.12-2.12.156-.616.246-1.195.641-1.726 1.132-.918.863-1.715 2.032-2.138 3.332-.604 1.905-.875 3.942-.712 5.866.09.988.308 1.935.676 2.774.398.898.966 1.647 1.672 2.187 1.474 1.12 3.375 1.438 5.157 1.575.893.138 1.83.06 2.753-.3.23-.09.453-.19.676-.31a7.24 7.24 0 0 0 1.817-1.427l1.691-1.546-1.195 2.056a7.438 7.438 0 0 1-1.993 1.695 7.877 7.877 0 0 1-1.19.551 6.402 6.402 0 0 1-2.843.36c-1.89-.012-3.919-.33-5.537-1.342-.911-.581-1.684-1.42-2.27-2.45-.55-.977-.93-2.098-1.153-3.284-.435-2.307-.32-4.841.338-7.25a10.83 10.83 0 0 1 3.097-4.895c.272-.24.556-.462.846-.665a6.545 6.545 0 0 1 1.799-.87c1.11-.323 2.228-.275 3.242.139 1.027.431 1.83 1.3 2.476 2.33.139.228.277.462.398.707.085.168.211.408.012.564.042.084-.217.64-.694.713-.024.036.145.473-.368.084l-.006.012z" fill="#0093dd" fill-opacity=".502"/><path d="M106.186 23.815c-.392-1.473 2.452-.575 2.893-.353a4.67 4.67 0 0 1 2.107 2.283c.344.994.453 2.06.338 3.115a8.995 8.995 0 0 1-.876 2.93c-.893 1.84-2.294 3.368-3.924 4.47-.042.03-.09.06-.14.09-1.726 1.102-3.821 1.804-5.838 1.468-.326-.054-.682-.126-.972-.3.121-.143.846.03 1.003.042 1.117.06 2.234-.084 3.29-.479a9.73 9.73 0 0 0 2.252-1.246c1.54-1.169 3.532-3.116 2.578-5.231-.187-.455-.205-.959-.229-1.45-.012-.33.018-.66.006-.989a5.574 5.574 0 0 0-.278-1.641c-.024-.054.036.144.006.084a5.078 5.078 0 0 0-.833-1.229c-.211-.233-1.491-1.18-1.383-1.558v-.006z" fill="#0093dd" fill-opacity=".502"/><path d="M108.493 24.816c.169-1.636 2.27.515 2.524.983.422.946.573 2.019.5 3.061a8.633 8.633 0 0 1-.784 2.99c-.876 1.954-2.325 3.583-4.021 4.752a10.63 10.63 0 0 1-3.224 1.486 8.19 8.19 0 0 1-2.802.227 6.935 6.935 0 0 1-3.248-1.198c-.514-.366-1.1-.845-1.401-1.438.272-.072 1.322 1.013 1.564 1.168.893.564 1.896.929 2.928 1.019.066.006.133.012.2.012 1.998.078 4.039-.671 5.578-2.043 1.522-1.408.815-2.475 1.37-4.218.164-.492.4-.953.574-1.438a9.47 9.47 0 0 0 .52-1.984 7.325 7.325 0 0 0 .09-1.78c-.048-.28-.555-1.341-.38-1.587l.012-.012z" fill="#0093dd" fill-opacity=".502"/><path d="M108.505 25.601c.417.048.767.36 1.008.701.375.647.501 1.414.471 2.175-.03.85-.265 1.678-.604 2.445-.742 1.69-2.01 3.085-3.471 4.086-1.486 1-3.243 1.624-5.006 1.474a5.438 5.438 0 0 1-2.53-.887c-.833-.563-1.503-1.354-1.992-2.265.012.018-.036-.06-.06-.096-.375-.545-.785-1.066-1.172-1.605a13.479 13.479 0 0 1-.809-1.253 4.396 4.396 0 0 1-.296-.61 2.153 2.153 0 0 1-.114-.384 1.451 1.451 0 0 1 .024-.683c.006-.06.133-.492.302-.791.06-.096.416-.69.573-.623-.096.257-.247.49-.356.743-.139.3-.247.629-.253.964-.019.06-.019.114.018.306.024.108.06.216.102.317.079.192.181.372.29.546.248.419.531.814.821 1.198.109.15.224.294.338.437.037.048 1.02 1.3 1.009 1.247.477.82 1.11 1.527 1.908 1.995.7.413 1.49.629 2.294.623 1.666-.036 3.013-.959 4.118-2.229a18.577 18.577 0 0 0 1.684-2.337c.278-.461.556-.922.78-1.414a6.74 6.74 0 0 0 .543-1.677l.036-.24a9.26 9.26 0 0 0 .084-1.228c-.006-.078-.175-1.127.272-.953l-.012.018z" fill="#0093dd" fill-opacity=".502"/><path d="M109.435 27.608c.163.234.247.527.29.81.138.844-.049 1.73-.345 2.516-.646 1.767-1.92 3.235-3.375 4.29-1.515 1.078-3.327 1.743-5.156 1.623a5.743 5.743 0 0 1-2.705-.904c-.9-.582-1.63-1.414-2.167-2.373.024.054-.888-1.12-1.244-1.6a15.91 15.91 0 0 1-.695-.977l-.18-.287a5.234 5.234 0 0 1-.357-.683 2.866 2.866 0 0 1-.157-.503 2.13 2.13 0 0 1 .03-.995c0-.06.097-.503.314-.923.181-.353.41-.683.664-.988a9.397 9.397 0 0 1 1.757-1.63c.085-.066.568-.473.695-.378-.151.216-.357.39-.544.57-.561.539-1.129 1.072-1.618 1.69-.23.287-.435.592-.598.928a3.29 3.29 0 0 0-.223.587 2.288 2.288 0 0 0-.085.605c-.018.06-.03.132.037.426.03.143.078.281.139.407.096.21.21.414.338.605.277.414.585.803.9 1.187.084.107 1.388 1.641 1.376 1.587.525.845 1.214 1.564 2.083 1.996a3.915 3.915 0 0 0 2.397.383c1.491-.276 2.862-1.354 3.997-2.36.054-.049.109-.102.163-.15 1.002-.93 1.914-1.912 2.626-3.11l.055-.09c.326-.551.616-1.132.905-1.708.085-.167.484-1.09.695-.569l-.012.018z" fill="#0093dd" fill-opacity=".502"/><path d="M107.829 30.922c-.429 1.294-1.365 2.378-2.391 3.181-1.286.989-2.856 1.63-4.45 1.546a4.755 4.755 0 0 1-2.234-.707c-.755-.473-1.365-1.168-1.817-1.965-.013.06-1.19-1.528-1.347-1.738-.29-.377-.573-.76-.827-1.174a3.912 3.912 0 0 1-.278-.521 1.534 1.534 0 0 1-.09-.282.921.921 0 0 1 .006-.426c0-.06.108-.485.223-.719.145-.287.332-.557.531-.802a11.51 11.51 0 0 1 1.558-1.552c.749-.623 1.552-1.21 2.415-1.624.254-.12.52-.228.791-.264.41-.113.894-.024 1.298.042.592.114 1.208.27 1.757.534.03.018.338.161.206.221-.085 0-.163-.012-.248-.018-.586-.072-1.165-.221-1.75-.317-.375-.048-.798-.12-1.166-.024-.09.012-.181.042-.266.072-.984.377-1.896 1.126-2.693 1.833-.513.461-1.008.959-1.419 1.528a3.961 3.961 0 0 0-.416.707c-.073.168-.14.36-.133.551.03-.054 0 .048.006.078a.57.57 0 0 0 .054.126c.073.138.163.264.254.39.272.359.573.7.881 1.03.532.593 1.172 1.102 1.673 1.72.429.55.99.982 1.624 1.21.513.198 1.063.252 1.606.216a6.15 6.15 0 0 0 1.34-.288 9.922 9.922 0 0 0 2.096-.977 12.396 12.396 0 0 0 1.479-1.096c.241-.204 2.336-2.013 1.715-.51l.012.019z" fill="#0093dd" fill-opacity=".502"/><path d="M107.159 30.286c-.514 1.097-1.353 2.008-2.295 2.685-1.08.767-2.39 1.288-3.701 1.18a3.365 3.365 0 0 1-1.582-.551c-.537-.366-.948-.887-1.262-1.474-.368-.725-.954-1.354-1.419-2.007a10.567 10.567 0 0 1-.694-1.073c-.006-.012-.012-.018-.018-.03.006-.006.006-.012.012-.024a3.72 3.72 0 0 1 .35-.461 9.772 9.772 0 0 1 1.37-1.222c.224-.168 2.5-1.349 2.452-1.313-.048.03.2-.066.133-.03-.109.066.483.174.55.186.5.162 1.02.336 1.473.617.114.072.374.264.096.288l-.145-.018c-.495-.072-.978-.228-1.46-.372-.218-.047-.683-.041-.29-.221.054-.024-.242.096-.194.042.036-.048-1.672.88-2.216 1.324-.404.33-.803.683-1.147 1.096.145.192.302.378.459.564.555.67 1.262 1.3 1.703 2.067.247.353.603.653.996.803.326.131.676.167 1.02.15.719-.049 1.419-.294 2.071-.618.242-.12.477-.245.707-.383l2.24-1.804c.163-.168.332-.341.525-.48.344-.257.58-.101.513.348a2.06 2.06 0 0 1-.241.701l-.006.03zm-10.956-1.258c-.03-.042-.069-.09-.1-.138a.837.837 0 0 1 0 .366.59.59 0 0 1 .1-.228zm-.038-.138a.29.29 0 0 1-.094-.107c-.031-.06.062.06.078.077 0 .012.016.024.016.036v-.006zm.026.366c-.05.03-.05.07-.1.1.05-.03.05-.06.1-.1zm-.012.06c-.05.029-.05.057-.1.086 0 .039.05-.01.1-.086z" fill="#0093dd" fill-opacity=".502"/><path d="M106.5 22.671c1.528.743 2.99 1.726 3.496 3.475 1.25 6.22-9.075 13.08-12.595 6.555-.241-.473-2.584-3.187-2.45-3.679.03-1.45 3.851-4.5 5.047-4.793.966-.36 5.06.515 5.838 1.282"/><path d="M92.348 34.804c-1.516-.15-.187-2.93-.085-3.709.369-1.222 1.214-2.199 2.101-3.025.659-.606 1.42-1.127 1.999-1.822.302-.192.58-.395.894-.563 1.14-.605 2.45-.965 3.725-.965.175 0 .386-.006.555.072-.03.132-.453.15-.543.162-.682.108-1.365.222-2.023.461-.712.27-1.4.63-2.004 1.115-.99 1.57-1.208 1.75-1.425 3.48-.03.252-.115.492-.205.72-.242.575-.622 1.066-.81 1.672a.111.111 0 0 0-.012.041c-.187.426-1.51 2.69-2.173 2.355l.006.006z" fill="#fff" fill-opacity=".502"/><path d="M93.018 33.055c-.827-.03-.574-1.3-.598-1.864.206-1.276 1.045-2.325 1.896-3.2.622-.634 1.389-1.186 1.908-1.929.972-.67 1.956-1.186 3.08-1.498a10.369 10.369 0 0 1 1.66-.3c.767-.077 2.034-.25 2.74.199-.132.281-2.257.125-2.59.185-.042.006-.084.018-.126.024-1.347.252-3.067.755-3.943 2.002-.139.719-.018 1.923-.386 2.636-.224.401-.574.743-.882 1.072-.223.246-.447.486-.664.731-.332.366-.676.713-1.002 1.09-.133.187-.779 1.05-1.08.852h-.013z" fill="#fff" fill-opacity=".502"/><path d="M93.664 32.899c-.048-.318-.012-.641.006-.953-.018-1.048.779-1.971 1.437-2.642.67-.671 1.443-1.24 2.071-1.965 1.165-.81 2.488-1.24 3.864-1.396a10.394 10.394 0 0 1 3.575.227c.193.048.386.102.58.168.307.054 2.48.377 2.487.809-.73.156-1.69-.312-2.427-.402-.085-.012-.176-.018-.26-.024-1.274-.311-2.645-.36-3.919-.036-1.292.324-2.228 1.067-3.012 2.187-.013.024-.471.797-.78 1.127-.356.371-.754.695-1.134 1.036l-.942.9a6.176 6.176 0 0 1-.61.58c-.09.114-.996 1.025-.948.39l.012-.006z" fill="#fff" fill-opacity=".502"/><path d="M94.274 31.215c-.073-.707.44-1.402.845-1.905.61-.75 1.365-1.354 1.95-2.127 1.178-.893 2.542-1.378 3.961-1.576a10.672 10.672 0 0 1 4.287.276c.054.006.688.09.942.137.44.09 3.538.66 3.502 1.253-.833.084-1.86-.51-2.681-.665-.67-.12-1.352-.216-2.029-.234-1.292-.264-2.74-.216-3.96.383-.979.462-1.896 1.217-2.705 1.954-.091.078-.182.155-.272.24-.35.413-1.226 1.162-1.884 1.63l-.241.167c-.127.084-1.806 1.156-1.721.467h.006z" fill="#fff" fill-opacity=".502"/><path d="M95.216 31.215c.139-.311.332-.593.543-.857.634-.779 1.419-1.396 2.083-2.15.942-.726 2.132-1.055 3.267-1.199a9.561 9.561 0 0 1 3.84.318c1.31.197 2.614.527 3.852 1.018.7.282 1.467.623 2.01 1.193.03.035.38.365.242.413a1.206 1.206 0 0 1-.368-.168c-.532-.317-1.051-.647-1.63-.869-1.335-.497-2.79-.85-4.209-.874-1.25-.222-2.47-.078-3.659.377-.803.294-1.6.671-2.312 1.168a10.47 10.47 0 0 0-.338.24c-.037.036-1.34 1.079-1.987 1.474-.054.03-.103.06-.157.096-.253.144-1.684.737-1.171-.18h-.006z" fill="#fff" fill-opacity=".502"/><path d="M96.435 29.807c.405-.599.906-1.12 1.329-1.696.923-.832 2.15-1.228 3.32-1.414a9.637 9.637 0 0 1 3.967.21c1.908.216 3.949.69 5.634 1.696.157.096.308.198.452.311.556.432 1.214.875 1.625 1.48.024.036.138.198.036.21a1.364 1.364 0 0 1-.133-.066c-.61-.341-1.147-.857-1.72-1.258a2.845 2.845 0 0 0-.14-.09c-1.69-1.013-4.003-1.564-5.947-1.33-1.256-.084-2.481.186-3.689.545-.356.102-.712.216-1.057.342-.591.215-1.183.437-1.745.749-.042.035-.26.233-.464.365-.266.168-2.313.983-1.474-.054h.006z" fill="#fff" fill-opacity=".502"/><path d="M96.822 30.574c.525-.54 1.093-1.03 1.6-1.588.47-.377 1.811-.827 2.735-.922 1.171-.12 2.373 0 3.496.371 1.805.342 4.196.797 5.573 2.199.036.036.078.072.114.102.441.401.985.85 1.244 1.414.049.096.097.263-.066.234-.024-.012-.042-.024-.067-.036-.543-.318-.966-.875-1.46-1.277l-.007-.006c-1.346-1.192-3.616-1.63-5.331-1.63a9.026 9.026 0 0 0-3.424.12 9.064 9.064 0 0 0-1.708.534 10.97 10.97 0 0 0-.719.323c-.042.036-.972.665-1.473.911-.241.12-.574.288-.851.228-.127-.03-.181-.132-.163-.264.048-.287.308-.533.5-.713h.007z" fill="#fff" fill-opacity=".502"/><path d="M91.436 34.355c.453-.857 1.322-1.834 1.775-2.69.906-1.708 3.14-2.619 4.426-3.721 1.968-1.073 4.848-1.217 7.275-.51 1.63.228 4.474.81 6.074 1.768 1.063.641 2.657 1.594 3.152 2.642"/><path d="M71.095 53.282c-.006.054-1.944-24.943-2.73-32.744-.452-4.434-2.372-8.927-2.185-13.391.054-.935.284-1.858.797-2.643.568-.856 1.419-1.432 2.373-1.755 1.105-.372 2.288-.426 3.435-.378 1.594.06 3.176.33 4.734.66 2.856.575 5.748.958 8.658 1.21-3.043.054-6.056.198-9.032.491-1.498 0-3.001-.09-4.499-.006-.857.018-1.757.084-2.554.432-.108.041-.21.09-.313.15a1.785 1.785 0 0 0-.695.658c-.235.414-.296.905-.314 1.372-.018 4.338 1.824 8.664 2.228 12.99.139 1.462.26 2.93.368 4.398.405 5.644 3.43 23.781-.271 28.568v-.012zM86.17 4.235c6.25.54 12.577.473 18.802.383.181 0 .356-.006.537-.006-6.448-.185-12.945-.485-19.339-.377zm19.34.377c10.384-.173 20.824-.952 31.209-.455.784.03 1.587.096 2.348.311-.7.126-1.642-.15-2.354-.155a444.379 444.379 0 0 0-17.649.335c-4.462.168-8.996.096-13.555-.03v-.006z" fill="#00923f" fill-opacity=".502"/><path d="M70.883 36.134c-.157 1.007-2.1-12.87-2.409-15.608-.5-4.428-2.463-8.915-2.318-13.385.048-.94.272-1.87.785-2.667.567-.862 1.425-1.455 2.39-1.785 1.106-.383 2.301-.443 3.46-.401 1.6.047 3.188.311 4.752.635 14.769 2.846 30.346 1.378 45.272.91 4.643-.137 9.286-.251 13.929-.15.905.025 1.817.09 2.699.318.422.114.839.27 1.225.485.477.27.894.636 1.208 1.091.35.51.55 1.108.58 1.726a3.87 3.87 0 0 1-.212 1.438c-.223.647-.592 1.228-1.002 1.767-1.262 1.66-3.122 3.122-3.876 5.123-.816 1.618-1.329 3.343-1.836 5.075-.272-1.348.942-3.763 1.491-4.913.755-2.163 2.633-3.697 3.967-5.483.387-.515.737-1.066.948-1.683.145-.42.218-.863.193-1.312a3.043 3.043 0 0 0-.525-1.552 3.27 3.27 0 0 0-1.099-.989 4.957 4.957 0 0 0-1.147-.45c-.851-.215-1.745-.269-2.62-.287a90.181 90.181 0 0 0-1.274-.012c-16.719.048-33.818 3.062-50.452 2.45a55.682 55.682 0 0 1-8.036-.94c-1.425-.288-2.874-.527-4.33-.57-.833-.03-1.714-.017-2.511.264-.405.138-.78.366-1.02.731-.254.402-.333.887-.357 1.355-.006.12-.006.24-.006.365.042 4.242 1.606 8.418 1.92 12.654.17 2.487 2.204 13.74.23 15.788l-.019.012z" fill="#00923f" fill-opacity=".502"/><path d="M71.222 31.976c-.574-3.835-.894-7.717-1.335-11.57-.489-4.35-2.427-8.783-2.3-13.17.036-.676.175-1.365.543-1.947.387-.593.978-.982 1.636-1.21.936-.33 1.957-.365 2.94-.324 1.522.048 3.032.306 4.517.612 19.478 3.81 39.795.485 59.466.892.785.018 1.582.066 2.35.264.295.078.585.18.856.33.272.155.514.36.695.617.187.27.29.587.308.916.012.288-.036.57-.127.84-.17.49-.459.928-.767 1.335-1.364 1.81-3.278 3.362-4.075 5.549-2.15 4.398-2.693 9.58-2.947 14.41-.018.335-.03.67-.048 1.006-.181 4.656-.024 9.365.652 13.979-.097 3.373 1.938 6.812 3.025 9.91.12.335.211.683.23 1.036.017.366-.049.731-.23 1.055-.181.317-.459.57-.785.73-.302.15-.634.229-.966.27-.743.072-2.639.168-3.279-.359 1.07.126 2.18.294 3.255.144.308-.042.61-.12.887-.258.278-.144.52-.36.677-.641.15-.282.205-.605.193-.923a3.264 3.264 0 0 0-.224-.958c-1.159-3.014-3.17-6.513-3.103-9.82l-.592-5.59a83.456 83.456 0 0 1-.12-9.6c.235-4.853.736-10.077 2.855-14.517.815-2.283 2.73-3.883 4.124-5.788.266-.36.525-.743.664-1.174.067-.192.103-.396.09-.6a1.148 1.148 0 0 0-.204-.587 1.51 1.51 0 0 0-.49-.425 3.046 3.046 0 0 0-.706-.264c-.718-.174-1.473-.204-2.21-.216-16.652-.071-33.232 2.583-49.89 1.63-3.351-.204-6.696-.587-9.986-1.264-1.383-.294-2.79-.545-4.203-.605-.748-.036-1.552-.042-2.27.204-.26.09-.525.215-.682.46-.187.3-.236.684-.26 1.025-.072 1.319.211 2.66.459 3.949.574 2.978 1.208 5.944 1.419 8.975.139 2.11.115 13.128-.036 11.678l-.006-.006z" fill="#00923f" fill-opacity=".502"/><path d="M69.247 14.175c-.676-2.211-1.503-4.584-1.515-6.926.018-.66.139-1.325.483-1.894.362-.587.93-.97 1.564-1.198.923-.342 1.938-.39 2.916-.366 1.521.024 3.037.264 4.522.558 19.526 3.57 39.79.263 59.472.587.81.018 1.63.066 2.422.263.326.084.64.198.935.36.314.18.592.42.803.719.218.318.345.695.369 1.084a2.5 2.5 0 0 1-.145.965c-.181.521-.483.995-.815 1.432-1.335 1.78-3.23 3.32-4.003 5.464-2.114 4.38-2.639 9.51-2.88 14.309-.236 4.955-.085 9.982.664 14.889-.018.76.157 1.534.35 2.265.682 2.588 1.781 5.02 2.71 7.52.146.383.248.79.273 1.203.024.474-.067.941-.296 1.36a2.45 2.45 0 0 1-1.015.965c-.356.18-.748.282-1.147.33-1.95.233-4.02-.312-5.905-.72-3.194-.712-10.035-1.054-12.607-3.15 4.27.712 8.453 1.91 12.68 2.827 1.847.396 3.888.935 5.796.695a3.213 3.213 0 0 0 1.026-.3c.357-.185.665-.46.858-.814.193-.354.265-.755.247-1.163a3.416 3.416 0 0 0-.157-.815c-.03-.09-.06-.185-.096-.275-1.153-2.954-3.164-6.4-3.14-9.653-.803-4.997-.996-10.132-.79-15.182.204-4.83.675-10.012 2.716-14.458.78-2.283 2.681-3.895 4.033-5.818.266-.372.52-.761.659-1.198a1.56 1.56 0 0 0 .084-.624 1.226 1.226 0 0 0-.217-.61 1.52 1.52 0 0 0-.507-.432 3.121 3.121 0 0 0-.719-.258c-.725-.156-1.473-.174-2.216-.174-10.795.204-21.56 1.414-32.356 1.756-9.087.264-18.44.27-27.364-1.672l-.09-.018c-1.401-.311-2.814-.58-4.245-.677-.797-.048-1.636-.06-2.409.168-.356.108-.7.282-.924.593-.253.354-.344.815-.386 1.24-.109 1.103 1.099 9.695.35 6.843z" fill="#00923f" fill-opacity=".502"/><path d="M80.942 7.087c18.476 2.265 37.151-.216 55.687.186.296.006.592.018.888.042a3.3 3.3 0 0 1 .12-.192.68.68 0 0 0-.048.198c.32.03.634.077.942.155a1.8 1.8 0 0 1 .344.12c-.103.27-.29.521-.459.75-.096.125-.187.245-.29.37.037.03.079.06.121.09.085.054-.03.006-.066 0-.036-.006-.073-.012-.109-.024-1.455 1.81-3.212 3.404-4.04 5.645-2.245 4.571-2.813 9.982-3.09 15.003-.266 5.129-.127 10.33.621 15.41-.078 3.385 1.854 6.855 3.037 9.982.037-.006.06-.012.012.012l-.006.006c.043.108.079.21.115.318.036.102.079.215.097.33a2.93 2.93 0 0 1-.224.041 5.736 5.736 0 0 1-.452.03v.072c0 .024-.013-.012-.025-.066-1.515.042-3.127-.42-4.57-.737-7.753-1.767-15.427-3.804-23.246-5.278-4.613-.845-9.304-1.486-14.007-1.39 0-.054-25.691 2.846-25.74 2.858 8.357-1.109 19.08-3.464 27.714-3.332 4.07.078 8.12.63 12.124 1.354 7.83 1.444 15.51 3.475 23.288 5.153 1.304.282 2.801.713 4.19.695-1.292-3.223-3.164-6.752-3.116-10.258-.809-5.027-1.008-10.161-.809-15.248.224-5.237.779-10.815 3.043-15.608.719-2.008 2.174-3.512 3.502-5.111-7.837-.084-15.674.323-23.505.533-10.5.282-21.18.491-31.59-1.15-1.606-.258-3.206-.57-4.776-.995-3.653-.94-3.568-1.282.133-.6 1.389.24 2.784.456 4.184.642l.006-.006zm57.94.51l.043.017c.029.012.08.06.043.012a.216.216 0 0 1-.05-.126c0-.024-.022.054-.022.066l-.015.03zm-4.046 47.884c.006.036.006.066.012.102 0 .066.012-.018.024-.048a.892.892 0 0 1 .066-.09l-.096.036h-.006z" fill="#00923f" fill-opacity=".502"/><path d="M97.71 7.878c12.975-.078 25.95-1.175 38.925-.947.658.012 1.334.042 1.98.204.157.042.32.09.465.174a.4.4 0 0 1 .151.12.096.096 0 0 1 .018.053c.006.066-.018.138-.036.204-.109.324-.32.611-.52.875-1.472 1.971-3.429 3.613-4.298 5.991-2.21 4.548-2.76 9.91-3.019 14.896-.247 5.099-.103 10.27.664 15.314-.072 3.463 1.993 7.04 3.164 10.204.066.186.133.383.139.581a.467.467 0 0 1-.036.24.378.378 0 0 1-.151.126 1.402 1.402 0 0 1-.49.126c-1.708.203-3.574-.336-5.228-.69-7.753-1.725-15.427-3.738-23.24-5.188-9.847-1.762-17.515-.552-27.067.892a25.683 25.683 0 0 1-5.03.222c-.827-.024-7.945 1.762-11.145 2.559 3.67-1.067 6.388-3.158 11.158-3.008a25.327 25.327 0 0 0 6.092-.432c9.093-1.851 16.785-2.468 26.095-.82 7.825 1.408 15.511 3.409 23.3 5.003 1.485.305 3.212.814 4.764.64-1.334-3.27-3.37-6.974-3.345-10.587-.851-5.02-1.069-10.161-.876-15.248.212-5.213.761-10.767 3.031-15.53.767-2.14 2.391-3.71 3.792-5.429-.12-.006-.241-.006-.362-.012h-6.455c-10.584.138-21.174.641-31.764.348-9.613-.276-10.995-.887-.67-.887l-.007.006zm-34.748 45.95a81.96 81.96 0 0 1-1.407.341c.49-.096.954-.21 1.407-.341zm-1.407.341a.679.679 0 0 1-.145.1c.048-.04.097-.06.145-.1z" fill="#00923f" fill-opacity=".502"/><path d="M70.068 54.457c.38-12.99.453-21.96-.489-34.009-.857-11-6.702-18.921 7.566-15.71 16.157 3.631 42.741 1.103 59.514 1.57 7.403.204-.115 3.996-1.727 8.448-3.67 7.4-3.604 21.9-2.354 29.928-.073 2.499 2.602 8.61 3.163 10.084 1.74 4.596-8.96-.173-29.67-3.816-20.709-3.65-21.222 1.911-31.994 1.617-10.771-.3-9.256 3.511-12.71 3.416"/></g></svg>