<svg width="143" height="62" viewBox="0 0 143 62" xmlns="http://www.w3.org/2000/svg"><g fill="none" fill-rule="evenodd"><path d="M72.269 25.577c1.811 1.312-3.72.455-4.142.336-1.848-.498-3.538-1.247-5.157-2.026-2.831-1.408-5.367-3.061-8.12-4.535-4.54-2.6-9.1-5.195-13.525-7.885-.477.251-.93.527-1.365.815-1.479.97-3.055 2.079-4.07 3.319a71.587 71.587 0 0 1-3.145 2.648c-4.915 3.853-10.995 8.76-17.841 10.977.507-1.708 8.911-5.249 10.825-6.567 3.26-2.277 6.43-4.667 9.117-7.286.997-1.402 2.675-2.672 4.185-3.822.362-.27.736-.534 1.117-.797a1.1 1.1 0 0 0 .157.096l-.157-.096c.326-.228.658-.456.99-.677.15-.084.41-.18.495-.312.03-.03.006-.066-.006-.096-.012-.036-.03-.084.018-.114 2.373.576 4.257.84 6.478 1.876 3.52 1.672 6.811 3.655 9.987 5.614.211.126.423.258.628.39 2.288 1.455 4.426 3.02 6.72 4.47 1.322.838 2.675 1.653 4.112 2.402.32.156 2.693.947 2.693 1.27h.006z" fill-opacity=".502" fill="#FFF500"/><path d="M43.957 37.71c-1.056.054-1.117-1.432-1.05-2.444.042-1.109-.085-2.211-.538-3.098-.374-.785-.85-1.486-1.267-2.235l.187.54-.846-1.115c-.018-.018-.217-.228-.247-.144-.054.198.386.431.47.473-.67-.251-1.334-.557-1.992-.838-.785-.558-1.419-1.259-2.095-1.984-.036-.042-.072-.078-.108-.114l.03.018a.867.867 0 0 0 .133.066c-.03-.125.054-.281.12-.39.03-.047.151-.173.133-.239-.012-.042-.048-.066-.072-.102a.28.28 0 0 1-.037-.125c-.422-.318.339.012.471.12.604.49 1.172 1.048 1.86 1.377.725.12 1.37.348 2.15.06.006-.096.85-.689 1.014-.797.489-.33.96-.437 1.461-.3.248.09.477.223.712.342.049.03.43.276.423.078.755 1.09 1.45 2.493 1.673 3.967.024.162.042.323.054.485.145 1.822-.417 3.733-1.37 5.303-.224.263-.852 1.336-1.263 1.102l-.006-.006zm-7.01-10.78c.116-.072.15-.182 0 0z" fill-opacity=".502" fill="#0093DD"/><path d="M35.825 28.813c.054-.066.108-.132.156-.198.538-.533 1.8-1.025 2.79-1.169a8.566 8.566 0 0 1 3.635.252c1.914.276 4.22.75 5.778 2.043.501.402 1.002.803 1.449 1.277.03.035.06.065.09.101-.048.024.858 1.145.405 1.348-.048.012-.598-.868-.67-.946a3.475 3.475 0 0 0-.211-.21 14.83 14.83 0 0 0-1.335-1.048c-1.521-1.127-3.78-1.414-5.597-1.313a12.917 12.917 0 0 0-3.466.072l-.434.072c-.755.138-1.486.318-2.216.551.042-.024.338-.233.2-.143-1.021.653-1.396.215-.587-.69h.013z" fill-opacity=".502" fill="#FFF"/><path d="M6.523 7.26c0-.065-.006-.131-.006-.197.012-.45.066-.923.29-1.318.211-.372.573-.6.96-.743.785-.306 1.666-.33 2.5-.306 1.455.018 2.91.258 4.335.54 19.586 3.648 39.934.389 59.695.754.707.018 1.431.054 2.126.228.211.054.428.126.622.234.138.078.271.18.368.317a.756.756 0 0 1 .133.396c.006.156-.024.305-.073.45-.133.389-.374.73-.616 1.054-1.43 1.905-3.375 3.51-4.214 5.818-2.186 4.487-2.735 9.778-2.995 14.703-.253 5.051-.102 10.18.652 15.183-.072 3.421 1.969 6.956 3.128 10.084.09.245.169.503.181.767a1.05 1.05 0 0 1-.115.575.957.957 0 0 1-.41.377 2.103 2.103 0 0 1-.689.192c-1.78.21-3.707-.33-5.434-.7-2.487-.552-4.957-1.181-7.432-1.78-5.235-1.27-10.482-2.451-15.777-3.452-1.063-.191-16.362-1.384-16.314-1.39 5.416-.76 11.05.084 16.375 1.043 4.147.767 8.277 1.648 12.39 2.594 3.622.827 7.226 1.744 10.855 2.523 1.666.353 3.55.887 5.271.665.175-.024.362-.06.52-.144a.438.438 0 0 0 .192-.168c.049-.09.055-.191.049-.293a2.16 2.16 0 0 0-.151-.611c-1.22-3.176-3.273-6.777-3.23-10.27-.803-5.015-1.003-10.15-.803-15.219.205-5.057.712-10.455 2.85-15.105.827-2.39 2.777-4.062 4.19-6.075.114-.162.247-.336.338-.528-.055-.018-.115-.03-.17-.048-.603-.125-1.237-.137-1.853-.143-10.192.072-20.377.844-30.563 1.09-9.745.222-19.804.276-29.362-1.893-.302-.066-.604-.138-.906-.198-1.062-.222-2.137-.407-3.224-.491-.712-.048-1.461-.072-2.161.114-.206.06-.435.143-.58.311-.205.24-.26.605-.296.91-.356 2.427-.55 3.53-.646.15z" fill-opacity=".502" fill="#00923F"/><path d="M19.027 6.044c18.391 1.744 36.855-.623 55.276-.36.73.019 1.48.055 2.192.235.242.06.477.143.694.263.182.102.35.234.471.408.115.161.175.36.188.557.012.198-.025.39-.091.575-.145.42-.399.797-.658 1.15-1.4 1.882-3.327 3.476-4.142 5.74-2.156 4.47-2.68 9.713-2.928 14.608-.236 5.027-.079 10.126.688 15.099-.054 3.391 1.968 6.89 3.134 9.982.108.294.193.6.21.91a1.54 1.54 0 0 1-.174.834 1.394 1.394 0 0 1-.61.569c-.26.132-.55.198-.84.24-1.835.227-3.815-.312-5.596-.69-7.747-1.69-15.409-3.684-23.216-5.116-1.51-.27-3.019-.516-4.54-.72-1.944-.257-24.157 1.708-24.109 1.696 6.479-.857 12.275-2.942 18.947-2.606 3.278.174 6.539.629 9.775 1.198 7.813 1.396 15.487 3.385 23.257 4.98 1.71.353 3.635.886 5.398.64.218-.03.44-.078.634-.18a.751.751 0 0 0 .338-.317.957.957 0 0 0 .09-.485 2.43 2.43 0 0 0-.18-.713c-1.25-3.116-3.29-6.693-3.285-10.138-.857-5.01-1.099-10.144-.954-15.225.157-5.057.61-10.461 2.723-15.123.821-2.396 2.766-4.074 4.19-6.081.11-.156.242-.324.333-.504-.049-.012-.097-.03-.145-.036-.604-.131-1.238-.143-1.854-.15-4.25-.005-8.495.138-12.74.294-10.662.378-21.368.851-32.024.288-1.63-.09-19.02-2.744-10.458-1.798l.006-.024z" fill-opacity=".502" fill="#00923F"/><path d="M93.347 53.636c-.037 1.672-2.216 2.463-6.533 2.379-.369-.006-1.25-.09-2.645-.246-1.503-.162-2.512-.294-3.019-.401a64.573 64.573 0 0 0-1.551-.318 17.816 17.816 0 0 1-2.343-.731 9.644 9.644 0 0 1-.749-.371c-.435-.264-.646-.522-.64-.78 0-.107.435-.365 1.298-.766l1.081.024-.012.52c-.356.253-.694.384-1.026.396h.102c.32.222.882.456 1.685.707.978.324 1.986.54 3.037.653l1.636.252c1.13.15 2.24.234 3.333.252 3.556.072 5.35-.498 5.373-1.714.013-.689-.519-1.444-1.593-2.265-.622-.485-1.63-1.09-3.013-1.827-.41-.228-1.353-.635-2.826-1.228-1.757-.725-2.856-1.09-3.29-1.103-.133 0-.206.437-.224 1.324l-.036 1.714c-.206.521-.387.833-.544.94l-.489.019c0-.108.097-1.624.284-4.542a.578.578 0 0 0-.097-.276c-.06-.114-.09-.185-.09-.215-.006.161.217-.432.658-1.774.44-1.342.706-2.63.797-3.859l.688.012c.175.24.254.456.254.66 0 .09-.326 1.545-.978 4.361.018.018.072.03.163.03.604.012 2.24-.311 4.884-.964 2.959-.725 4.444-1.39 4.456-1.99.012-.64-1.413-1.282-4.28-1.923-1.431-.323-3.02-.497-4.764-.533a37.364 37.364 0 0 0-1.588.012c-.64.012-1.16.018-1.552.012-.743-.018-1.648.156-2.723.521-1.08.36-1.612.545-1.612.545-.193-.006-.387-.203-.574-.587.012-.455 1.268-.833 3.786-1.132a29.212 29.212 0 0 1 2.687-.192c.374.006.742.006 1.117-.006.585.012 1.545.06 2.874.144.066 0 .76.132 2.089.395 1.322.264 2.016.408 2.089.426 2.276.755 3.405 1.504 3.393 2.247-.012.617-.501 1.156-1.473 1.611-.399.192-1.497.57-3.297 1.133-1.443.317-3.206.707-5.289 1.174.109.072.405.18.876.318.676.18 1.4.42 2.18.725.869.347 1.442.593 1.72.743.652.341 1.147.587 1.491.743a13.722 13.722 0 0 1 2.947 1.833c1.268 1.03 1.89 2.007 1.872 2.93v-.012zm11.87-7.118h-.067c-.078.383-.108.551-.108.515a21.95 21.95 0 0 0-3.78.959c-2.264.773-3.725 1.695-4.377 2.774-.14.216-.332.85-.592 1.9-.332 1.305-.507 2.42-.525 3.349l-.49-.012c-.41-.282-.603-1.067-.579-2.361 0-.036.042-.348.133-.923.09-.581.133-1 .139-1.252l.054-2.726c0-.036-.024-.15-.078-.33-.049-.18-.079-.311-.073-.383.006-.18.103-.27.302-.27.417.006.652.342.7 1 .037.51.067 1.02.103 1.529.2-.162.393-.39.586-.683.187-.294.35-.498.483-.606.573-.515 1.708-1.072 3.405-1.671 1.823-.653 3.297-.97 4.408-.947a.52.52 0 0 1 .356.138zm13.712 6.968c-.09.216-.314.414-.664.587-.266.12-.465.18-.598.18-.586-.012-1.087-.162-1.498-.443a2.968 2.968 0 0 1-.736-.803c-.175-.276-.266-.414-.29-.414a3.7 3.7 0 0 1-.604.695c-.622.624-1.485 1.307-2.59 2.05-.248.18-.827.401-1.75.677-.925.275-1.456.407-1.613.401l-1.666-.036c-.526-.012-1.111-.323-1.751-.935-.882-.838-1.305-1.965-1.274-3.385.024-1.276.573-2.528 1.648-3.763 1.25-1.468 2.771-2.187 4.564-2.145 1.003.018 1.848.378 2.53 1.06.49.486.894 1.133 1.208 1.942.12.42.247.833.368 1.24l-.018 1.013a2.43 2.43 0 0 1-.29.048c-.169-.545-.362-1.013-.597-1.402-.502-1.96-1.552-2.954-3.146-2.984-.918-.018-1.956.378-3.134 1.192-1.545 1.079-2.336 2.481-2.373 4.207-.036 1.947.966 2.941 3.013 2.983 1.063.024 2.295-.281 3.677-.91.532-.246 1.147-.623 1.854-1.139 1.02-.76 1.57-1.402 1.642-1.929l-.054-.491a6.827 6.827 0 0 1-.079-1.09c0-.079.055-.468.157-1.17.103-.706.151-1.09.151-1.144.133-.018.212-.048.23-.107.193.006.41.173.64.509.253.401.374.887.362 1.45-.006.383-.097.839-.266 1.36-.169.527-.26.833-.26.923-.017.832.466 1.366 1.444 1.581.591.072 1.177.132 1.763.204v-.012zm11.496 1.133c-.006.419-1.304.886-3.889 1.396-2.191.431-3.58.64-4.166.629-1.135-.024-1.696-.384-1.684-1.085.006-.33.29-.857.851-1.594.652-.856.972-1.3.972-1.318-.133 0-.338.006-.622.03-.29.018-.495.03-.622.03-.5-.012-.911-.174-1.231-.491l.012-.63c.066-.017.797-.03 2.191-.035.936-.018 1.522-.162 1.745-.426.628-.808 1.25-1.863 1.866-3.181l-.254-.198c-2.24.533-3.785.797-4.637.78-.434-.007-.652-.21-.646-.588.006-.306.03-.48.06-.503.03-.024.894-.162 2.585-.414 1.69-.245 2.584-.371 2.693-.365.265.006.561.131.893.39.338.25.502.496.495.73-.012.473-.18.989-.525 1.546a70.089 70.089 0 0 1-1.056 1.666c.356.096.923.155 1.702.173v.276c-.006.324-.416.545-1.225.653-.966.126-1.6.378-1.914.755-.447.533-.882 1.06-1.305 1.57-.428.51-.676.917-.748 1.228l.924-.036 7.36-1.462c.126.348.187.504.187.468l-.012.006zm3.985-8.778c0 .144-.049.323-.14.54l-.555-.013c-.682-.437-1.02-.863-1.014-1.264a.47.47 0 0 1 .084-.216.47.47 0 0 0 .085-.216c.042 0 .103 0 .193.006.085 0 .163.006.23.006.308.006.567.144.79.414.224.263.333.521.327.755v-.012zm.404 3.595c-.006.275-.47 1.354-1.407 3.247-.139.27-.296 1.097-.477 2.475-.126 1.072-.368 1.606-.712 1.594-.417-.006-.622-.174-.616-.504.006-.18.139-.94.405-2.283.271-1.467.483-2.39.64-2.768.277-.707.549-1.414.833-2.139.115-.27.265-.407.465-.401.591.174.875.437.87.779zm4.372-5.944c-.019.857-.278 2.924-.78 6.207-.525 3.338-.971 5.692-1.322 7.07-.084.037-.163.06-.235.078-.018-.053-.12-.191-.32-.419-.024-.036-.03-.186-.024-.437 0 .036.284-1.822.851-5.579.568-3.756.857-5.877.863-6.369a18.05 18.05 0 0 0-.102-2.522 28.185 28.185 0 0 1-.12-1.246c.005-.18.102-.354.307-.51.501.174.803.66.894 1.468.018.234.012.989-.012 2.265v-.006z" fill="#FFF"/><path d="M92.9 53.007c-.036 1.671-2.216 2.462-6.533 2.378-.368-.005-1.25-.09-2.645-.245-1.503-.162-2.511-.294-3.019-.402a64.573 64.573 0 0 0-1.551-.317 17.816 17.816 0 0 1-2.343-.731 9.644 9.644 0 0 1-.749-.372c-.434-.263-.646-.52-.64-.779 0-.107.435-.365 1.298-.766l1.081.024-.012.52c-.356.252-.694.384-1.026.396h.102c.32.222.882.456 1.685.707.978.324 1.986.54 3.037.653l1.636.252c1.13.15 2.24.234 3.333.252 3.556.072 5.35-.498 5.374-1.714.012-.689-.52-1.444-1.594-2.265-.622-.485-1.63-1.09-3.013-1.827-.41-.228-1.353-.635-2.826-1.229-1.757-.725-2.856-1.09-3.29-1.102-.133 0-.206.437-.224 1.324l-.036 1.714c-.205.521-.386.833-.543.94l-.49.018c0-.107.097-1.623.284-4.541a.578.578 0 0 0-.096-.276c-.06-.114-.09-.186-.09-.216-.007.162.216-.431.657-1.773.441-1.342.707-2.63.797-3.859l.689.012c.175.24.253.456.253.66 0 .09-.326 1.545-.978 4.361.018.018.072.03.163.03.604.012 2.24-.311 4.885-.964 2.958-.725 4.443-1.39 4.455-1.99.013-.64-1.412-1.282-4.28-1.923-1.431-.324-3.02-.497-4.764-.533a37.364 37.364 0 0 0-1.588.012c-.64.012-1.16.018-1.552.012-.742-.018-1.648.156-2.723.521-1.08.36-1.612.545-1.612.545-.193-.006-.386-.203-.574-.587.013-.455 1.268-.833 3.786-1.132a29.212 29.212 0 0 1 2.687-.192c.374.006.743.006 1.117-.006.586.012 1.546.06 2.874.144.066 0 .76.132 2.089.395 1.322.264 2.017.408 2.09.426 2.275.755 3.404 1.503 3.386 2.246-.012.618-.5 1.157-1.473 1.612-.398.192-1.497.57-3.297 1.133-1.443.317-3.206.707-5.289 1.174.109.072.405.18.876.318.676.18 1.4.419 2.18.725.869.347 1.443.593 1.72.742a29.54 29.54 0 0 0 1.492.743 13.722 13.722 0 0 1 2.946 1.834c1.268 1.03 1.89 2.007 1.872 2.93l.006-.012zm11.87-7.118h-.066c-.079.383-.109.551-.109.515a21.95 21.95 0 0 0-3.78.959c-2.264.773-3.725 1.695-4.377 2.774-.139.216-.332.845-.592 1.9-.332 1.305-.507 2.42-.525 3.348l-.49-.011c-.41-.282-.603-1.067-.579-2.361 0-.036.043-.348.133-.923.09-.581.133-1 .139-1.252l.054-2.726c0-.036-.024-.15-.072-.33-.048-.18-.079-.311-.073-.383.006-.18.103-.27.302-.27.417.006.652.342.7 1 .037.51.067 1.02.103 1.528.2-.161.393-.389.586-.683.187-.293.35-.497.483-.605.574-.515 1.709-1.072 3.405-1.671 1.824-.653 3.297-.971 4.408-.947a.52.52 0 0 1 .356.138h-.006zm13.712 6.968c-.09.216-.314.413-.664.587-.266.12-.465.18-.598.18-.586-.012-1.087-.162-1.497-.443a2.968 2.968 0 0 1-.737-.803c-.175-.276-.266-.414-.29-.414a3.7 3.7 0 0 1-.604.695c-.621.623-1.485 1.306-2.59 2.05-.247.18-.827.4-1.75.676-.925.276-1.456.408-1.613.402l-1.666-.036c-.526-.012-1.111-.324-1.751-.935-.882-.839-1.304-1.965-1.274-3.385.024-1.276.573-2.528 1.648-3.763 1.25-1.468 2.771-2.187 4.565-2.145 1.002.018 1.847.378 2.53 1.06.489.486.893 1.133 1.207 1.942.127.42.248.833.368 1.24l-.018 1.013a2.43 2.43 0 0 1-.29.048c-.169-.545-.362-1.013-.597-1.402-.501-1.96-1.552-2.954-3.146-2.984-.918-.018-1.956.377-3.134 1.192-1.545 1.079-2.336 2.48-2.372 4.206-.037 1.948.966 2.942 3.012 2.984 1.063.024 2.295-.281 3.677-.91.532-.246 1.148-.624 1.854-1.139 1.02-.76 1.57-1.402 1.642-1.93l-.054-.49a6.827 6.827 0 0 1-.079-1.091c0-.078.055-.467.157-1.168.103-.707.151-1.09.151-1.145.133-.018.212-.048.23-.108.193.006.41.174.64.51.253.401.374.886.362 1.45-.006.383-.096.839-.266 1.36-.169.527-.26.833-.26.923-.017.832.466 1.366 1.444 1.581.592.072 1.177.132 1.763.204v-.012zm11.496 1.132c-.006.42-1.304.887-3.888 1.396-2.192.432-3.58.642-4.167.63-1.135-.024-1.696-.384-1.684-1.085.006-.33.29-.857.851-1.594.652-.856.972-1.3.972-1.318-.133 0-.338.006-.622.03-.29.018-.495.03-.621.03-.502-.012-.912-.174-1.232-.491l.012-.63c.066-.017.797-.03 2.192-.035.942-.018 1.521-.162 1.745-.426.627-.809 1.25-1.863 1.865-3.181l-.253-.198c-2.24.533-3.786.797-4.637.779-.435-.006-.652-.21-.646-.587.006-.306.03-.48.06-.504.03-.023.894-.161 2.584-.413 1.69-.246 2.584-.371 2.693-.365.266.006.561.131.894.389.338.252.5.497.495.731-.012.473-.181.989-.526 1.546a70.089 70.089 0 0 1-1.056 1.666c.356.095.924.155 1.702.173v.276c-.006.323-.416.545-1.225.653-.966.126-1.6.377-1.914.755-.447.533-.882 1.06-1.304 1.57-.43.509-.677.916-.75 1.228l.925-.036 7.36-1.462c.127.348.187.503.187.467l-.012.006zm3.985-8.777c0 .143-.048.323-.14.539l-.555-.012c-.682-.437-1.02-.863-1.014-1.264a.47.47 0 0 1 .085-.216.47.47 0 0 0 .084-.216c.042 0 .103 0 .193.006.085 0 .163.006.23.006.308.006.567.144.79.414.224.263.333.521.327.755v-.012zm.404 3.595c-.006.275-.47 1.354-1.406 3.247-.14.27-.296 1.097-.477 2.475-.127 1.072-.369 1.605-.713 1.593-.417-.006-.622-.173-.616-.503.006-.18.14-.94.405-2.283.271-1.468.483-2.39.64-2.768.278-.707.55-1.414.833-2.139.115-.27.266-.407.465-.401.592.174.875.437.87.779zm4.372-5.944c-.018.857-.278 2.924-.78 6.207-.524 3.338-.971 5.692-1.321 7.07-.085.036-.163.06-.236.078-.018-.054-.12-.191-.32-.42-.024-.035-.03-.185-.024-.436 0 .035.284-1.822.851-5.579.568-3.756.858-5.877.864-6.369.018-.946-.012-1.785-.103-2.522a28.187 28.187 0 0 1-.12-1.247c.005-.18.102-.353.307-.509.501.174.803.66.894 1.468.018.234.012.989-.012 2.265v-.006zm-30.841-12.834c-.06 3.002-.67 5.344-1.836 7.034-1.232 1.768-2.958 2.63-5.192 2.582-1.353-.03-2.585-.509-3.702-1.444-1.116-.934-1.66-2.073-1.63-3.409.03-1.582 1.02-3.061 2.965-4.44 2.204-1.563 3.743-2.33 4.625-2.312.03 0 .217.191.555.575-.537.228-1.08.473-1.618.73-1.207.564-2.373 1.36-3.49 2.38-1.316 1.204-1.98 2.246-1.998 3.133-.018 1.073.368 2.001 1.171 2.798.833.797 1.8 1.205 2.904 1.229 1.854.035 3.4-.84 4.631-2.637 1.003-1.45 1.522-2.9 1.546-4.35l.084-4.416c.007-.431-.15-1.246-.47-2.462-.411-1.426-.822-2.145-1.232-2.157.06 0-.302.144-1.093.42-.791.275-1.672.407-2.65.389-1.413-.03-2.108-.701-2.084-2.013.025-1.15.64-2.235 1.86-3.26 1.214-1.018 2.5-1.516 3.852-1.486.568.012 1.08.21 1.546.593.495.36.736.821.73 1.384-.006.27-.157.731-.452 1.396-.333.773-.634 1.15-.918 1.145-.38-.006-.562-.21-.556-.617.006-.162.133-.48.399-.959.26-.48.398-.94.404-1.396.006-.294-.072-.467-.223-.527-.03-.03-.236-.048-.61-.054-.912-.018-1.956.371-3.14 1.18-1.274.887-1.926 1.834-1.944 2.852-.006.186.121.378.369.57.277.191.495.293.652.293.217.006 1.515-.318 3.888-.965.882.018 1.57.893 2.071 2.613.44 1.587.64 3.457.598 5.596l-.012.012zm6.194-14.458c-.006.216-.072.48-.205.797l-.803-.018c-.996-.635-1.485-1.252-1.473-1.84a.78.78 0 0 1 .103-.317c.096-.132.144-.24.144-.318.06 0 .157.006.284.006.127-.024.236-.036.332-.036.441.012.815.216 1.123.624.338.383.508.749.495 1.096v.006zm.604 5.309c-.006.401-.682 1.995-2.028 4.781-.2.395-.423 1.612-.683 3.643-.187 1.576-.531 2.36-1.038 2.349-.598-.012-.894-.258-.882-.743.006-.27.2-1.39.586-3.362.386-2.163.7-3.523.93-4.08.398-1.037.797-2.085 1.195-3.152.163-.395.387-.593.67-.587.846.258 1.262.641 1.25 1.15zm6.298-8.742c-.025 1.258-.399 4.302-1.123 9.137-.755 4.913-1.39 8.382-1.902 10.408-.127.054-.236.09-.332.113-.03-.083-.182-.287-.46-.61-.03-.055-.042-.27-.035-.642 0 .054.398-2.684 1.195-8.214.833-5.53 1.256-8.652 1.268-9.377a25.87 25.87 0 0 0-.163-3.703c-.103-1.103-.157-1.72-.151-1.852.006-.27.15-.52.44-.754.72.257 1.148.976 1.28 2.157.025.347.019 1.461-.017 3.337zm18.065 7.37c-.024 1.288-.978 2.552-2.856 3.798-1.848 1.247-3.683 1.852-5.513 1.816-1.099-.024-1.926-.306-2.487-.857-.121-.108-.429-.587-.918-1.426-1.92 1.81-2.898 3.505-2.928 5.08-.03 1.475.628 2.41 1.974 2.817.531.174 1.66.276 3.393.311 1.697.036 3.02.012 3.967-.077.978-.09 1.546-.126 1.703-.126a7.7 7.7 0 0 1 .803.096c-.133.24-.652.479-1.57.73-1.389.372-3.236.534-5.53.486-1.95-.042-3.466-.461-4.553-1.258-1.057-.797-1.57-1.87-1.54-3.206.018-.833.35-1.87 1.002-3.116.586-1.06 1.136-1.827 1.649-2.294 1.25-1.18 2.862-2.247 4.83-3.194 2.288-1.132 4.263-1.678 5.93-1.642a2.962 2.962 0 0 1 1.829.642c.555.413.833.886.82 1.426l-.005-.006zm-1.359-.222c.006-.432-.332-.647-1.026-.665-1.45-.03-3.297.575-5.555 1.815-1.02.623-2.04 1.259-3.055 1.906.344.09.76.39 1.256.91.398.438.82.66 1.262.671 1.322.03 2.825-.515 4.516-1.635 1.72-1.145 2.59-2.145 2.608-3.002h-.006zm-40.338.857c-.26.491-.815.73-1.667.713-.127 0-.314-.006-.567-.012a5.48 5.48 0 0 0-.568-.048c-1.069-.024-1.63.467-1.678 1.462-.206 4.008-.206 7.262-.006 9.754.145.713.205 1.528.187 2.445-.012.653-.163 1.084-.453 1.288l-.52.03c-.422-.977-.603-2.846-.549-5.596.006-.312-.042-1.049-.145-2.205a38.06 38.06 0 0 1-.078-3.11c.024-1.18.127-2.397.308-3.655l-.471-.012-12.015 1.444c-.284.072-.556.354-.821.851a182.903 182.903 0 0 1-1.727 3.66 827.06 827.06 0 0 1-1.534 3.59c-.103.258-.2.521-.296.779a.51.51 0 0 1-.525.341c-.157-.006-.344-.084-.562-.245-.187-.162-.277-.306-.271-.438.006-.263 1.322-3.067 3.942-8.418-.187-.084-.736-.162-1.648-.228-.598-.066-.893-.27-.881-.61.006-.187.102-.3.29-.348.187-.048.47-.054.85-.024.598.036.943.06 1.04.06l.99.018c.066-.024.712-1.139 1.956-3.344a26.633 26.633 0 0 1 2.868-4.074c1.642-1.905 2.928-3.271 3.858-4.092 1.823-1.642 3.417-2.45 4.77-2.421.785.018 1.394.372 1.817 1.06.368.588.543 1.247.525 1.978-.006.233-.223 3.337-.658 9.31l4.245.085-.006.012zM91.596 8.878c-1.383-.03-3.665 1.618-6.847 4.938-1.413 1.467-3.067 3.966-4.963 7.49 3.912-.498 6.279-.846 7.1-1.037 1.008-.03 2.596-.132 4.77-.294.501-3.086.773-5.638.815-7.657.048-2.283-.247-3.428-.875-3.44z" fill="#FFF"/><path d="M108.918 30.802c-.06 2.936-.67 5.23-1.835 6.884-1.232 1.732-2.959 2.577-5.193 2.529-1.352-.03-2.584-.498-3.701-1.414-1.117-.917-1.66-2.026-1.63-3.338.03-1.546 1.02-2.996 2.964-4.344 2.204-1.528 3.744-2.282 4.625-2.264.03 0 .218.185.556.563-.538.227-1.081.461-1.618.713-1.208.551-2.373 1.33-3.49 2.33-1.317 1.18-1.98 2.205-1.999 3.068-.018 1.049.368 1.96 1.172 2.738.833.78 1.799 1.18 2.904 1.199 1.853.036 3.399-.821 4.63-2.583 1.003-1.42 1.522-2.84 1.546-4.254l.085-4.326c.006-.42-.151-1.222-.471-2.408-.41-1.396-.821-2.103-1.232-2.11.06 0-.302.138-1.093.414-.79.27-1.672.401-2.65.377-1.413-.03-2.107-.683-2.083-1.97.024-1.127.64-2.194 1.86-3.188 1.213-1 2.499-1.486 3.852-1.456.567.012 1.08.203 1.545.58.495.354.737.804.73 1.355-.005.264-.156.719-.452 1.366-.332.755-.634 1.127-.918 1.12-.38-.005-.561-.21-.555-.599.006-.155.133-.467.398-.934.26-.468.399-.923.405-1.366.006-.288-.073-.462-.224-.516-.03-.024-.235-.042-.61-.054-.911-.018-1.956.366-3.14 1.157-1.273.869-1.925 1.797-1.943 2.792-.006.186.12.371.368.557.278.192.495.288.652.288.217.006 1.516-.312 3.888-.941.882.018 1.57.869 2.071 2.558.441 1.558.64 3.386.598 5.483l-.012-.006zm6.195-14.152c-.006.21-.073.473-.205.784l-.803-.018c-.997-.623-1.486-1.222-1.474-1.803 0-.078.037-.186.103-.312.097-.131.145-.233.145-.311.06 0 .157.006.284.006.126-.024.235-.036.332-.03.44.012.815.216 1.123.611.338.372.507.731.495 1.073zm.604 5.206c-.006.396-.683 1.954-2.03 4.68-.198.39-.422 1.576-.681 3.565-.188 1.546-.532 2.313-1.039 2.3-.598-.011-.893-.251-.881-.724.006-.264.199-1.36.585-3.296.387-2.115.7-3.445.93-3.996a336.79 336.79 0 0 0 1.196-3.086c.163-.39.386-.581.67-.575.845.252 1.262.629 1.25 1.126v.006zm6.297-8.568c-.024 1.235-.398 4.212-1.123 8.946-.755 4.811-1.389 8.208-1.902 10.192-.127.047-.235.09-.332.113-.03-.078-.181-.281-.459-.599-.03-.054-.042-.263-.036-.629 0 .054.398-2.63 1.195-8.04.834-5.411 1.256-8.473 1.268-9.18a24.76 24.76 0 0 0-.163-3.625c-.102-1.078-.157-1.683-.15-1.815.005-.264.15-.51.44-.737.719.251 1.147.952 1.28 2.109.024.341.018 1.432-.018 3.265zm18.066 7.214c-.025 1.258-.979 2.499-2.857 3.721-1.847 1.222-3.683 1.815-5.512 1.774-1.1-.024-1.926-.3-2.488-.84-.12-.107-.429-.575-.918-1.395-1.92 1.773-2.898 3.427-2.928 4.979-.03 1.444.628 2.36 1.974 2.756.532.168 1.66.27 3.394.305 1.696.036 3.019.012 3.967-.077.978-.084 1.545-.126 1.702-.12a7.7 7.7 0 0 1 .803.096c-.133.233-.652.473-1.57.713-1.388.365-3.236.52-5.53.479-1.95-.042-3.466-.45-4.553-1.234-1.056-.785-1.57-1.828-1.54-3.14.019-.815.35-1.827 1.003-3.05.586-1.036 1.135-1.785 1.648-2.247 1.25-1.156 2.862-2.199 4.83-3.127 2.289-1.109 4.263-1.642 5.93-1.612a2.989 2.989 0 0 1 1.829.63c.555.407.833.868.821 1.395l-.006-.006zm-1.36-.222c.007-.419-.331-.635-1.026-.653-1.449-.03-3.296.564-5.555 1.774-1.02.611-2.04 1.228-3.055 1.863.344.084.761.384 1.256.893.399.425.821.647 1.262.653 1.322.03 2.826-.51 4.516-1.6 1.721-1.12 2.59-2.097 2.609-2.936l-.006.006zm-41.865-.892c-.26.491-.816.73-1.667.713-.127 0-.314-.006-.567-.012a5.48 5.48 0 0 0-.568-.048c-1.069-.024-1.63.467-1.679 1.462-.205 4.008-.205 7.262-.006 9.754.145.713.206 1.528.188 2.445-.012.653-.163 1.084-.453 1.288l-.52.03c-.422-.977-.603-2.846-.549-5.596.006-.318-.042-1.049-.145-2.205a38.06 38.06 0 0 1-.078-3.11c.024-1.18.126-2.397.308-3.655l-.471-.012-12.016 1.444c-.283.072-.555.354-.82.851a182.902 182.902 0 0 1-1.727 3.661c-.363.857-.876 2.055-1.534 3.589-.097.258-.2.521-.296.779a.51.51 0 0 1-.525.341c-.157-.006-.344-.084-.562-.245-.187-.162-.277-.306-.271-.438.006-.263 1.322-3.067 3.942-8.418-.187-.084-.736-.162-1.648-.228-.598-.066-.894-.27-.888-.61.006-.186.103-.3.29-.348.187-.048.471-.054.852-.024.597.036.941.06 1.038.06l.99.018c.06-.024.713-1.139 1.956-3.344a26.633 26.633 0 0 1 2.868-4.074c1.643-1.905 2.929-3.271 3.859-4.092 1.823-1.642 3.417-2.45 4.77-2.42.784.017 1.394.37 1.817 1.06.368.587.543 1.246.525 1.977-.006.234-.223 3.337-.658 9.31l4.245.085v.012zM91.082 8.123c-1.382-.03-3.665 1.618-6.846 4.938-1.413 1.468-3.068 3.966-4.964 7.49 3.913-.498 6.28-.846 7.1-1.037 1.01-.03 2.597-.132 4.77-.294.502-3.086.774-5.638.816-7.657.048-2.283-.248-3.428-.876-3.44z" fill="#FFF"/><path d="M108.41 30.053c-.06 2.936-.67 5.23-1.835 6.884-1.231 1.732-2.964 2.577-5.192 2.529-1.353-.03-2.584-.498-3.701-1.414-1.117-.917-1.66-2.025-1.63-3.338.03-1.545 1.02-2.995 2.964-4.344 2.204-1.527 3.743-2.282 4.625-2.264.03 0 .217.185.555.563-.537.227-1.08.461-1.618.713-1.207.551-2.372 1.33-3.49 2.33-1.316 1.18-1.98 2.205-1.998 3.068-.018 1.049.368 1.96 1.171 2.738.834.78 1.8 1.18 2.905 1.199 1.853.036 3.399-.821 4.63-2.583 1.003-1.42 1.522-2.84 1.546-4.254l.085-4.326c.006-.42-.151-1.222-.471-2.408-.41-1.396-.821-2.103-1.232-2.11.06 0-.302.138-1.093.414-.79.27-1.672.402-2.65.378-1.413-.03-2.108-.684-2.083-1.972.024-1.126.64-2.193 1.86-3.187 1.213-1 2.499-1.486 3.851-1.456a2.47 2.47 0 0 1 1.546.581c.495.353.737.803.73 1.354-.005.264-.156.72-.452 1.366-.332.755-.634 1.127-.918 1.12-.38-.005-.562-.21-.555-.599.006-.155.132-.467.398-.934.26-.468.399-.923.405-1.366.006-.288-.073-.462-.224-.516-.03-.024-.235-.042-.61-.054-.911-.018-1.956.366-3.14 1.157-1.273.869-1.925 1.797-1.943 2.792-.007.186.12.371.368.557.278.192.495.288.652.288.217.006 1.515-.312 3.888-.947.882.018 1.57.869 2.071 2.559.441 1.557.64 3.385.598 5.482h-.012zm6.202-14.158c-.006.21-.073.473-.206.785l-.803-.018c-.996-.624-1.485-1.223-1.473-1.804 0-.078.036-.186.103-.312.096-.131.145-.233.145-.311.06 0 .157.006.283.006.127-.024.236-.036.333-.03.44.012.815.216 1.123.611.338.372.507.731.495 1.073zm.603 5.206c-.006.396-.682 1.954-2.028 4.68-.2.39-.423 1.576-.683 3.565-.187 1.546-.53 2.313-1.038 2.3-.598-.011-.894-.251-.882-.724.007-.264.2-1.36.586-3.296.387-2.115.7-3.445.93-3.996.398-1.013.797-2.043 1.195-3.086.163-.39.387-.581.67-.575.846.252 1.263.629 1.25 1.126v.006zm6.292-8.568c-.024 1.235-.399 4.212-1.123 8.946-.755 4.811-1.389 8.208-1.902 10.192-.127.048-.236.09-.332.113-.03-.077-.181-.281-.459-.599-.03-.054-.042-.263-.036-.629 0 .054.398-2.63 1.195-8.04.833-5.411 1.256-8.473 1.268-9.18a24.76 24.76 0 0 0-.163-3.625c-.103-1.078-.157-1.683-.15-1.815.005-.264.15-.51.44-.737.718.251 1.147.952 1.28 2.109.024.341.018 1.432-.018 3.265zm18.071 7.214c-.024 1.258-.978 2.499-2.856 3.721-1.847 1.222-3.683 1.816-5.512 1.774-1.1-.024-1.926-.3-2.488-.84-.12-.107-.429-.574-.918-1.395-1.92 1.773-2.898 3.427-2.928 4.979-.03 1.444.628 2.36 1.974 2.756.532.168 1.66.27 3.394.305 1.696.036 3.018.012 3.966-.077.978-.084 1.546-.126 1.703-.12a7.7 7.7 0 0 1 .803.096c-.133.233-.652.473-1.57.713-1.388.365-3.236.52-5.53.479-1.95-.042-3.466-.45-4.553-1.234-1.057-.785-1.57-1.828-1.54-3.14.019-.815.35-1.827 1.003-3.05.585-1.036 1.135-1.785 1.648-2.247 1.25-1.156 2.862-2.198 4.83-3.127 2.289-1.109 4.263-1.642 5.93-1.612a2.989 2.989 0 0 1 1.829.63c.555.407.833.868.821 1.395l-.006-.006zm-1.359-.221c.007-.42-.332-.636-1.026-.654-1.449-.03-3.297.564-5.555 1.774-1.02.611-2.04 1.228-3.055 1.863.344.084.76.384 1.256.893.398.426.821.647 1.262.653 1.322.03 2.826-.51 4.516-1.6 1.72-1.12 2.59-2.097 2.609-2.935l-.007.006z" fill="#FFF"/><path d="M61.352 20.07c-1.606-.598-3.037-1.395-4.546-2.102-5.156-2.66-10.132-5.507-14.974-8.43-.09-.048-.042-.06-.096-.054-.03.006-.073.006-.11.006-.259.03-.506.113-.742.203-.905.366-1.709.863-2.47 1.354-1.642 1.085-3.314 2.307-4.455 3.673-5.802 5.23-13.036 10.348-21.084 13.919-.067.024-.145.054-.218.078 1.009.7 2.289 1.21 3.315 1.905 1.286.845 2.59 1.678 3.895 2.51 3.302 2.11 6.63 4.195 10.004 6.25.858.521 7.203 3.517 7.058 4.386-2.729-.995-5.126-2.697-7.432-4.08-1.872-1.121-3.725-2.253-5.585-3.38-2.862-1.737-5.645-3.553-8.568-5.237-1.123-.725-2.511-1.246-3.598-2a1.657 1.657 0 0 1-.356-.318c-.03-.042-.06-.084-.06-.132 0-.072.09-.144.15-.192.211-.168.501-.293.779-.401 7.837-3.751 14.11-9.072 19.212-14.596 1.039-1.438 2.65-2.732 4.275-3.889a9.89 9.89 0 0 1 .41-.281c.979-.653 2.035-1.282 3.237-1.732.676-.24 1.4-.413 2.155-.443a5.238 5.238 0 0 1 1.54.174 3.61 3.61 0 0 1 1.43.749c3.014 1.863 6.093 3.696 9.058 5.602 1.636 1.048 3.248 2.127 4.763 3.26.508.395 4.686 3.99 3.001 3.193l.012.006z" fill-opacity=".502" fill="#FFF500"/><path d="M53.491 15.475c-4.257-1.474-8.066-3.828-11.707-5.902-.097-.018-.085-.09-.079-.036 0 .012-.066.018-.078.018a4.071 4.071 0 0 0-.695.21c-.881.384-1.66.88-2.397 1.378-1.594 1.09-3.248 2.319-4.329 3.691C28.61 20.06 21.51 25.14 13.66 28.764c.905.528 1.92.971 2.777 1.535 4.667 2.881 9.262 5.811 14.008 8.627 0 0 .006 0 .006.006h.006c2.771 1.648 5.555 3.296 8.47 4.824.78.401 1.577.809 2.41 1.156.133-.072.248-.12.32-.108-.042.06-.09.12-.139.18l.12.048c.007 0 .49.156.4.15a2.474 2.474 0 0 0-.731.048l-.06.06-.079-.03c-.048.012-.097.024-.139.042-.23.077-.44.18-.622.305.03-.024.272-.234.538-.437-.822-.324-1.594-.713-2.355-1.097-1.431-.725-2.82-1.492-4.202-2.253-1.492-.82-2.965-1.66-4.432-2.498-4.758-2.756-9.25-5.968-14.34-8.442-1.147-.713-2.53-1.217-3.677-1.93a2.592 2.592 0 0 1-.344-.263c-.024-.024-.03-.048-.073-.048-.06-.006.073-.132.079-.138.181-.174.459-.306.718-.42L29.08 15.524c.797-.7 1.6-1.402 2.367-2.12 1.268-1.493 3.085-2.823 4.92-3.991.979-.617 2.03-1.217 3.213-1.636a6.8 6.8 0 0 1 1.992-.396c.465-.011.93.036 1.359.162.49.138.918.366 1.244.66.066.041.483.293.676.419 1.92 1.27 8.803 6.914 8.652 6.848l-.012.006zM41.246 45.302c-.223.233-.47.455-.7.683.223-.156.374-.294.664-.384.133-.042.272-.072.41-.084.103-.012.212-.018.315 0 .09.018-.363-.096-.532-.156a1.789 1.789 0 0 1-.163-.06h.006z" fill-opacity=".502" fill="#FFF500"/><path d="M50.424 12.425a148.542 148.542 0 0 1-7.173-3.894 3.197 3.197 0 0 0-.725-.336 3.09 3.09 0 0 0-.941-.09c-.55.03-1.07.174-1.546.354-1.063.425-1.999 1-2.886 1.588-1.757 1.18-3.514 2.504-4.752 3.978-5.543 5.117-12.661 10.108-20.438 13.577-.35.132-.7.282-.978.48-.175.125-.32.275-.368.443a.55.55 0 0 0 .096.437 2 2 0 0 0 .465.462c1.057.785 2.446 1.324 3.569 2.073a452.82 452.82 0 0 0 14.056 8.76c2.82 1.69 5.657 3.373 8.634 4.925.978.503 1.974 1.006 3.049 1.408.326.12.664.233 1.02.293.12.018.248.03.374.018a.662.662 0 0 0 .29-.09c.03-.024.06-.047.085-.071 1.268-1.037 11.381-8.658 11.339-8.598-3.164 2.87-6.787 5.494-10.06 8.304-.253.222-.506.437-.754.665-.139.096-.254.18-.435.234-.114.036-.241.06-.368.072a2.81 2.81 0 0 1-.634-.024 6.565 6.565 0 0 1-1.214-.33c-1.123-.401-2.161-.91-3.181-1.42-3.037-1.528-5.93-3.193-8.804-4.86-4.8-2.791-9.358-6.015-14.526-8.49-1.214-.718-2.675-1.228-3.822-2-.326-.234-.616-.492-.828-.78-.26-.377-.362-.802-.26-1.222.11-.443.435-.845.876-1.168.417-.318.918-.563 1.45-.779 5.989-3.14 11.272-7.136 16.144-11.06a98.174 98.174 0 0 0 3.062-2.553c1.352-1.486 3.278-2.858 5.192-4.038 1.087-.665 2.252-1.3 3.556-1.744a8.688 8.688 0 0 1 2.548-.48 6.51 6.51 0 0 1 1.908.234c.7.204 1.316.528 1.775.947.067.042.664.42.936.605.936.635 9.588 7.04 4.269 4.176v-.006z" fill-opacity=".502" fill="#FFF500"/><path d="M39.936 8.327c-1.038.474-1.95 1.079-2.813 1.696-1.69 1.222-3.412 2.57-4.571 4.068-5.35 5.243-12.54 10.312-20.293 13.847-.308.114-.628.245-.87.425-.09.066-.187.15-.199.24-.012.066.024.138.06.198.091.131.23.245.375.353 1.063.773 2.451 1.3 3.568 2.031 4.71 2.888 9.335 5.836 14.123 8.658 2.82 1.666 5.657 3.32 8.64 4.841.948.48 1.914.96 2.952 1.343.236.083.483.173.743.221 1.83-1.6 3.743-3.157 5.657-4.703a241.65 241.65 0 0 1 7.693-5.974c.525-.383 6.442-4.218 6.394-4.164-1.854 1.552-3.955 2.972-5.93 4.446a208.269 208.269 0 0 0-5.778 4.517c-2.566 2.098-5.204 4.195-7.523 6.423a.458.458 0 0 1-.133.066c-.048.018-.102.024-.15.03a1.94 1.94 0 0 1-.375-.012c-.362-.048-.706-.161-1.032-.275-1.1-.378-2.114-.869-3.116-1.354-3.061-1.486-5.971-3.11-8.888-4.728-4.842-2.714-9.521-5.961-14.852-8.226-1.238-.701-2.705-1.205-3.859-1.978-.332-.233-.628-.49-.833-.79-.266-.384-.368-.815-.266-1.24.115-.45.441-.851.888-1.187.417-.318.93-.57 1.467-.779l8.369-5.039c3.966-2.63 7.825-5.35 11.35-8.274.29-.3 1.299-1.18 1.939-1.672A29.23 29.23 0 0 1 36 9.136c1.056-.593 2.191-1.162 3.471-1.498a6.932 6.932 0 0 1 2.09-.293c.464.006.93.077 1.352.215.465.156.87.396 1.153.701.042.06-.042.24-.537.078-.06-.048-.562-.275-.876-.347-.344-.078-.706-.102-1.074-.078-.58.048-1.13.215-1.637.413 0 0-.006 0-.006.006v-.006z" fill-opacity=".502" fill="#FFF500"/><path d="M39.725 7.303c-.133.042-.26.083-.386.131-1.202.468-2.259 1.103-3.255 1.762-1.878 1.252-3.713 2.654-5.047 4.212-5.392 4.967-12.396 9.82-19.98 13.158-.428.155-.935.39-1.316.653-.428.3-.742.67-.863 1.084-.109.396-.024.803.205 1.169.187.287.459.55.767.785 1.075.814 2.481 1.372 3.623 2.139 4.528 3.067 9.286 5.997 14.056 8.885 2.843 1.726 5.705 3.445 8.706 5.04 1.057.55 2.137 1.096 3.303 1.539.483.18.99.336 1.527.42.357.053.719.071 1.081.035a3.8 3.8 0 0 0 .737-.143c.283-.09.537-.216.76-.366 3.31-2.57 6.503-5.2 9.854-7.741 1.322-1 2.663-1.99 4.027-2.96 1.25-.88 6.425-3.877 6.334-3.787-1.83 1.432-3.822 2.774-5.748 4.14a195.304 195.304 0 0 0-4.939 3.697 277.222 277.222 0 0 0-8.501 6.903c-.44.311-.785.575-1.365.76-.326.103-.67.174-1.026.204-.477.042-.96.024-1.431-.042a9.6 9.6 0 0 1-1.793-.473c-1.226-.443-2.361-1-3.478-1.564-3.073-1.564-6.014-3.253-8.942-4.943-4.89-2.834-9.582-5.866-14.611-8.586-1.244-.743-2.7-1.294-3.84-2.12-.471-.348-.876-.744-1.166-1.181-.428-.653-.567-1.384-.38-2.097.2-.731.73-1.39 1.48-1.924.579-.413 1.267-.749 1.998-1.024l13.283-8.245c2.077-1.486 4.124-2.99 6.056-4.565 1.358-1.402 3.465-2.858 5.44-4.02 1.093-.642 2.252-1.247 3.538-1.684.084-.03.169-.054.253-.084.9-.288 1.86-.48 2.85-.498a7.344 7.344 0 0 1 2.186.282c.803.24 1.503.617 2.029 1.103 2.656 2.09.935 1.623-1.329.347a5.707 5.707 0 0 0-1.237-.57 5.37 5.37 0 0 0-1.619-.173c-.634.03-1.25.156-1.829.336l-.012.006z" fill-opacity=".502" fill="#FFF500"/><path d="M31.157 13.492c-5.228 5.093-12.22 10.018-19.78 13.44-.434.161-.845.353-1.189.598-.332.24-.592.528-.682.857-.085.306-.012.617.169.899.163.246.398.467.658.665 1.075.803 2.481 1.348 3.623 2.097 4.649 2.972 9.34 5.914 14.128 8.778 2.838 1.701 5.706 3.391 8.707 4.955 1.026.527 2.07 1.048 3.194 1.462.404.15.833.281 1.286.353.241.036.489.048.736.03.157-.012.308-.042.453-.09.17-.053.32-.125.453-.215 4.42-3.673 8.924-7.304 13.64-10.803a130.529 130.529 0 0 1 4.932-3.457 63.431 63.431 0 0 1 4.07-2.51c1.068-.624 2.18-1.26 3.417-1.708.308-.12.658-.27 1.014-.306.38-.06-.169.132-.18.156.041.078.307.054.404.06.06-.006-.043.03-.055.03-.29.12-.573.245-.85.383-1.124.545-2.187 1.15-3.225 1.768a70.298 70.298 0 0 0-4.806 3.061 157.77 157.77 0 0 0-4.04 2.93c-4.57 3.457-9.255 6.993-13.222 10.803-.338.24-.604.438-1.045.581a4.368 4.368 0 0 1-.797.162 4.997 4.997 0 0 1-1.159-.03 8.303 8.303 0 0 1-1.606-.413c-1.202-.42-2.319-.947-3.417-1.48-3.116-1.504-6.093-3.152-9.045-4.8-4.951-2.786-9.715-5.733-14.696-8.49-1.232-.743-2.675-1.3-3.804-2.127-.447-.33-.827-.7-1.099-1.114-.392-.611-.525-1.288-.35-1.947.187-.677.682-1.289 1.383-1.786.555-.395 1.213-.707 1.908-.965 1.739-.802 3.399-1.75 5.005-2.684l14.485-9.64c.139-.102.277-.204.41-.306 3.943-3.709 3.514-2.265.99.785l.127-.114-.145.138v-.006z" fill-opacity=".502" fill="#FFF500"/><path d="M72.492 26.83c-4.939-.252-13.048-6.364-16.2-8.503-4.05-2.744-9.907-6.399-13.959-9.149-1.352-1.228-7.607 3.2-9.395 5.08-4.914 4.1-14.297 10.42-21.011 13.302-3.58 1.289.465 2.48 2.717 4.003 2.705 1.833 25.667 16.459 27.454 15.195 2.675-2.517 23.215-20.156 27.701-20.21"/><path d="M44.863 33.72c-.99.58-1.624-.97-2.15-1.618-.543-.719-1.122-1.39-1.636-2.151l.182.557-.924-1.06c-.03-.024-.242-.204-.272-.084-.042.251.392.497.513.563-.694-.21-1.382-.51-2.07-.749-.556-.371-1.04-.82-1.522-1.288l-.006.006c-.037-.012-.06-.042-.079-.084-.12-.12-.247-.24-.368-.36.115.042.23.066.35.072.012-.101.03-.203.042-.27-.18.282-.03-.185 0-.269l.037-.126c.03-.12.024-.215-.043-.305-.084-.114-.199-.216-.205-.39-.501-.461.459-.221.61-.156 1.19.498 1.817.306 2.958-.52.43-.36.972-.54 1.456-.618.265-.036.537-.006.796.03.055.012.616.234.888.467.254.21.483.462.7.725.025.03.707.947.695.845 0-.006-.006-.012-.006-.018.61 1.42 1.117 2.786.954 4.554-.043.413-.326 2.259-.9 2.24v.007zm-8.332-6.262c-.085-.083-.17-.161-.254-.245-.459-.438-.446-.126.024.12a.89.89 0 0 0 .236.125h-.006zm.73.048c.013 0 .013.006.013.012.05.06-.127.264.076-.101l-.089.095v-.006z" fill-opacity=".502" fill="#0093DD"/><path d="M45.72 32.767c-.241-.36-.428-.767-.634-1.156-.53-1.073-1.17-2.037-1.787-3.038-.35-.204-.616-.623-.9-.965a2.685 2.685 0 0 0-.488-.455c-.067-.048-.23-.18-.32-.102-.586-.198-1.166-.425-1.74-.647-.61-.366-1.098-.929-1.611-1.456-.085-.09-.725-.827-.882-.641-.211-.03-.423.024-.634.126-.247.12-.483.305-.694.515-.41.395-.833.953-1.009 1.558-.253.773-.422 1.57-.513 2.372a10.96 10.96 0 0 0-.072 1.72 8.5 8.5 0 0 0 .278 1.774c.042.161.247.64.12.826-.223-.018-.386-.311-.495-.515-.284-.557-.404-1.234-.47-1.905-.019-.18-.03-.36-.043-.54-.09-1.324.066-2.714.398-4.044.188-.899.713-1.75 1.25-2.414a6 6 0 0 1 1.111-1.097c.495-.365 1.039-.593 1.588-.647.761-.09 1.473.24 2.126.575.271.138 1.08.755 1.412.468.085.012.387-.024.556.012.338.077.67.191.996.311.079.024.773.455 1.111.833.272.3.513.635.737.983l.513.785c.241.64.55 1.132.749 1.785.326 1.079.489 2.283.332 3.505-.043.306-.622 2.499-.985 1.486v-.012zm-.079-6.761c.094.108.118.123-.023-.015l.023.015z" fill-opacity=".502" fill="#0093DD"/><path d="M44.73 29.304c-.44-.192-.82-.527-1.165-.887-.405-.012-.827-.575-1.117-.839-.175-.143-.356-.293-.562-.383-.06-.03-.271-.15-.332-.024-.61-.132-1.225-.324-1.823-.51-.652-.347-1.183-.91-1.739-1.42-.103-.095-.815-.503-.797-.46-.15.017-.29.101-.423.197a3.21 3.21 0 0 0-.507.473c-.241.276-.712.845-.712 1.27-.332 1.193-.483 2.457-.368 3.643.018.204.048.402.09.6.054.263.12.52.217.76.145.372.345.696.598.96.127.143.707.485.658.754-.302.15-.694-.06-.93-.222-.362-.251-.627-.635-.857-1.054v-.006c-.26-.461-.423-.995-.525-1.558-.248-1.372-.151-2.858.042-4.308.012-.91.477-1.93.9-2.708.308-.587.682-1.133 1.147-1.54.573-.497 1.238-.737 1.884-.707.736.042 1.376.467 1.956.923.042.036.09.072.133.108.265.221.754.892 1.123.844.157.066 1.008.408 1.419.624.078.03.688.46.972.814.012.018.024.03.036.048.217.282.41.605.568.947.054.114.434 1.156.332 1.102.012.102.785 3.434-.23 2.559h.012z" fill-opacity=".502" fill="#0093DD"/><path d="M45.008 26.745c-.145.288-.827-.55-.906-.635-.235-.233-.47-.479-.73-.683-.302-.257-.628-.467-1.003-.557a22.69 22.69 0 0 1-1.557-.431c-.441-.144-.864-.647-1.232-1.019-.447-.45-.918-.947-1.515-1.102-.483-.126-1.003-.084-1.504.107-.47.186-.912.492-1.316.863-.725.671-1.377 1.594-1.709 2.619-.537 1.677-.79 3.475-.652 5.17.073.833.248 1.636.55 2.355.32.743.778 1.366 1.346 1.828.15.12.308.233.47.33l6.824-.085-2.572 1.708c-1.232.581-2.929-.144-3.997-.575a5.413 5.413 0 0 1-1.124-.588c-.694-.485-1.261-1.174-1.684-2.007-.399-.803-.652-1.713-.803-2.666-.29-1.941-.181-4.038.181-6.064a9.37 9.37 0 0 1 2.125-4.242c.622-.713 1.347-1.282 2.126-1.635.954-.432 1.944-.516 2.868-.27.82.24 1.521.773 2.155 1.396.133.132.26.264.38.402.073.083.834.838.773.772.073.042.9.474 1.232.69.079.03.851.617 1.226 1.108.078.108.15.216.223.323.175.276.326.57.459.881.054.12.574 1.324.12 1.085-.005.108.768 3.008-.416 1.492.006.102-.272-.737-.326-.576l-.012.006z" fill-opacity=".502" fill="#0093DD"/><path d="M42.496 24.672c-.58.012-1.153-.06-1.72-.161-.502-.06-.967-.534-1.377-.881-.435-.378-.906-.827-1.48-.905-.434-.078-.88 0-1.316.204a3.96 3.96 0 0 0-1.135.839c-.604.61-1.171 1.444-1.419 2.348-.446 1.552-.64 3.206-.47 4.746.078.713.247 1.402.525 2.007.277.6.664 1.096 1.147 1.456.809.605 1.811.85 2.771 1.012.483.084.966.15 1.45.198.488.503 2.59-.066 2.674-.042-.724.863-1.884.899-2.723.791-.32-.012-.646-.036-.966-.054-1.274-.06-2.602-.257-3.701-.928-.628-.396-1.16-.965-1.576-1.66-.417-.707-.706-1.516-.912-2.373a15.83 15.83 0 0 1-.241-5.956c.296-1.6 1.129-3.097 2.173-4.188.634-.665 1.353-1.18 2.12-1.486l.193-.072a3.838 3.838 0 0 1 2.524-.011c.917.329 1.636 1.066 2.264 1.887.048.06.79.965.76 1.018h-.005c.054.036.815.731 1.062 1.205 1.105.737-.018 1.03-.664.934l.151.084-.12-.012h.011z" fill-opacity=".502" fill="#0093DD"/><path d="M43.27 23.198c-.55-.131-1.094-.3-1.631-.479-.036.036-.368-.168-.857-.683-.616-.647-1.25-1.294-2.065-1.57-.737-.233-1.534-.215-2.319.048-.682.234-1.334.641-1.926 1.157a8.817 8.817 0 0 0-2.463 3.624c-.707 2.044-1.045 4.249-.906 6.334.078 1.12.308 2.193.706 3.151.447 1.055 1.093 1.942 1.896 2.583 1.45 1.156 3.267 1.593 5.024 1.881.199.036.392.066.591.096l5.766-2.978-1.575 2.63.277-.06c-1.57 1.253-3.157 1.618-4.854 1.337-.085-.012-.368-.102-.586-.126-1.817-.192-3.67-.605-5.198-1.69-.966-.689-1.763-1.666-2.349-2.834-.531-1.072-.875-2.289-1.063-3.565-.35-2.403-.193-5.009.447-7.483.592-2.038 1.751-3.877 3.182-5.213.851-.791 1.8-1.39 2.79-1.726 1.207-.407 2.445-.413 3.568-.012a5.3 5.3 0 0 1 .87.426c.76.479 1.394 1.18 1.962 1.953.078.114.742.97.489.803.066.048.646.51.911.743.043.042.091.084.133.126.079.035.9.743 1.262 1.378.713 1.336.127 1.677-.797.952-.477-.401-.972-.76-1.552-.946-.078-.024.399.191.26.143h.006z" fill-opacity=".502" fill="#0093DD"/><path d="M41.277 22.797c-.242-.156-.46-.354-.677-.545-.621-.551-1.25-1.133-2.028-1.348-.683-.174-1.407-.12-2.12.155-.615.246-1.195.642-1.726 1.133-.918.863-1.715 2.031-2.138 3.331-.604 1.906-.875 3.943-.712 5.866.09.989.308 1.935.676 2.774.399.899.966 1.648 1.672 2.187 1.474 1.12 3.376 1.438 5.157 1.576.893.138 1.83.06 2.753-.3.23-.09.453-.191.676-.311a7.24 7.24 0 0 0 1.818-1.426l1.69-1.546-1.195 2.055a7.438 7.438 0 0 1-1.993 1.696 7.877 7.877 0 0 1-1.19.55 6.402 6.402 0 0 1-2.843.36c-1.89-.012-3.919-.33-5.537-1.342-.911-.581-1.684-1.42-2.27-2.45-.55-.977-.93-2.097-1.153-3.284-.435-2.307-.32-4.841.338-7.25a10.83 10.83 0 0 1 3.097-4.895c.272-.24.556-.461.846-.665a6.545 6.545 0 0 1 1.799-.869c1.11-.323 2.228-.275 3.242.138 1.027.432 1.83 1.3 2.476 2.33.139.229.277.462.398.708.085.168.212.407.012.563.043.084-.217.641-.694.713-.024.036.145.473-.368.084l-.006.012z" fill-opacity=".502" fill="#0093DD"/><path d="M43.819 23.54c-.393-1.474 2.45-.575 2.892-.354a4.67 4.67 0 0 1 2.107 2.283c.344.995.453 2.061.338 3.116a8.995 8.995 0 0 1-.876 2.93c-.893 1.84-2.294 3.367-3.924 4.47-.042.03-.09.06-.139.09-1.727 1.102-3.822 1.803-5.839 1.467-.326-.054-.682-.125-.972-.3.121-.143.846.03 1.003.043 1.117.06 2.234-.084 3.29-.48a9.731 9.731 0 0 0 2.252-1.246c1.54-1.168 3.532-3.115 2.579-5.23-.188-.456-.206-.96-.23-1.45-.012-.33.018-.66.006-.99a5.574 5.574 0 0 0-.278-1.64c-.024-.055.037.143.006.083a5.078 5.078 0 0 0-.833-1.228c-.211-.234-1.491-1.18-1.382-1.558v-.006z" fill-opacity=".502" fill="#0093DD"/><path d="M46.125 24.54c.169-1.635 2.27.516 2.524.983.422.947.573 2.02.5 3.062a8.633 8.633 0 0 1-.784 2.99c-.875 1.953-2.325 3.583-4.021 4.751a10.63 10.63 0 0 1-3.224 1.486 8.19 8.19 0 0 1-2.802.228 6.935 6.935 0 0 1-3.248-1.199c-.513-.365-1.1-.844-1.401-1.438.272-.072 1.322 1.013 1.564 1.169.893.563 1.896.928 2.928 1.018.067.006.133.012.2.012 1.998.078 4.039-.67 5.578-2.043 1.522-1.408.815-2.474 1.37-4.218.164-.491.4-.953.574-1.438a9.47 9.47 0 0 0 .52-1.983 7.325 7.325 0 0 0 .09-1.78c-.048-.281-.555-1.342-.38-1.587l.012-.012z" fill-opacity=".502" fill="#0093DD"/><path d="M46.137 25.325c.417.048.767.36 1.008.701.375.648.502 1.414.471 2.175-.03.851-.265 1.678-.603 2.445-.743 1.69-2.011 3.086-3.472 4.086-1.485 1-3.242 1.624-5.006 1.474a5.438 5.438 0 0 1-2.53-.886c-.833-.564-1.503-1.355-1.992-2.265.012.018-.036-.06-.06-.096-.375-.545-.785-1.067-1.172-1.606a13.479 13.479 0 0 1-.809-1.252c-.108-.198-.217-.396-.295-.611a2.153 2.153 0 0 1-.115-.384 1.451 1.451 0 0 1 .024-.683c.006-.06.133-.491.302-.79.06-.097.416-.69.573-.624-.096.258-.247.491-.356.743-.139.3-.247.63-.253.965-.018.06-.018.114.018.305.024.108.06.216.102.318.079.192.182.371.29.545.248.42.532.815.821 1.198.109.15.224.294.338.438.037.048 1.02 1.3 1.009 1.246.477.82 1.11 1.528 1.908 1.995.7.414 1.491.63 2.294.623 1.667-.036 3.013-.958 4.118-2.228a18.577 18.577 0 0 0 1.684-2.337c.278-.462.556-.923.78-1.414a6.74 6.74 0 0 0 .543-1.678l.036-.24a9.26 9.26 0 0 0 .084-1.228c-.006-.078-.175-1.126.272-.953l-.012.018z" fill-opacity=".502" fill="#0093DD"/><path d="M47.067 27.333c.163.233.247.527.29.809.139.844-.049 1.731-.344 2.516-.647 1.768-1.92 3.235-3.376 4.29-1.515 1.079-3.326 1.744-5.156 1.624a5.743 5.743 0 0 1-2.705-.905c-.9-.581-1.63-1.414-2.167-2.373.024.054-.888-1.12-1.244-1.6a15.908 15.908 0 0 1-.694-.976l-.182-.288a5.233 5.233 0 0 1-.356-.683 2.867 2.867 0 0 1-.157-.503 2.13 2.13 0 0 1 .03-.995c0-.06.097-.503.314-.922a5.46 5.46 0 0 1 .664-.989 9.397 9.397 0 0 1 1.757-1.63c.085-.066.568-.473.695-.377-.151.216-.356.39-.544.569-.561.54-1.129 1.073-1.618 1.69-.23.287-.434.593-.597.928-.091.186-.17.384-.224.588a2.288 2.288 0 0 0-.084.605c-.018.06-.03.132.036.425.03.144.078.282.139.408.096.21.211.413.338.605.278.413.585.803.9 1.186.084.108 1.388 1.642 1.376 1.588.525.845 1.214 1.564 2.083 1.995a3.915 3.915 0 0 0 2.397.384c1.491-.276 2.862-1.355 3.997-2.361.054-.048.109-.102.163-.15 1.002-.929 1.914-1.911 2.627-3.11l.054-.09c.326-.55.616-1.132.906-1.707.084-.168.483-1.09.694-.57l-.012.019z" fill-opacity=".502" fill="#0093DD"/><path d="M45.46 30.646c-.428 1.294-1.364 2.379-2.39 3.182-1.286.988-2.856 1.63-4.45 1.545a4.756 4.756 0 0 1-2.234-.707c-.755-.473-1.365-1.168-1.817-1.965-.012.06-1.19-1.528-1.347-1.737-.29-.378-.573-.761-.827-1.175a3.912 3.912 0 0 1-.278-.521 1.532 1.532 0 0 1-.09-.282.921.921 0 0 1 .006-.425c0-.06.108-.485.223-.72a4.57 4.57 0 0 1 .531-.802 11.51 11.51 0 0 1 1.558-1.552c.749-.623 1.552-1.21 2.415-1.624.254-.12.52-.227.791-.263.41-.114.894-.024 1.298.042.592.114 1.208.27 1.757.533.03.018.339.162.206.222-.085 0-.163-.012-.248-.018-.585-.072-1.165-.222-1.75-.318-.375-.048-.798-.12-1.166-.024-.09.012-.181.042-.266.072-.984.378-1.896 1.127-2.693 1.834-.513.46-1.008.958-1.418 1.527a3.961 3.961 0 0 0-.417.707c-.073.168-.139.36-.133.552.03-.054 0 .048.006.078.012.042.03.083.054.125.073.138.163.264.254.39.272.36.574.7.882 1.03.53.594 1.17 1.103 1.672 1.72.429.551.99.983 1.624 1.21.513.198 1.063.252 1.606.216a6.13 6.13 0 0 0 1.34-.288 9.922 9.922 0 0 0 2.096-.976 12.39 12.39 0 0 0 1.479-1.097c.242-.203 2.337-2.013 1.715-.509l.012.018z" fill-opacity=".502" fill="#0093DD"/><path d="M44.79 30.01c-.513 1.097-1.352 2.008-2.294 2.685-1.08.767-2.39 1.288-3.7 1.18a3.365 3.365 0 0 1-1.583-.55c-.537-.366-.948-.887-1.262-1.475-.368-.725-.954-1.354-1.419-2.007a10.553 10.553 0 0 1-.694-1.072c-.006-.012-.012-.018-.018-.03.006-.006.006-.012.012-.024a3.72 3.72 0 0 1 .35-.462 9.772 9.772 0 0 1 1.37-1.222c.224-.168 2.5-1.348 2.452-1.312-.048.03.2-.066.133-.03-.109.066.483.174.55.186.5.161 1.02.335 1.473.617.114.072.374.263.096.287l-.145-.018c-.495-.071-.978-.227-1.46-.371-.218-.048-.683-.042-.29-.222.054-.024-.242.096-.194.042.036-.048-1.672.881-2.216 1.324-.404.33-.803.683-1.147 1.097.145.192.302.377.459.563.555.671 1.262 1.3 1.703 2.067.247.354.603.653.996.803.326.132.676.168 1.02.15.719-.048 1.42-.294 2.071-.617.242-.12.477-.246.707-.384L44 29.412c.163-.168.332-.342.525-.48.344-.257.58-.101.513.348a2.06 2.06 0 0 1-.241.701l-.006.03zm-10.955-1.257c-.03-.042-.069-.09-.1-.138a.818.818 0 0 1 0 .365.59.59 0 0 1 .1-.227zm-.038-.138a.29.29 0 0 1-.094-.108c-.031-.06.063.06.078.078 0 .012.016.024.016.036v-.006zm.026.365c-.05.03-.05.07-.1.1.05-.03.05-.06.1-.1zm-.012.06c-.05.03-.05.058-.1.087 0 .038.05-.01.1-.087z" fill-opacity=".502" fill="#0093DD"/><path d="M44.133 22.396c1.527.742 2.988 1.725 3.495 3.475 1.25 6.219-9.074 13.08-12.594 6.555-.242-.474-2.585-3.188-2.452-3.68.03-1.45 3.852-4.499 5.048-4.793.966-.36 5.06.516 5.838 1.283"/><path d="M29.98 34.529c-1.516-.15-.187-2.93-.085-3.71.369-1.222 1.214-2.198 2.102-3.025.658-.605 1.418-1.126 1.998-1.821.302-.192.58-.396.894-.564 1.14-.605 2.451-.964 3.725-.964.175 0 .386-.006.555.072-.03.131-.452.15-.543.161-.682.108-1.364.222-2.023.462-.712.27-1.4.629-2.004 1.114-.99 1.57-1.208 1.75-1.425 3.481-.03.252-.115.492-.205.72-.242.574-.622 1.066-.81 1.671a.11.11 0 0 0-.012.042c-.187.425-1.509 2.69-2.173 2.355l.006.006z" fill-opacity=".502" fill="#FFF"/><path d="M30.65 32.779c-.827-.03-.573-1.3-.598-1.863.206-1.277 1.045-2.325 1.896-3.2.622-.635 1.389-1.186 1.908-1.93.972-.67 1.956-1.186 3.08-1.497a10.37 10.37 0 0 1 1.66-.3c.767-.078 2.035-.251 2.741.198-.133.282-2.258.126-2.59.186-.042.006-.085.018-.127.024-1.346.251-3.067.755-3.943 2.001-.139.719-.018 1.923-.386 2.636-.223.402-.574.743-.882 1.073-.223.245-.446.485-.664.73-.332.366-.676.714-1.002 1.091-.133.186-.779 1.049-1.08.851h-.013z" fill-opacity=".502" fill="#FFF"/><path d="M31.296 32.623c-.048-.317-.012-.64.006-.952-.018-1.049.78-1.972 1.437-2.643.67-.67 1.443-1.24 2.071-1.965 1.165-.809 2.488-1.24 3.864-1.396a10.394 10.394 0 0 1 3.575.228c.193.048.386.102.58.167.307.054 2.48.378 2.487.81-.73.155-1.69-.312-2.427-.402-.085-.012-.175-.018-.26-.024-1.274-.312-2.644-.36-3.918-.036-1.293.323-2.228 1.066-3.013 2.187-.012.024-.471.797-.78 1.126-.355.372-.754.695-1.134 1.037l-.942.899a6.176 6.176 0 0 1-.61.58c-.09.115-.996 1.025-.948.39l.012-.006z" fill-opacity=".502" fill="#FFF"/><path d="M31.906 30.94c-.072-.707.44-1.402.845-1.906.61-.749 1.365-1.354 1.95-2.127 1.178-.893 2.542-1.378 3.961-1.576a10.672 10.672 0 0 1 4.287.276c.054.006.688.09.942.138.44.09 3.538.659 3.502 1.252-.833.084-1.86-.51-2.68-.665-.671-.12-1.353-.216-2.03-.234-1.292-.263-2.74-.215-3.96.384-.978.461-1.896 1.216-2.705 1.953-.09.078-.181.156-.272.24-.35.413-1.226 1.162-1.884 1.63l-.241.167c-.127.084-1.806 1.157-1.721.468h.006z" fill-opacity=".502" fill="#FFF"/><path d="M32.848 30.94c.139-.312.332-.594.543-.857.634-.78 1.42-1.396 2.083-2.151.942-.725 2.132-1.055 3.267-1.199a9.56 9.56 0 0 1 3.84.318 17.56 17.56 0 0 1 3.852 1.019c.7.281 1.467.623 2.01 1.192.03.036.38.365.242.413a1.204 1.204 0 0 1-.368-.167c-.532-.318-1.05-.647-1.63-.87-1.335-.496-2.79-.85-4.209-.874-1.25-.222-2.47-.078-3.659.378-.803.293-1.6.67-2.312 1.168a10.47 10.47 0 0 0-.338.24c-.037.036-1.34 1.078-1.987 1.473-.054.03-.102.06-.157.096-.253.144-1.684.737-1.171-.18h-.006z" fill-opacity=".502" fill="#FFF"/><path d="M34.068 29.532c.404-.6.905-1.12 1.328-1.696.924-.833 2.15-1.228 3.32-1.414a9.637 9.637 0 0 1 3.967.21c1.908.215 3.95.689 5.634 1.695.157.096.308.198.453.312.555.431 1.213.875 1.624 1.48.024.036.139.197.036.21a1.366 1.366 0 0 1-.133-.066c-.61-.342-1.147-.857-1.72-1.259a2.845 2.845 0 0 0-.14-.09c-1.69-1.012-4.003-1.563-5.947-1.33-1.256-.084-2.481.186-3.689.546-.356.101-.712.215-1.056.341-.592.216-1.184.437-1.745.749-.043.036-.26.234-.465.366-.266.167-2.313.982-1.474-.054h.007z" fill-opacity=".502" fill="#FFF"/><path d="M34.454 30.299c.525-.54 1.093-1.031 1.6-1.588.47-.378 1.811-.827 2.735-.923 1.171-.12 2.373 0 3.496.371 1.805.342 4.196.797 5.573 2.2.036.035.078.071.115.101.44.402.984.851 1.243 1.414.049.096.097.264-.066.234l-.066-.036c-.544-.318-.967-.875-1.462-1.276l-.006-.006c-1.346-1.193-3.616-1.63-5.331-1.63a9.026 9.026 0 0 0-3.423.12c-.58.126-1.16.294-1.71.533-.24.102-.482.204-.718.324-.042.036-.972.665-1.473.91-.241.12-.573.288-.851.228-.127-.03-.181-.132-.163-.263.048-.288.308-.534.5-.713h.007z" fill-opacity=".502" fill="#FFF"/><path d="M29.068 34.08c.453-.858 1.322-1.834 1.775-2.691.906-1.708 3.14-2.618 4.426-3.72 1.968-1.073 4.848-1.217 7.276-.51 1.63.228 4.474.809 6.074 1.767 1.062.642 2.656 1.594 3.151 2.643"/><path d="M8.727 53.007c-.006.054-1.944-24.943-2.73-32.744-.452-4.434-2.372-8.928-2.185-13.392.054-.934.284-1.857.797-2.642.568-.857 1.419-1.432 2.373-1.756 1.105-.371 2.288-.425 3.435-.377 1.594.06 3.176.33 4.734.659 2.856.575 5.748.959 8.658 1.21-3.043.054-6.056.198-9.032.492-1.498 0-3.001-.09-4.498-.006-.858.018-1.757.083-2.554.431-.11.042-.212.09-.314.15a1.784 1.784 0 0 0-.695.659c-.235.413-.296.905-.314 1.372-.018 4.338 1.824 8.664 2.228 12.99.14 1.462.26 2.93.369 4.398.404 5.644 3.43 23.78-.272 28.568v-.012zM23.803 3.959c6.25.54 12.577.474 18.802.384.181 0 .356-.006.537-.006-6.448-.186-12.945-.486-19.339-.378zm19.34.378c10.384-.174 20.824-.953 31.209-.456.785.03 1.588.096 2.348.312-.7.126-1.642-.15-2.354-.156a444.373 444.373 0 0 0-17.649.336c-4.462.167-8.996.096-13.555-.03v-.006z" fill-opacity=".502" fill="#00923F"/><path d="M8.516 35.859c-.157 1.006-2.102-12.87-2.41-15.608-.5-4.428-2.463-8.916-2.318-13.386.048-.94.272-1.87.785-2.666.567-.863 1.425-1.456 2.39-1.786 1.106-.383 2.301-.443 3.46-.401 1.6.048 3.188.312 4.752.635 14.769 2.846 30.346 1.378 45.272.91 4.643-.137 9.286-.25 13.929-.149.905.024 1.817.09 2.699.318.422.113.839.27 1.225.485.477.27.894.635 1.208 1.09.35.51.55 1.109.58 1.726a3.87 3.87 0 0 1-.212 1.438c-.223.647-.591 1.228-1.002 1.768-1.262 1.66-3.122 3.121-3.876 5.122-.815 1.618-1.329 3.344-1.836 5.075-.271-1.348.942-3.762 1.492-4.913.754-2.163 2.632-3.697 3.966-5.482.387-.515.737-1.067.948-1.684.145-.42.218-.863.194-1.312a3.043 3.043 0 0 0-.526-1.552 3.27 3.27 0 0 0-1.099-.988 4.957 4.957 0 0 0-1.147-.45c-.851-.216-1.745-.27-2.62-.287a90.306 90.306 0 0 0-1.274-.012c-16.719.047-33.818 3.06-50.452 2.45a55.682 55.682 0 0 1-8.036-.94c-1.425-.288-2.874-.528-4.33-.57-.833-.03-1.714-.018-2.511.264-.405.138-.779.365-1.02.73-.254.402-.333.888-.357 1.355-.006.12-.006.24-.006.365.042 4.243 1.606 8.419 1.92 12.655.17 2.486 2.204 13.739.23 15.788l-.018.012z" fill-opacity=".502" fill="#00923F"/><path d="M8.854 31.7c-.574-3.834-.894-7.717-1.335-11.57-.489-4.35-2.427-8.783-2.3-13.169.036-.677.175-1.366.543-1.947.387-.593.978-.983 1.637-1.21.935-.33 1.956-.366 2.94-.324 1.522.048 3.031.306 4.516.611 19.478 3.81 39.795.485 59.466.893.785.018 1.582.066 2.35.263.295.078.585.18.857.33.271.156.513.36.694.617.187.27.29.587.308.917.012.287-.036.57-.127.839-.169.491-.459.928-.767 1.336-1.364 1.81-3.278 3.361-4.075 5.548-2.15 4.398-2.693 9.58-2.947 14.41-.018.336-.03.671-.048 1.007-.181 4.655-.024 9.365.652 13.978-.097 3.373 1.938 6.813 3.025 9.91.12.336.211.683.23 1.037.018.365-.049.73-.23 1.054-.181.318-.459.57-.785.731-.302.15-.634.228-.966.27-.743.072-2.638.168-3.278-.36 1.068.126 2.18.294 3.254.144.308-.042.61-.12.887-.257.278-.144.52-.36.677-.642.15-.281.205-.605.193-.922a3.264 3.264 0 0 0-.224-.959c-1.159-3.014-3.17-6.513-3.103-9.82l-.592-5.59a83.457 83.457 0 0 1-.12-9.599c.235-4.853.736-10.078 2.855-14.518.816-2.283 2.73-3.882 4.124-5.788.266-.36.526-.743.664-1.174.067-.192.103-.395.091-.6a1.148 1.148 0 0 0-.205-.586 1.51 1.51 0 0 0-.49-.426 3.045 3.045 0 0 0-.706-.263c-.718-.174-1.473-.204-2.21-.216-16.652-.072-33.232 2.582-49.89 1.63-3.35-.204-6.696-.588-9.986-1.265-1.383-.293-2.79-.545-4.203-.605-.748-.036-1.551-.042-2.27.204-.26.09-.525.216-.682.461-.187.3-.236.683-.26 1.025-.072 1.318.212 2.66.46 3.948.573 2.978 1.207 5.944 1.418 8.976.139 2.109.115 13.128-.036 11.678l-.006-.006z" fill-opacity=".502" fill="#00923F"/><path d="M6.88 13.9c-.677-2.212-1.504-4.584-1.516-6.927.018-.659.139-1.324.483-1.893.362-.587.93-.97 1.564-1.199.923-.341 1.938-.39 2.916-.365 1.521.024 3.037.264 4.522.557 19.526 3.571 39.79.264 59.472.587.81.018 1.63.066 2.422.264.326.084.64.198.935.36.314.18.592.419.804.718.217.318.344.695.368 1.085a2.5 2.5 0 0 1-.145.965c-.181.52-.483.994-.815 1.432-1.335 1.78-3.23 3.319-4.003 5.464-2.113 4.38-2.639 9.509-2.88 14.308-.236 4.955-.085 9.982.664 14.89-.018.76.157 1.533.35 2.264.682 2.588 1.781 5.021 2.711 7.52.145.383.248.79.272 1.204a2.54 2.54 0 0 1-.296 1.36 2.45 2.45 0 0 1-1.014.965c-.357.18-.75.281-1.148.33-1.95.233-4.02-.312-5.905-.72-3.194-.713-10.034-1.054-12.607-3.151 4.27.713 8.453 1.91 12.68 2.828 1.847.395 3.888.934 5.796.695a3.213 3.213 0 0 0 1.027-.3c.356-.186.664-.461.857-.815.193-.353.266-.755.247-1.162a3.414 3.414 0 0 0-.156-.815c-.03-.09-.06-.186-.097-.276-1.153-2.954-3.164-6.399-3.14-9.652-.803-4.997-.996-10.132-.79-15.183.205-4.83.676-10.012 2.716-14.458.78-2.283 2.681-3.894 4.034-5.818.265-.371.519-.76.658-1.198a1.56 1.56 0 0 0 .084-.623 1.226 1.226 0 0 0-.217-.611 1.52 1.52 0 0 0-.507-.432 3.118 3.118 0 0 0-.719-.257c-.724-.156-1.473-.174-2.216-.174-10.795.204-21.56 1.414-32.356 1.755-9.087.264-18.44.27-27.364-1.671l-.09-.018c-1.4-.312-2.814-.581-4.245-.677-.797-.048-1.636-.06-2.409.168-.356.107-.7.281-.924.593-.253.353-.344.815-.386 1.24-.109 1.102 1.099 9.694.35 6.842h.012z" fill-opacity=".502" fill="#00923F"/><path d="M18.575 6.811c18.475 2.265 37.15-.215 55.686.186.296.006.592.018.888.042.066-.108.132-.216.12-.192a.679.679 0 0 0-.048.198c.32.03.634.078.942.156a1.8 1.8 0 0 1 .344.12c-.102.27-.29.52-.459.749-.096.125-.187.245-.29.371.037.03.079.06.121.09.085.054-.03.006-.066 0a.707.707 0 0 1-.109-.024c-1.455 1.81-3.212 3.403-4.04 5.644-2.245 4.572-2.813 9.982-3.09 15.003-.266 5.129-.127 10.33.621 15.41-.078 3.386 1.854 6.855 3.037 9.983.037-.006.06-.012.012.012l-.006.006c.043.107.079.21.115.317.036.102.079.216.097.33-.073.018-.151.03-.224.042-.15.018-.302.024-.452.03v.072c0 .024-.013-.012-.025-.066-1.515.042-3.127-.42-4.57-.737-7.753-1.768-15.427-3.805-23.246-5.279-4.613-.845-9.304-1.486-14.007-1.39 0-.054-25.691 2.846-25.74 2.858 8.357-1.108 19.08-3.463 27.714-3.331 4.07.078 8.12.629 12.124 1.354 7.83 1.444 15.51 3.475 23.288 5.153 1.304.281 2.801.713 4.19.695-1.292-3.224-3.164-6.753-3.116-10.258-.809-5.027-1.008-10.162-.809-15.249.224-5.237.78-10.815 3.043-15.608.719-2.007 2.174-3.511 3.502-5.11-7.837-.085-15.674.323-23.505.532-10.5.282-21.18.492-31.59-1.15-1.606-.258-3.206-.57-4.776-.995-3.652-.94-3.568-1.282.133-.599 1.389.24 2.784.456 4.184.641l.007-.006zm57.938.51l.044.018c.029.012.08.06.044.012a.215.215 0 0 1-.051-.126c0-.024-.022.054-.022.066l-.015.03zm-4.045 47.885c.006.036.006.066.012.102 0 .066.012-.018.024-.048.012-.024.067-.09.067-.09l-.097.036h-.006z" fill-opacity=".502" fill="#00923F"/><path d="M35.341 7.602c12.976-.078 25.95-1.174 38.926-.946.658.011 1.334.041 1.98.203.158.042.32.09.465.174a.41.41 0 0 1 .151.12.096.096 0 0 1 .019.054c.006.066-.019.138-.037.203-.108.324-.32.612-.519.875-1.473 1.971-3.43 3.613-4.299 5.992-2.21 4.548-2.76 9.91-3.019 14.895-.247 5.099-.102 10.27.664 15.315-.072 3.463 1.993 7.04 3.164 10.203.067.186.133.384.14.582a.467.467 0 0 1-.037.24.378.378 0 0 1-.151.125 1.402 1.402 0 0 1-.49.126c-1.708.204-3.574-.336-5.228-.69-7.752-1.725-15.426-3.738-23.24-5.188-9.847-1.761-17.515-.551-27.067.893a25.682 25.682 0 0 1-5.03.222c-.826-.024-7.945 1.761-11.145 2.558 3.67-1.066 6.388-3.158 11.158-3.008a25.33 25.33 0 0 0 6.092-.431c9.093-1.852 16.785-2.469 26.095-.821 7.825 1.408 15.511 3.41 23.3 5.003 1.485.306 3.212.815 4.764.641-1.334-3.271-3.37-6.974-3.345-10.587-.851-5.021-1.069-10.162-.875-15.249.21-5.213.76-10.767 3.03-15.53.767-2.14 2.391-3.709 3.792-5.429-.12-.006-.241-.006-.362-.012h-6.454c-10.585.138-21.175.642-31.765.348-9.612-.276-10.995-.887-.67-.887l-.007.006zM.594 53.552a81.86 81.86 0 0 1-1.407.342c.49-.096.954-.21 1.407-.342zm-1.407.342a.659.659 0 0 1-.145.1c.049-.04.097-.06.145-.1z" fill-opacity=".502" fill="#00923F"/><path d="M7.7 54.181c.38-12.99.453-21.96-.489-34.008C6.354 9.172.51 1.25 14.777 4.463c16.157 3.63 42.741 1.102 59.514 1.57 7.403.203-.114 3.996-1.727 8.448-3.67 7.4-3.604 21.899-2.354 29.928-.073 2.498 2.602 8.61 3.164 10.084 1.738 4.595-8.96-.174-29.67-3.817-20.71-3.649-21.223 1.911-31.994 1.618-10.772-.3-9.256 3.51-12.71 3.415"/></g></svg>