<?xml version="1.0" encoding="utf-8"?>
<!-- Generator: Adobe Illustrator 18.1.1, SVG Export Plug-In . SVG Version: 6.00 Build 0)  -->
<svg version="1.1" xmlns="http://www.w3.org/2000/svg" xmlns:xlink="http://www.w3.org/1999/xlink" x="0px" y="0px"
	 viewBox="0 0 339.8 597.5" enable-background="new 0 0 339.8 597.5" xml:space="preserve">
<g id="Guides">
</g>
<g id="PC">
	<g>
		<path fill="#218ac9" d="M16,175.2L16,175.2c1.6,0,3.2,0.3,4.7,1l35.5,15.3l0,0l0,0l37.9,15.2l4.5,1.8l1-4.7l2.9-14.5l22.3,5.7
			l-5,32.4c-0.6,3.5-2.9,6.6-6,8.3c-1.8,1-3.8,1.5-5.8,1.5c-1.5,0-3.1-0.3-4.5-0.9l-56.4-22.6l-0.1,0l0,0l0,0l-0.1,0l0,0l-35.7-15.4
			c-2.9-1.3-5.2-3.6-6.4-6.6c-1.2-3-1.1-6.2,0.1-9.2C6.9,178,11.2,175.2,16,175.2 M16,171.2c-6.2,0-12.1,3.6-14.7,9.7
			c-3.5,8.1,0.2,17.5,8.4,21l35.7,15.4c0.1,0,0.2,0.1,0.4,0.1l56.4,22.6c1.9,0.8,3.9,1.2,6,1.2c2.7,0,5.4-0.7,7.8-2
			c4.2-2.3,7.2-6.4,8.1-11.2l5.6-36l-29.9-7.6L95.7,203l-37.9-15.2l-35.5-15.3C20.3,171.6,18.1,171.2,16,171.2L16,171.2z"/>
		<path fill="#218ac9" d="M314.8,144.7l-33,23.3l-26.2-41.1l-11.9,165.7H141.4l-2.9-135l-5.6,30.6l-36.3-8.7l16.9-75.1
			c1.2-6.4,7.1-11.8,14.4-12.4l43.4-3.3l20.6,21.8c1.7,1.6,4.4,1.3,5.7-0.6l20-24.7l40.3-3.1c5.7-0.4,11.2,2.2,14.4,6.9L314.8,144.7
			z"/>
		<path fill="#218ac9" d="M146.5,300.7h91.4l40.7,148.9l0.7,3.1h0.1l33.2,125.7c1.7,6.3-2.2,12.8-8.5,14.4c-1,0.3-2,0.4-3.1,0.4
			c-5.4,0-10.2-3.7-11.6-8.9l-34-127.7l-38.8-140.9l-0.8-2.9h-3h-37.8h-4l0,4l-0.4,120.6l0,0.4l0.1,0.4l30.6,141.2
			c1.4,6.4-2.7,12.5-9.2,14c-0.8,0.2-1.6,0.3-2.5,0.3c-5.6,0-10.6-4-11.8-9.6l-31-143.6c-0.2-0.8-0.2-1.7-0.2-2.6l-0.2-137
			 M141.5,296.5L141.5,296.5c0,0.6,0.7,1.1,0.7,1.7l0.3,139.5c0,1.2,0.1,2.4,0.3,3.5l31,143.6c1.6,7.5,8.3,12.8,15.7,12.8
			c1.1,0,2.2-0.1,3.3-0.4c8.6-1.9,14.1-10.1,12.3-18.7l-30.6-141.2l0.4-120.6h37.8l38.8,140.9l34,127.7c1.9,7.2,8.4,11.9,15.5,11.9
			c1.3,0,2.7-0.2,4.1-0.5c8.5-2.2,13.6-10.9,11.4-19.4l-34-128.9c0,0,0,0,0,0c0,0,0,0.1,0,0.1c0,0,0,0,0,0l-41.1-150.3l0.2-1.4
			h-98.1L141.5,296.5L141.5,296.5z"/>
		<path fill="#218ac9" d="M312.9,155.8l20.8,30.5c2.8,4,2.8,9.3,0.1,13.4l-54.7,83.3c-2.2,3.4-6,5.4-10,5.4c-2.3,0-4.6-0.7-6.6-2
			c-2.7-1.8-4.5-4.5-5.2-7.6c-0.7-3.1,0-6.3,1.7-9l48.8-74.4l1.5-2.2l-1.5-2.2l-14.7-21.4L312.9,155.8 M314,150.2l-26.3,18.3
			l16.9,24.7l-48.8,74.4c-4.9,7.4-2.8,17.3,4.6,22.2c2.7,1.8,5.8,2.6,8.8,2.6c5.2,0,10.3-2.5,13.4-7.2l54.7-83.3
			c3.6-5.4,3.5-12.5-0.2-17.8L314,150.2L314,150.2z"/>
		<path fill="#218ac9" d="M194.5,4c21,0,38,17,38,38c0,21-17,38-38,38c-21,0-38-17-38-38C156.5,21,173.5,4,194.5,4 M194.5,0
			c-23.2,0-42,18.8-42,42s18.8,42,42,42s42-18.8,42-42S217.7,0,194.5,0L194.5,0z"/>
	</g>
</g>
<g id="Botões">
</g>
<g id="Mobile">
</g>
</svg>
