<svg xmlns="http://www.w3.org/2000/svg" width="797.463" height="725.514" viewBox="0 0 797.463 725.514"><g fill="#fff"><path d="M1.288 586.693l8.933-1.196c5.812-.716 14.358-2.092 25.212-3.192 10.875-1.212 24.071-2.767 39.208-4.041 15.138-1.434 32.21-3.02 50.847-4.234 9.33-.666 19.016-1.375 29.063-2.092 10.045-.716 20.428-1.116 31.094-1.716 21.347-1.092 43.855-2.408 67.147-2.945 11.65-.367 23.487-.743 35.467-1.118 6-.178 12.033-.374 18.078-.582 6.063-.043 12.151-.118 18.267-.172 24.45-.246 49.275-.504 74.137-.75 24.834.25 49.671.504 74.118.759 12.229.037 24.362.396 36.349.812 11.988.359 23.813.733 35.467 1.092 23.284.53 45.792 1.887 67.129 2.967 21.359.937 41.541 2.433 60.18 3.796 18.624 1.212 35.695 2.804 50.841 4.22 15.13 1.263 28.33 2.833 39.2 4.013 10.863 1.108 19.404 2.467 25.234 3.183l8.92 1.196.166.025c.71.087 1.21.75 1.104 1.453-.074.639-.628 1.1-1.27 1.1 0 0-198.73-5.89-397.438-5.233-198.729-.657-397.453 5.233-397.453 5.233A1.284 1.284 0 0 1 0 587.99a1.3 1.3 0 0 1 1.117-1.27l.171-.026m247.452 98.022c0-6.06-4.73-9.597-14.483-9.597H214.64v19.388h20.521c8.45 0 13.579-3.329 13.579-9.791m-3.92-29.785c0-5.753-4.43-9.086-12.376-9.086H214.64v18.778h16.9c7.947 0 13.28-3.129 13.28-9.692m12.367-2.02c0 8.683-4.826 13.126-10.055 15.85 8.245 2.829 13.979 7.57 13.979 17.262 0 12.726-10.362 19.488-26.05 19.488h-32.588v-70.674h31.584c14.179 0 23.13 6.967 23.13 18.074m51.789-6.766h-18.004v23.725h18.104c8.85 0 14.483-4.641 14.483-11.912 0-7.77-5.434-11.813-14.583-11.813m14.783 59.366l-17.3-24.633h-15.487v24.633h-12.376v-70.674h31.384c16.192 0 26.155 8.584 26.155 22.417 0 11.712-6.943 18.779-16.8 21.504l19.008 26.753h-14.584m61.544-56.334l-12.071 28.266h24.241zm36.912 56.337H409.14l-7.141-17.062h-33.292l-7.242 17.062h-12.674l30.978-71.183h11.467l30.979 71.183m14.372-59.671v-11.008h56.324v9.188l-41.542 50.483h41.542v11.004h-57.634v-9.187l41.543-50.48h-40.233"/><path d="M512.613 634.837h12.371v70.674h-12.37v-70.674" fill-rule="evenodd"/><path d="M547.305 634.837h12.371v59.367h37.017v11.308h-49.388v-70.675M84.135 339.66s2.282-9.734 7.804-26.51l1.063-2.35 2.045 8.271 3.604 20.588H84.135m72.705-117.228l47.908-94.813c-39.95 32.213-71.433 68.95-92.117 106.61l17.696 59.057c3.792-23.687 12.846-47.616 26.513-70.854m495.616-57.291c4.867 35.87-4.85 74.007-25.567 110.474.916.276 1.808.533 2.734.843 8.486 3.024 16.794 8.049 20.937 11.416l4.263 3.492c36.278-53.2 51.204-109.955 36.67-159.88-19.4-66.62-86.654-105.59-173.804-110.962l-2.413 27.558c74.533 10.592 128.359 52.446 137.18 117.058m-481.92 247.315h-50.541l-.73.104s-5.937-22.592-9.004-34.347H93.628c37.45 102.518 193.5 134.226 355.037 70.118 12.83-5.1 25.267-10.684 37.392-16.646l2.242-25.692a421.846 421.846 0 0 1-71.971 31.246c-101.025 33.058-194.088 20.774-245.792-24.783M365.48 64.158c40.845-13.361 80.337-19.216 116.4-18.557 1.241-14.167 2.104-23.93 2.255-25.467-47.118 1.616-98.551 12.253-150.576 32.879-21.683 8.604-42.295 18.608-61.846 29.545l6.522 21.772c26.745-16.205 56.062-29.959 87.245-40.172"/><path d="M93.003 310.802l-1.067 2.345c-5.52 16.78-7.8 26.514-7.8 26.514h14.513l-3.605-20.592-2.041-8.267m538.272 11.148l-3.134-2.661c-2.913-2.443-8.966-6.167-13.029-7.592-1.855-.675-6.07-2.218-10.759-2.218l-.258.022c-21.263 27.188-48.575 52.592-80.287 74.466-1.105 12.875-2.1 24.104-2.521 28.575 43.637-25.92 81.054-57.02 109.988-90.592"/><path d="M736.11 330.353h-68.3c1.562-8.55 5.78-15.75 12.575-21.534 7.163-6.045 15.596-9.082 25.367-9.082 10.42 0 18.408 3.108 23.941 9.333 5.016 5.688 7.163 12.8 6.416 21.283m10.218-34.108c-9.171-9.496-22.542-14.259-40.108-14.259-15.167 0-28.726 5.267-40.704 15.825-13.422 11.804-20.984 27.496-22.692 47.071-1.647 18.81 3.062 33.788 14.12 44.933 9.938 10.11 22.672 15.176 38.166 15.176 10.759 0 20.61-1.566 29.634-4.692 7.196-2.37 12.625-5.174 16.292-8.433l-7.842-15.196c-8.978 7.033-19.745 10.55-32.217 10.55-10.961 0-19.628-3.242-26.037-9.717-7.234-7.433-10.242-18.096-9.024-31.958h88.866c1.5-3.92 2.462-8.2 2.871-12.85 1.32-15.133-2.447-27.28-11.325-36.45m-362.275 77.1c-9.363 10.113-19.563 15.18-30.567 15.18-15.092 0-22.062-6.167-20.97-18.514.628-7.441 4.678-13.892 12.108-19.358 7.441-5.462 16.662-8.187 27.678-8.187 2.759 0 7.534.663 14.292 2.037zm22.024.033l3.739-42.433c1.482-16.996-1.484-29.454-8.922-37.226-7.4-7.82-20.096-11.733-38.021-11.733-6.67 0-13.8 1.155-21.341 3.488-7.538 2.317-13.542 5.096-17.963 8.333l7.663 17.518c7.992-7.043 18.8-10.567 32.458-10.567 17.826 0 25.887 9.62 24.212 28.82-5.662-1.845-10.782-2.825-15.408-2.825-16.937 0-31.258 4.172-42.933 12.446-11.679 8.316-18.012 18.454-19.045 30.483-.892 10.03 1.937 18.421 8.416 25.18 6.5 6.75 14.588 10.13 24.274 10.13 18.038 0 31.855-5.23 41.543-15.7 1.453 5.5 4.295 9.457 8.55 11.827 4.229 2.396 10.811 3.61 19.791 3.61l.938-10.547c-6.218-3.445-8.851-10.4-7.951-20.804m-342.828-21.15l32.454-71.266 17.55 71.267zM97.33 238.5L14.376 402.67h25.926l15.425-34.208h62.658l8.62 34.208h25.663L103.481 238.5zm456.859-104.13c7.108-6.084 15.563-9.125 25.287-9.125 10.459 0 18.45 3.117 23.984 9.325 5.021 5.692 7.159 12.841 6.421 21.292h-68.309c1.576-8.57 5.796-15.737 12.617-21.492m44.32 91.467c7.192-2.4 12.63-5.204 16.306-8.463l-7.884-15.183c-8.967 7.05-19.692 10.542-32.183 10.542-10.963 0-19.621-3.222-26.03-9.714-7.237-7.461-10.258-18.09-9.054-31.961h88.892c1.496-3.925 2.479-8.188 2.879-12.843 1.337-15.129-2.479-27.274-11.338-36.433-9.166-9.53-22.512-14.27-40.145-14.27-15.121 0-28.676 5.27-40.7 15.813-13.384 11.808-20.959 27.52-22.67 47.066-1.64 18.824 3.074 33.791 14.145 44.934 9.945 10.112 22.654 15.17 38.141 15.17 10.733 0 20.637-1.562 29.641-4.658M329.66 150.949c.641-7.334 3.608-13.567 8.875-18.75 5.25-5.133 11.7-7.72 19.341-7.72 7.084 0 12.763 2.587 17.047 7.72 4.286 5.183 6.112 11.416 5.474 18.75-.741 8.55-3.554 15.446-8.408 20.721-4.846 5.255-11.158 7.892-18.933 7.892-7.947 0-14.017-2.725-18.2-8.113-4.17-5.438-5.921-12.234-5.196-20.5m1.659 77.221c3.608 0 8.696-.592 15.249-1.784 6.57-1.195 11.07-1.816 13.525-1.816 14.455 0 21.226 4.779 20.375 14.345-.416 4.834-3.633 8.888-9.616 12.171-6.013 3.255-13.97 4.88-23.888 4.88-10.755 0-23.233-4.375-35.259-12.617l-.053.037c-.021 0-.021-.037-.037-.037-2.455-2.53-5.514-3.812-9.284-3.812-3.75 0-7.063 1.237-9.888 3.749-2.834 2.513-4.375 5.555-4.695 9.184-.317 3.612.724 6.696 3.15 9.241.5.534 1.025.942 1.574 1.347l-.067.083c5.026 3.884 11.863 7.233 20.484 9.954 8.587 2.716 16.926 4.096 24.92 4.096 15.622 0 34.059-3.68 44.847-10.376 10.783-6.674 18.425-17.853 19.379-28.762.85-9.883-1.871-17.591-8.2-23.158-6.316-5.554-15.567-8.317-27.746-8.317-3.396 0-8.641.592-15.758 1.8-7.112 1.208-12.338 1.796-15.663 1.796-7.533 0-11.17-1.53-10.912-4.596.212-2.253 2.17-4.07 5.904-5.441 3.73-1.392 6.67-2.184 8.875-2.412l18.25-1.714c12.704-1.149 23.324-5.833 31.824-13.92 8.463-8.142 13.239-18.146 14.276-30.117.991-11.267-.992-20.416-5.984-27.45l13.975-9.505-13.167-12.9-12.094 12.572c-6.43-4.788-15.726-7.18-27.855-7.18-13.225 0-24.73 4.118-34.445 12.363-9.726 8.259-15.13 18.584-16.226 30.97-1.692 19.309 5.846 32.851 22.538 40.655-6.188 1.408-11.459 3.716-15.842 6.912-4.376 3.171-6.7 6.738-7.05 10.655-1.134 12.733 7.074 19.104 24.584 19.104m-115.851-50.412l32.48-71.3 17.561 71.3zm63.784 50.412h25.657L255.72 64.007h-6.12l-83 164.163h25.942l15.442-34.192h62.663zm212.663 53.816c-16.434 0-28.78 5.85-37.039 17.567l-5.604-15.25h-15.045L423.86 402.67h22.025l7.73-88.017c3.278-4.171 7.778-7.716 13.478-10.587 5.712-2.892 11.083-4.33 16.075-4.33 9.296 0 15.733 2.522 19.221 7.575 3.538 5.063 4.73 13.867 3.63 26.48l-5.704 65.379-2.318 26.521c7.934-4.166 15.63-8.558 23.184-13.042.424-4.471 1.42-15.704 2.524-28.579 2.126-24.504 4.73-54.737 4.73-54.737 2.77-31.555-9.408-47.347-36.52-47.347M263.28 302.062h17.004l-8.821 100.608h22.03l10.358-118.367h-39.013zm180.362-73.892l10.376-118.333h-39.03l-1.558 17.75h17.008l-8.824 100.583zM595.56 387.22c-5.537 0-10.355-.825-14.717-2.2-6.095 4.795-12.416 9.458-18.887 14.033 7.67 3.942 16.553 5.938 26.704 5.938 17.396 0 32.296-3.709 44.704-11.05l-7.079-17.779c-10.637 7.379-20.892 11.057-30.725 11.057m25.163-103.078c-.022-.026-.034-.026-.059-.026a68.325 68.325 0 0 0-6.812-1.42 17.334 17.334 0 0 0-1.617-.229c-2.23-.292-4.446-.48-6.575-.48-19.992 0-36.255 5.717-48.77 17.155-12.5 11.466-19.567 26.617-21.218 45.488-.575 6.537-.333 12.549.576 18.112a368.571 368.571 0 0 0 22.708-19.083c1.341-13.443 5.767-24.125 13.337-31.939 7.759-7.994 17.642-11.982 29.65-11.982 5.533 0 11.038.97 16.562 2.892 5.551 1.929 9.343 3.97 11.414 6.112l12.237-14.934c-3.347-2.721-8.625-5.37-15.921-7.954a74.931 74.931 0 0 0-5.512-1.712m-439.304 81.588l10.904-124.414H170.28l-11.213 127.926c-2.083 23.837 11.084 35.75 39.541 35.75l1.634-18.8c-6.158 0-10.954-1.817-14.442-5.462-3.466-3.638-4.937-8.647-4.382-15m55.457 0l10.905-124.414h-22.013l-11.225 127.926c-2.083 23.837 11.066 35.75 39.517 35.75l1.641-18.8c-6.162 0-10.949-1.817-14.453-5.462-3.488-3.638-4.933-8.647-4.372-15m271.417-135.234l1.642-18.784c-6.138 0-10.963-1.792-14.446-5.492-3.496-3.653-4.937-8.641-4.374-14.994l12.608-144.392 2.333-26.714c-7.213-.216-14.592-.116-22.025.118-.15 1.537-1.012 11.3-2.259 25.47-4.263 48.542-13.008 149.055-13.008 149.055-2.067 23.833 11.075 35.733 39.53 35.733m-62.575-139.45c3.741 0 7.074-1.3 9.949-3.826 2.875-2.553 4.441-5.645 4.759-9.228.308-3.525-.73-6.588-3.163-9.133-2.421-2.547-5.525-3.8-9.25-3.8-3.787 0-7.095 1.241-9.887 3.741-2.851 2.52-4.408 5.563-4.718 9.192-.316 3.583.734 6.675 3.147 9.228 2.42 2.526 5.459 3.826 9.163 3.826M762.933 292.98c-5.158 0-8.97-4.338-8.476-9.867.463-5.383 5.039-9.767 10.139-9.767h.067c5.145 0 8.886 4.384 8.408 9.825-.475 5.471-4.984 9.863-10.138 9.808m1.875-21.437h-.05c-6.362 0-11.962 5.159-12.529 11.57-.558 6.542 4.128 11.655 10.479 11.655 6.43 0 11.921-5.113 12.5-11.654.545-6.412-4.041-11.571-10.4-11.571m-1.696 11.17h-1.504l.379-4.382c.38-.039.842-.088 1.521-.088 2.321 0 3.041 1.108 2.933 2.263-.137 1.608-1.645 2.208-3.329 2.208m5.512-2.422c.125-1.245-.22-2.133-.941-2.69-.7-.555-1.971-.967-3.938-.967-1.545 0-2.604.167-3.7.304l-1.116 12.93h2.05l.488-5.563h1.466c1.63 0 2.404.608 2.571 2.258.116 1.708.316 2.883.587 3.304h2.18c-.184-.421-.43-1.188-.559-3.192-.1-1.908-.767-2.945-1.892-3.158l.013-.108c1.438-.404 2.667-1.426 2.791-3.118"/></g></svg>