<?xml version="1.0" encoding="UTF-8" standalone="no"?>
<!-- Created with Inkscape (http://www.inkscape.org/) -->

<svg
   xmlns:dc="http://purl.org/dc/elements/1.1/"
   xmlns:cc="http://creativecommons.org/ns#"
   xmlns:rdf="http://www.w3.org/1999/02/22-rdf-syntax-ns#"
   xmlns:svg="http://www.w3.org/2000/svg"
   xmlns="http://www.w3.org/2000/svg"
   xmlns:sodipodi="http://sodipodi.sourceforge.net/DTD/sodipodi-0.dtd"
   xmlns:inkscape="http://www.inkscape.org/namespaces/inkscape"
   version="1.1"
   id="svg2"
   xml:space="preserve"
   width="797.46332"
   height="725.51404"
   viewBox="0 0 797.46331 725.51404"
   sodipodi:docname="aab-logo-white.svg"
   inkscape:version="0.92.3 (2405546, 2018-03-11)"><metadata
     id="metadata8"><rdf:RDF><cc:Work
         rdf:about=""><dc:format>image/svg+xml</dc:format><dc:type
           rdf:resource="http://purl.org/dc/dcmitype/StillImage" /><dc:title></dc:title></cc:Work></rdf:RDF></metadata><defs
     id="defs6" /><sodipodi:namedview
     pagecolor="#ffffff"
     bordercolor="#666666"
     borderopacity="1"
     objecttolerance="10"
     gridtolerance="10"
     guidetolerance="10"
     inkscape:pageopacity="0"
     inkscape:pageshadow="2"
     inkscape:window-width="2048"
     inkscape:window-height="1097"
     id="namedview4"
     showgrid="false"
     inkscape:zoom="0.5668081"
     inkscape:cx="-45.403192"
     inkscape:cy="438.75695"
     inkscape:window-x="0"
     inkscape:window-y="27"
     inkscape:window-maximized="1"
     inkscape:current-layer="g12"
     fit-margin-top="20"
     fit-margin-bottom="20"
     fit-margin-left="0"
     fit-margin-right="0" /><g
     id="g10"
     inkscape:groupmode="layer"
     inkscape:label="AA_BR_Color"
     transform="matrix(1.3333333,0,0,-1.3333333,-0.00167105,779.12368)"><g
       id="g12"
       transform="matrix(0.1,0,0,0.1,-45,0)"><g
         id="g42"
         transform="matrix(5980.98,0,0,5143.33,-7305.1823,1257.0353)" /><g
         id="g3788"
         transform="translate(0.01253285,402.07234)"
         style="fill:#ffffff"><path
           inkscape:connector-curvature="0"
           id="path14"
           style="fill:#ffffff;fill-opacity:1;fill-rule:nonzero;stroke:none"
           d="m 459.66016,1041.16 c 0,0 23.28124,3.121 67.00004,8.969 43.5898,5.371 107.6798,15.691 189.0898,23.941 81.559,9.09 180.531,20.75 294.059,30.309 113.531,10.75 241.57,22.652 381.351,31.75 69.97,5 142.62,10.312 217.97,15.691 75.34,5.37 153.21,8.37 233.21,12.87 160.1,8.19 328.91,18.06 503.6,22.09 87.37,2.75 176.15,5.57 266,8.38 45,1.34 90.25,2.81 135.59,4.37 45.47,0.32 91.13,0.88 137,1.29 183.38,1.84 369.56,3.78 556.03,5.62 186.25,-1.87 372.53,-3.78 555.88,-5.69 91.72,-0.28 182.72,-2.97 272.62,-6.09 89.91,-2.69 178.6,-5.5 266,-8.19 174.63,-3.97 343.44,-14.15 503.47,-22.25 160.19,-7.03 311.56,-18.251 451.35,-28.47 139.68,-9.09 267.71,-21.031 381.31,-31.648 113.47,-9.473 212.47,-21.25 294,-30.102 81.47,-8.309 145.53,-18.5 189.25,-23.871 43.59,-5.848 66.9,-8.969 66.9,-8.969 l 1.25,-0.191 c 5.32,-0.649 9.07,-5.617 8.28,-10.899 -0.56,-4.789 -4.71,-8.25 -9.53,-8.25 0,0 -1490.47,44.18 -2980.78,39.25 -1490.47,4.93 -2980.89984,-39.25 -2980.89984,-39.25 -5.37891,0 -9.66016,4.34 -9.66016,9.621 0,4.778 3.69141,8.879 8.37891,9.528 l 1.28125,0.191" /><path
           inkscape:connector-curvature="0"
           id="path16"
           style="fill:#ffffff;fill-opacity:1;fill-rule:nonzero;stroke:none"
           d="m 2315.55,305.988 c 0,45.442 -35.47,71.973 -108.62,71.973 H 2059.8 V 232.5508 h 153.91 c 63.37,0 101.84,24.9692 101.84,73.4372 m -29.4,223.383 c 0,43.149 -33.22,68.149 -92.82,68.149 H 2059.8 V 456.68 h 126.75 c 59.6,0 99.6,23.468 99.6,72.691 m 92.75,15.149 c 0,-65.122 -36.19,-98.442 -75.41,-118.872 61.84,-21.218 104.84,-56.777 104.84,-129.468 0,-95.4417 -77.71,-146.16046 -195.37,-146.16046 H 1968.55 V 680.078 h 236.88 c 106.34,0 173.47,-52.25 173.47,-135.558" /><path
           inkscape:connector-curvature="0"
           id="path18"
           style="fill:#ffffff;fill-opacity:1;fill-rule:nonzero;stroke:none"
           d="M 2767.32,595.27 H 2632.29 V 417.328 h 135.78 c 66.37,0 108.62,34.813 108.62,89.344 0,58.277 -40.75,88.598 -109.37,88.598 M 2878.19,150.01954 2748.44,334.77 H 2632.29 V 150.01954 h -92.82 V 680.078 h 235.38 c 121.44,0 196.16,-64.379 196.16,-168.129 0,-87.84 -52.07,-140.84 -126,-161.277 l 142.56,-200.65246 h -109.38" /><path
           inkscape:connector-curvature="0"
           id="path20"
           style="fill:#ffffff;fill-opacity:1;fill-rule:nonzero;stroke:none"
           d="m 3339.77,572.531 -90.53,-212 h 181.81 z M 3616.61,150 h -98.06 l -53.56,127.969 H 3215.3 L 3160.99,150 h -95.06 l 232.34,533.871 h 86 L 3616.61,150" /><path
           inkscape:connector-curvature="0"
           id="path22"
           style="fill:#ffffff;fill-opacity:1;fill-rule:nonzero;stroke:none"
           d="m 3724.4,597.531 v 82.559 h 422.43 V 611.18 L 3835.27,232.5586 h 311.56 V 150.03125 H 3714.58 V 218.9297 L 4026.15,597.531 H 3724.4" /><path
           inkscape:connector-curvature="0"
           id="path24"
           style="fill:#ffffff;fill-opacity:1;fill-rule:evenodd;stroke:none"
           d="m 4294.6,680.078 h 92.78 V 150.01954 H 4294.6 V 680.078" /><path
           inkscape:connector-curvature="0"
           id="path26"
           style="fill:#ffffff;fill-opacity:1;fill-rule:nonzero;stroke:none"
           d="m 4554.79,680.078 h 92.78 V 234.8281 H 4925.2 V 150.01172 H 4554.79 V 680.078" /><path
           inkscape:connector-curvature="0"
           id="path28"
           style="fill:#ffffff;fill-opacity:1;fill-rule:nonzero;stroke:none"
           d="m 1081.012,2893.91 c 0,0 17.117,73 58.527,198.82 l 7.973,17.62 15.34,-62.03 27.027,-154.41 h -108.867" /><path
           inkscape:connector-curvature="0"
           id="path30"
           style="fill:#ffffff;fill-opacity:1;fill-rule:nonzero;stroke:none"
           d="m 1626.3,3773.12 359.31,711.1 c -299.63,-241.6 -535.751,-517.13 -690.88,-799.57 l 132.719,-442.93 c 28.441,177.65 96.351,357.12 198.851,531.4" /><path
           inkscape:connector-curvature="0"
           id="path32"
           style="fill:#ffffff;fill-opacity:1;fill-rule:nonzero;stroke:none"
           d="m 5343.42,4202.81 c 36.5,-269.03 -36.38,-555.06 -191.75,-828.56 6.87,-2.07 13.56,-4 20.5,-6.32 63.65,-22.68 125.96,-60.37 157.03,-85.62 l 31.97,-26.19 c 272.09,399 384.03,824.66 275.03,1199.1 -145.5,499.65 -649.91,791.93 -1303.53,832.21 l -18.1,-206.68 c 559,-79.44 962.69,-393.35 1028.85,-877.94" /><path
           inkscape:connector-curvature="0"
           id="path34"
           style="fill:#ffffff;fill-opacity:1;fill-rule:nonzero;stroke:none"
           d="m 1729.02,2347.95 h -379.059 l -5.473,-0.78 c 0,0 -44.527,169.44 -67.527,257.6 h -124.75 c 280.867,-768.88 1451.249,-1006.69 2662.779,-525.88 96.22,38.25 189.5,80.13 280.44,124.84 l 16.81,192.69 C 3943.46,2303.64 3762.49,2224.23 3572.46,2162.08 2814.77,1914.14 2116.8,2006.27 1729.02,2347.95" /><path
           inkscape:connector-curvature="0"
           id="path36"
           style="fill:#ffffff;fill-opacity:1;fill-rule:nonzero;stroke:none"
           d="m 3191.1,4960.17 c 306.34,100.21 602.53,144.12 873,139.18 9.31,106.25 15.78,179.47 16.91,191 -353.38,-12.12 -739.13,-91.9 -1129.32,-246.59 -162.62,-64.53 -317.21,-139.56 -463.84,-221.59 l 48.91,-163.29 c 200.59,121.54 420.47,224.69 654.34,301.29" /><path
           inkscape:connector-curvature="0"
           id="path38"
           style="fill:#ffffff;fill-opacity:1;fill-rule:nonzero;stroke:none"
           d="m 1147.52,3110.34 -8,-17.59 c -41.399,-125.85 -58.5,-198.85 -58.5,-198.85 h 108.851 l -27.043,154.44 -15.308,62" /><path
           inkscape:connector-curvature="0"
           id="path40"
           style="fill:#ffffff;fill-opacity:1;fill-rule:nonzero;stroke:none"
           d="m 5184.56,3026.73 -23.5,19.96 c -21.85,18.32 -67.25,46.25 -97.72,56.94 -13.91,5.06 -45.53,16.63 -80.69,16.63 l -1.94,-0.16 c -159.47,-203.91 -364.31,-394.44 -602.15,-558.5 -8.29,-96.56 -15.75,-180.78 -18.91,-214.31 327.28,194.4 607.91,427.65 824.91,679.44" /><path
           inkscape:connector-curvature="0"
           id="path46"
           style="fill:#ffffff;fill-opacity:1;fill-rule:nonzero;stroke:none"
           d="m 5970.82,2963.71 h -512.25 c 11.72,64.12 43.35,118.12 94.32,161.5 53.72,45.34 116.97,68.12 190.25,68.12 78.15,0 138.06,-23.31 179.56,-70 37.62,-42.66 53.72,-96 48.12,-159.62 m 76.63,255.81 c -68.78,71.22 -169.06,106.94 -300.81,106.94 -113.75,0 -215.44,-39.5 -305.28,-118.69 -100.66,-88.53 -157.38,-206.22 -170.19,-353.03 -12.35,-141.07 22.97,-253.41 105.9,-337 74.54,-75.82 170.04,-113.82 286.25,-113.82 80.69,0 154.57,11.75 222.25,35.19 53.97,17.78 94.69,38.81 122.19,63.25 l -58.81,113.97 c -67.34,-52.75 -148.09,-79.12 -241.63,-79.12 -82.21,0 -147.21,24.31 -195.28,72.87 -54.25,55.75 -76.81,135.72 -67.68,239.69 h 666.5 c 11.25,29.4 18.46,61.5 21.53,96.37 9.9,113.5 -18.35,204.6 -84.94,273.38 M 3330.39,2641.27 c -70.22,-75.85 -146.72,-113.85 -229.25,-113.85 -113.19,0 -165.47,46.25 -157.28,138.85 4.71,55.81 35.09,104.19 90.81,145.19 55.81,40.96 124.97,61.4 207.59,61.4 20.69,0 56.5,-4.97 107.19,-15.28 z m 165.18,-0.25 28.04,318.25 c 11.12,127.47 -11.13,220.9 -66.91,279.19 -55.5,58.65 -150.72,88 -285.16,88 -50.03,0 -103.5,-8.66 -160.06,-26.16 -56.53,-17.38 -101.56,-38.22 -134.72,-62.5 l 57.47,-131.38 c 59.94,52.82 141,79.25 243.44,79.25 133.69,0 194.15,-72.15 181.59,-216.15 -42.47,13.84 -80.87,21.19 -115.56,21.19 -127.03,0 -234.44,-31.29 -322,-93.35 -87.59,-62.37 -135.09,-138.4 -142.84,-228.62 -6.69,-75.22 14.53,-138.16 63.12,-188.85 48.75,-50.62 109.41,-75.97 182.06,-75.97 135.28,0 238.91,39.22 311.57,117.75 10.9,-41.25 32.21,-70.93 64.12,-88.71 31.72,-17.97 81.09,-27.07 148.44,-27.07 l 7.03,79.1 c -46.63,25.84 -66.38,78 -59.63,156.03 m -2571.211,158.62 243.403,534.5 131.629,-534.5 z M 1179.98,3652.61 557.82,2421.33 h 194.442 l 115.687,256.56 h 469.942 l 64.648,-256.56 h 192.471 l -368.901,1231.28 z m 3426.44,780.97 c 53.31,45.63 116.72,68.44 189.65,68.44 78.44,0 138.38,-23.38 179.88,-69.94 37.66,-42.69 53.69,-96.31 48.16,-159.69 h -512.32 c 11.82,64.28 43.47,118.03 94.63,161.19 m 332.4,-686 c 53.94,18 94.72,39.03 122.29,63.47 l -59.13,113.87 c -67.25,-52.87 -147.69,-79.06 -241.37,-79.06 -82.22,0 -147.16,24.16 -195.22,72.85 -54.28,55.96 -76.94,135.68 -67.91,239.71 h 666.69 c 11.22,29.44 18.59,61.41 21.59,96.32 10.03,113.47 -18.59,204.56 -85.03,273.25 -68.75,71.47 -168.84,107.03 -301.09,107.03 -113.41,0 -215.07,-39.53 -305.25,-118.6 -100.38,-88.56 -157.19,-206.4 -170.03,-353 -12.29,-141.18 23.06,-253.43 106.09,-337 74.59,-75.84 169.91,-113.78 286.06,-113.78 80.5,0 154.78,11.72 222.31,34.94 m -2016.37,561.66 c 4.81,55 27.06,101.75 66.56,140.62 39.38,38.5 87.75,57.91 145.06,57.91 53.13,0 95.72,-19.41 127.85,-57.91 32.15,-38.87 45.84,-85.62 41.06,-140.62 -5.56,-64.13 -26.66,-115.85 -63.06,-155.41 -36.35,-39.41 -83.69,-59.19 -142,-59.19 -59.6,0 -105.13,20.44 -136.5,60.85 -31.28,40.78 -44.41,91.75 -38.97,153.75 m 12.44,-579.16 c 27.06,0 65.22,4.44 114.37,13.38 49.28,8.96 83.03,13.62 101.44,13.62 108.41,0 159.19,-35.84 152.81,-107.59 -3.12,-36.25 -27.25,-66.66 -72.12,-91.28 -45.1,-24.41 -104.78,-36.6 -179.16,-36.6 -80.66,0 -174.25,32.81 -264.44,94.63 l -0.4,-0.28 c -0.16,0 -0.16,0.28 -0.28,0.28 -18.41,18.97 -41.35,28.59 -69.63,28.59 -28.12,0 -52.97,-9.28 -74.16,-28.12 -21.25,-18.85 -32.81,-41.66 -35.21,-68.88 -2.38,-27.09 5.43,-50.22 23.62,-69.31 3.75,-4 7.69,-7.06 11.81,-10.1 l -0.5,-0.62 c 37.69,-29.13 88.97,-54.25 153.63,-74.66 64.4,-20.37 126.94,-30.72 186.9,-30.72 117.16,0 255.44,27.6 336.35,77.82 80.87,50.06 138.19,133.9 145.34,215.72 6.38,74.12 -14.03,131.93 -61.5,173.68 -47.37,41.66 -116.75,62.38 -208.09,62.38 -25.47,0 -64.81,-4.44 -118.19,-13.5 -53.34,-9.06 -92.53,-13.47 -117.47,-13.47 -56.5,0 -83.78,11.47 -81.84,34.47 1.59,16.9 16.28,30.53 44.28,40.81 27.97,10.44 50.03,16.38 66.56,18.09 l 136.88,12.85 c 95.28,8.62 174.93,43.75 238.68,104.4 63.47,61.07 99.29,136.1 107.07,225.88 7.43,84.5 -7.44,153.12 -44.88,205.87 l 104.81,71.29 -98.75,96.75 -90.71,-94.29 c -48.22,35.91 -117.94,53.85 -208.91,53.85 -99.19,0 -185.47,-30.88 -258.34,-92.72 -72.94,-61.94 -113.47,-139.38 -121.69,-232.28 -12.69,-144.81 43.84,-246.38 169.03,-304.91 -46.41,-10.56 -85.94,-27.87 -118.81,-51.84 -32.82,-23.78 -50.25,-50.53 -52.88,-79.91 -8.5,-95.5 53.06,-143.28 184.38,-143.28 m -868.88,378.09 243.6,534.75 131.71,-534.75 z m 478.38,-378.09 h 192.43 L 2367.89,4961.3 h -45.88 l -622.5,-1231.22 h 194.56 l 115.82,256.44 h 469.97 z m 1594.97,-403.62 c -123.25,0 -215.85,-43.88 -277.79,-131.75 l -42.03,114.37 H 3706.7 l -77.75,-887.75 h 165.19 l 57.97,660.13 c 24.59,31.28 58.34,57.87 101.09,79.4 42.84,21.69 83.12,32.47 120.56,32.47 69.72,0 118,-18.91 144.16,-56.81 26.53,-37.97 35.47,-104 27.22,-198.6 l -42.78,-490.34 -17.38,-198.91 c 59.5,31.25 117.22,64.19 173.88,97.82 3.18,33.53 10.65,117.78 18.93,214.34 15.94,183.78 35.47,410.53 35.47,410.53 20.78,236.66 -70.56,355.1 -273.9,355.1 M 2424.61,3175.89 h 127.53 l -66.16,-754.56 h 165.22 l 77.69,887.75 h -292.6 z m 1352.71,554.19 77.82,887.5 h -292.72 l -11.69,-133.12 h 127.56 l -66.18,-754.38 z M 4916.7,2537.21 c -41.53,0 -77.66,6.18 -110.38,16.5 -45.71,-35.97 -93.12,-70.94 -141.65,-105.25 57.53,-29.57 124.15,-44.54 200.28,-44.54 130.47,0 242.22,27.82 335.28,82.88 l -53.09,133.34 c -79.78,-55.34 -156.69,-82.93 -230.44,-82.93 m 188.72,773.09 c -0.16,0.19 -0.25,0.19 -0.44,0.19 -17.59,4.65 -34.41,8 -51.09,10.65 -4.16,0.82 -8.19,1.32 -12.13,1.72 -16.72,2.19 -33.34,3.6 -49.31,3.6 -149.94,0 -271.91,-42.88 -365.78,-128.66 -93.75,-86 -146.75,-199.63 -159.13,-341.16 -4.31,-49.03 -2.5,-94.12 4.32,-135.84 59.09,45.78 115.93,93.5 170.31,143.12 10.06,100.82 43.25,180.94 100.03,239.54 58.19,59.96 132.31,89.87 222.37,89.87 41.5,0 82.79,-7.28 124.22,-21.69 41.63,-14.47 70.07,-29.78 85.6,-45.84 l 91.78,112 c -25.1,20.41 -64.69,40.28 -119.41,59.66 -13.97,4.87 -27.84,9.28 -41.34,12.84 m -3294.78,-611.91 81.78,933.1 h -165.31 l -84.1,-959.44 c -15.62,-178.78 83.13,-268.13 296.56,-268.13 l 12.25,141 c -46.18,0 -82.15,13.63 -108.31,40.97 -26,27.28 -37.03,64.85 -32.87,112.5 m 415.93,0 81.79,933.1 h -165.1 l -84.19,-959.44 c -15.62,-178.78 83,-268.13 296.38,-268.13 l 12.31,141 c -46.22,0 -82.12,13.63 -108.4,40.97 -26.16,27.28 -37,64.85 -32.79,112.5 m 2035.63,1014.25 12.31,140.88 c -46.03,0 -82.22,13.44 -108.34,41.19 -26.22,27.4 -37.03,64.81 -32.81,112.46 l 94.56,1082.94 17.5,200.35 c -54.1,1.62 -109.44,0.87 -165.19,-0.88 -1.12,-11.53 -7.59,-84.75 -16.94,-191.03 -31.97,-364.06 -97.56,-1117.91 -97.56,-1117.91 -15.5,-178.75 83.06,-268 296.47,-268 m -469.31,1045.88 c 28.06,0 53.06,9.75 74.62,28.69 21.56,19.15 33.31,42.34 35.69,69.21 2.31,26.44 -5.47,49.41 -23.72,68.5 -18.16,19.1 -41.44,28.5 -69.37,28.5 -28.41,0 -53.22,-9.31 -74.16,-28.06 -21.38,-18.9 -33.06,-41.72 -35.38,-68.94 -2.37,-26.87 5.5,-50.06 23.6,-69.21 18.15,-18.94 40.94,-28.69 68.72,-28.69" /><path
           inkscape:connector-curvature="0"
           id="path48"
           style="fill:#ffffff;fill-opacity:1;fill-rule:nonzero;stroke:none"
           d="m 6172,3244.01 c -38.69,0 -67.28,32.53 -63.57,74 3.47,40.37 37.79,73.25 76.04,73.25 h 0.5 c 38.59,0 66.65,-32.88 63.06,-73.69 -3.56,-41.03 -37.38,-73.97 -76.03,-73.56 m 14.06,160.78 h -0.38 c -47.71,0 -89.71,-38.69 -93.96,-86.78 -4.19,-49.06 30.96,-87.41 78.59,-87.41 48.22,0 89.41,38.35 93.75,87.41 4.09,48.09 -30.31,86.78 -78,86.78 m -12.72,-83.78 h -11.28 l 2.84,32.87 c 2.85,0.29 6.32,0.66 11.41,0.66 17.41,0 22.81,-8.31 22,-16.97 -1.03,-12.06 -12.34,-16.56 -24.97,-16.56 m 41.34,18.16 c 0.94,9.34 -1.65,16 -7.06,20.18 -5.25,4.16 -14.78,7.25 -29.53,7.25 -11.59,0 -19.53,-1.25 -27.75,-2.28 l -8.37,-96.97 h 15.37 l 3.66,41.72 h 11 c 12.22,0 18.03,-4.56 19.28,-16.94 0.87,-12.81 2.37,-21.62 4.4,-24.78 h 16.35 c -1.38,3.16 -3.22,8.91 -4.19,23.94 -0.75,14.31 -5.75,22.09 -14.19,23.69 l 0.1,0.81 c 10.78,3.03 20,10.69 20.93,23.38" /></g></g></g></svg>